<?xml version="1.0" encoding="UTF-8" standalone="no"?>
<!-- Created with Inkscape (http://www.inkscape.org/) -->

<svg
   width="210mm"
   height="297mm"
   viewBox="0 0 210 297"
   version="1.1"
   id="svg5"
   inkscape:version="1.1.2 (b8e25be833, 2022-02-05)"
   sodipodi:docname="AVATAR.svg"
   xmlns:inkscape="http://www.inkscape.org/namespaces/inkscape"
   xmlns:sodipodi="http://sodipodi.sourceforge.net/DTD/sodipodi-0.dtd"
   xmlns="http://www.w3.org/2000/svg"
   xmlns:svg="http://www.w3.org/2000/svg">
  <sodipodi:namedview
     id="namedview7"
     pagecolor="#ffffff"
     bordercolor="#666666"
     borderopacity="1.0"
     inkscape:pageshadow="2"
     inkscape:pageopacity="0.0"
     inkscape:pagecheckerboard="0"
     inkscape:document-units="mm"
     showgrid="false"
     inkscape:snap-object-midpoints="false"
     showguides="true"
     inkscape:zoom="0.46"
     inkscape:cx="688.04348"
     inkscape:cy="665.21739"
     inkscape:window-width="1366"
     inkscape:window-height="705"
     inkscape:window-x="-8"
     inkscape:window-y="-8"
     inkscape:window-maximized="1"
     inkscape:current-layer="layer6">
    <inkscape:grid
       type="xygrid"
       id="grid365" />
  </sodipodi:namedview>
  <defs
     id="defs2">
    <linearGradient
       id="linearGradient7305"
       inkscape:swatch="solid">
      <stop
         style="stop-color:#000000;stop-opacity:1;"
         offset="0"
         id="stop7303" />
    </linearGradient>
    <linearGradient
       id="linearGradient7175"
       inkscape:swatch="solid">
      <stop
         style="stop-color:#000000;stop-opacity:1;"
         offset="0"
         id="stop7173" />
    </linearGradient>
    <linearGradient
       id="linearGradient7115"
       inkscape:swatch="solid">
      <stop
         style="stop-color:#000000;stop-opacity:1;"
         offset="0"
         id="stop7113" />
    </linearGradient>
    <inkscape:perspective
       sodipodi:type="inkscape:persp3d"
       inkscape:vp_x="0 : 148.5 : 1"
       inkscape:vp_y="0 : 1000 : 0"
       inkscape:vp_z="210 : 148.5 : 1"
       inkscape:persp3d-origin="105 : 99 : 1"
       id="perspective1678" />
    <clipPath
       clipPathUnits="userSpaceOnUse"
       id="clipPath1879">
      <g
         inkscape:label="Clip"
         id="use1881">
        <path
           id="path2107"
           sodipodi:nodetypes="cccccccccccccccccccccccsccccccccccccscccccccccccccccccccc"
           style="fill:#ffe6d5;stroke:#000000;stroke-width:0.892111"
           d="m 283.57407,1.9920672 c -0.87587,0.02377 -1.31293,0.02421 -1.75244,0.02829 v 0.02829 c -0.4311,-0.0036 -0.85972,-0.005 -1.71871,-0.02829 -14.10982,0.108258 -13.93528,20.3321008 -8.8633,26.4825338 2.25418,3.784814 -0.01,7.574753 -0.57292,11.359867 -5.85236,4.600086 -24.78418,2.993929 -27.76926,7.101689 -3.95616,6.8249 -8.9836,41.17676 -6.90856,46.71241 -6.01647,8.525693 6.49879,42.943583 6.4873,49.314413 -3.2482,15.88216 5.16392,20.62576 9.67205,20.62576 -0.0231,-2.9891 -6.60366,-6.84148 -4.56632,-10.21383 1.71366,-0.92689 1.27693,0.67435 4.09478,2.09372 -0.11076,-1.13689 -0.19399,-2.36706 -0.28645,-3.6217 -0.37719,-2.81637 -0.72303,-5.66108 -0.97734,-8.50218 -0.0835,-0.39471 -0.16959,-0.76646 -0.26959,-1.11759 -2.25418,-2.83872 1.60627,-30.88333 -0.8762,-40.89938 3.66706,-8.113223 6.20825,-35.466203 5.64478,-39.723483 2.02581,11.50248 0.97765,31.50141 1.68503,39.455153 -6.76455,10.51624 -7.60885,26.36493 -6.18419,42.28328 0.50723,2.39734 0.75751,5.52028 0.97733,8.50218 2.87573,21.4724 8.70348,41.36973 8.25672,46.4863 -5.0497,20.68908 1.47398,55.48023 1.78614,59.13449 -0.33521,3.382 -2.44981,8.31827 -0.92678,10.41193 -2.03733,7.25696 -4.48767,8.50219 -2.79714,12.76036 1.69064,4.25818 14.55154,6.41908 16.90095,3.79115 0.73112,-3.98623 -1.12338,-15.14016 -2.81399,-17.03271 0.89872,-1.62072 2.96414,-6.48782 1.12895,-11.35987 3.34353,-4.60008 7.47061,-44.17374 5.86386,-48.3104 1.54745,-1.86362 3.18221,-11.31887 1.49908,-13.87987 0.13678,-1.24865 0.41737,-36.83205 1.112,-37.66421 1.22703,-3.36058 0.82025,-3.3229 1.58735,-0.0459 0.78355,1.15379 0.62682,36.53357 0.76361,37.7818 -1.68312,2.56123 -0.40968,11.91524 1.13776,13.77885 -1.60681,4.13667 2.5204,43.70943 5.86386,48.31041 -1.83519,4.87205 0.23023,9.73896 1.12895,11.35986 -1.69063,1.8925 -3.54513,13.04621 -2.81399,17.03273 2.34945,2.62762 15.21018,0.46679 16.90096,-3.79145 1.69059,-4.25817 -0.75985,-5.5034 -2.79715,-12.76036 1.52303,-2.09384 -0.59155,-7.02993 -0.92677,-10.41193 0.31216,-3.65396 6.83602,-38.44511 1.78613,-59.13449 -0.44683,-5.11687 5.38082,-25.01359 8.25672,-46.4863 0.2198,-2.9819 0.47007,-6.1049 0.97733,-8.50218 1.42488,-15.91955 0.58036,-31.76673 -6.18418,-42.28328 0.70737,-7.952843 -0.3408,-27.952383 1.68502,-39.455153 -0.56354,4.25817 1.97765,31.60994 5.64478,39.723483 -2.48251,10.01545 1.37794,38.05918 -0.8762,40.89938 -0.10004,0.35113 -0.18609,0.72288 -0.26959,1.11759 -0.25429,2.84094 -0.60015,5.68581 -0.97734,8.50218 -0.0924,1.25449 -0.17571,2.48466 -0.28645,3.6217 2.81768,-1.41937 2.38094,-3.02049 4.09478,-2.09372 2.03734,3.37265 -4.54334,7.22471 -4.56632,10.21383 4.50815,0 12.92038,-4.7439 9.67205,-20.62576 -0.0109,-6.37114 12.50414,-40.79082 6.4873,-49.314413 2.07506,-5.5366 -2.95232,-39.88633 -6.90856,-46.71244 -2.98528,-4.107731 -21.9169,-2.501484 -27.76926,-7.101692 -0.56401,-3.784812 -2.82706,-7.574751 -0.57292,-11.359865 5.07198,-6.150433 5.24652,-26.3742918 -8.86328,-26.4825338 z" />
      </g>
    </clipPath>
    <clipPath
       clipPathUnits="userSpaceOnUse"
       id="clipPath3419">
      <g
         inkscape:label="Clip"
         id="use3421">
        <rect
           style="opacity:0.3;fill:#e9afaf;stroke-width:0.815181"
           id="rect3503"
           width="208.21558"
           height="295.06793"
           x="1.1503623"
           y="1.1503623" />
      </g>
    </clipPath>
  </defs>
  <g
     inkscape:label="cuerpo humano"
     inkscape:groupmode="layer"
     id="layer1">
    <path
       id="path3547"
       sodipodi:nodetypes="cccccccccccccccccccccccsccccccccccccscccccccccccccccccccc"
       style="fill:#ffe6d5;stroke:#000000;stroke-width:1.72242"
       d="m 109.06735,6.3179315 c -1.82762,0.042468 -2.7396,0.043262 -3.6567,0.050547 v 0.050547 c -0.89955,-0.00651 -1.79392,-0.00905 -3.58631,-0.050547 C 72.382408,6.5618767 72.746607,42.69123 83.329927,53.678811 c 4.70365,6.761472 -0.0198,13.532097 -1.19546,20.2941 C 69.922764,82.190843 30.419096,79.321485 24.19034,86.659884 15.935309,98.852392 5.4449152,160.22106 9.7747552,170.11036 c -12.5541479,15.23095 13.5605538,76.71758 13.5365658,88.09889 -6.777782,28.37306 10.77518,36.84737 20.181983,36.84737 -0.04816,-5.33996 -13.779384,-12.22211 -9.528223,-18.24673 3.575781,-1.65586 2.664475,1.20471 8.544296,3.74037 -0.231112,-2.03103 -0.404787,-4.2287 -0.597721,-6.47006 -0.787055,-5.03138 -1.508686,-10.11337 -2.039336,-15.18891 -0.174192,-0.70514 -0.35389,-1.36928 -0.562542,-1.99656 -4.703644,-5.0713 3.351692,-55.17224 -1.828309,-73.06564 7.651794,-14.49409 12.954319,-63.35945 11.778562,-70.96495 4.227117,20.54884 2.039991,56.27641 3.516021,70.48555 -14.115089,18.78701 -15.876837,47.10028 -12.904101,75.53798 1.058414,4.28277 1.580654,9.86182 2.039338,15.18891 6.000562,38.35988 18.160913,73.90592 17.228702,83.04653 -10.536844,36.9605 3.075634,99.11394 3.726996,105.64218 -0.699454,6.04185 -5.111827,14.86037 -1.933836,18.60063 -4.251161,12.96437 -9.364092,15.18893 -5.836602,22.79605 3.527745,7.60714 30.363658,11.46751 35.266018,6.77279 1.52557,-7.12131 -2.34409,-27.04751 -5.87175,-30.42849 1.8753,-2.89537 6.18505,-11.59032 2.35569,-20.2941 6.97671,-8.21793 15.588393,-78.91521 12.2357,-86.30523 3.228943,-3.32929 6.640083,-20.22087 3.128023,-24.79602 0.28541,-2.23067 0.87089,-65.79948 2.32033,-67.2861 2.56036,-6.00359 1.71157,-5.93628 3.31222,-0.0819 1.63497,2.0612 1.30793,65.26624 1.59337,67.49618 -3.51207,4.57555 -0.85486,21.28625 2.37407,24.61553 -3.35282,7.39006 5.25914,78.08573 12.2357,86.30524 -3.82935,8.70382 0.48041,17.39842 2.3557,20.29412 -3.52771,3.38089 -7.39738,23.30669 -5.87175,30.42851 4.90243,4.69416 31.73799,0.83389 35.26601,-6.77336 3.52764,-7.6071 -1.58552,-9.83165 -5.83661,-22.79604 3.178,-3.74057 -1.23435,-12.55878 -1.93382,-18.60062 0.65136,-6.52771 14.26422,-68.68117 3.72699,-105.64219 -0.93237,-9.14116 11.22776,-44.6861 17.2287,-83.04653 0.45865,-5.32709 0.98086,-10.90624 2.03933,-15.18892 2.97319,-28.43986 1.211,-56.7504 -12.90408,-75.53797 1.47602,-14.20752 -0.71114,-49.93615 3.516,-70.48555 -1.1759,7.60714 4.12662,56.47031 11.77856,70.96494 -5.18007,17.89234 2.87525,67.99171 -1.8283,73.06565 -0.20876,0.62729 -0.3883,1.29141 -0.56254,1.99656 -0.53061,5.07526 -1.25229,10.15753 -2.03934,15.18891 -0.19281,2.2411 -0.36665,4.43878 -0.59771,6.47006 5.87944,-2.53566 4.96813,-5.39602 8.54427,-3.74037 4.25118,6.02515 -9.48026,12.90675 -9.52821,18.24673 9.40684,0 26.96003,-8.47485 20.18198,-36.84736 -0.0227,-11.38187 26.09148,-72.8717 13.53658,-88.0989 4.32988,-9.89096 -6.1604,-71.255849 -14.4156,-83.450515 C 180.47291,79.268696 140.96967,82.138211 128.75797,73.920063 127.58108,67.158597 122.85895,60.387973 127.5625,53.62597 138.14582,42.638385 138.51003,6.509004 109.06813,6.3156326 Z" />
  </g>
  <g
     inkscape:groupmode="layer"
     id="layer3"
     inkscape:label="corazon"
     style="display:inline" />
  <g
     inkscape:groupmode="layer"
     id="layer5"
     inkscape:label="higao"
     style="display:inline">
    <path
       d="m 118.89709,191.34468 c -0.30152,0.0432 -1.18335,0.25426 -1.64988,0.3982 -1.03543,0.32139 -2.42931,0.86829 -6.28666,2.47538 -2.23588,0.93068 -4.47746,1.84696 -4.97811,2.03886 -6.229771,2.38426 -9.114216,2.91197 -13.540455,2.4898 -3.106349,-0.29264 -6.70197,-1.06023 -15.474848,-3.28136 -4.164547,-1.05541 -4.887094,-1.22331 -6.144421,-1.43919 -3.311156,-0.56608 -6.24114,-0.5325 -8.98337,0.10068 -2.634142,0.60926 -4.909848,1.76059 -6.918163,3.502 -1.513351,1.30966 -2.577252,2.60494 -3.692339,4.48067 -1.575934,2.65771 -2.554494,5.55048 -2.975495,8.77906 -0.09677,0.72919 -0.09109,5.23863 0,6.98007 0.472208,8.57276 1.530414,15.02511 2.782048,16.968 0.199133,0.31185 0.694096,0.69082 1.001316,0.76759 0.415327,0.10561 1.354047,0.0719 2.019693,-0.0719 2.093666,-0.46056 5.518602,-2.01487 8.76149,-3.98177 l 0.915974,-0.55648 0.813572,0.0769 c 1.109412,0.10068 3.550107,0.0624 4.682276,-0.0769 5.069153,-0.60444 9.427137,-2.51377 12.425389,-5.44972 1.803499,-1.76541 2.969803,-3.84264 3.419253,-6.10216 0.06828,-0.3358 0.136547,-0.62844 0.147927,-0.64284 0.02281,-0.0384 0.665644,-0.11523 1.558862,-0.18709 3.379435,-0.28784 7.47002,-1.7654 12.118133,-4.37994 7.646388,-4.30315 15.776378,-11.24005 19.775938,-16.87687 0.92166,-1.30486 1.83195,-2.94553 2.13348,-3.857 0.17638,-0.54211 0.18205,-1.2665 0.0114,-1.53514 -0.15363,-0.24948 -0.38688,-0.43176 -0.67135,-0.5325 -0.22757,-0.0769 -0.93306,-0.12475 -1.25165,-0.0864 z"
       id="path3126"
       style="fill:#ffffff;fill-opacity:1;stroke:#000000;stroke-width:2.005;stroke-miterlimit:4;stroke-dasharray:none;stroke-opacity:1" />
  </g>
  <g
     inkscape:groupmode="layer"
     id="layer4"
     inkscape:label="pulmones"
     style="display:inline">
    <path
       d="m 109.54131,70.69426 c -1.3851,0.19525 -1.53006,0.227804 -2.25484,0.536958 -0.33017,0.138246 -0.57981,0.170844 -1.40927,0.170844 -0.97443,0.0085 -1.02274,0 -1.56228,-0.260346 -0.33824,-0.162707 -0.68452,-0.260332 -0.88584,-0.260332 -0.17717,0 -0.79725,-0.07318 -1.36901,-0.162722 -0.57177,-0.08948 -1.30459,-0.162708 -1.63476,-0.162708 -0.547607,0 -0.620087,0.0163 -0.829467,0.227792 -0.322107,0.333568 -0.434857,0.960011 -0.434857,2.375621 0.008,1.317971 0.13689,2.286107 0.595917,4.637312 0.628127,3.189159 0.869717,4.295597 0.998577,4.539662 0.0725,0.138249 0.4268,0.577638 0.79724,0.976272 0.74893,0.813563 1.02273,1.269155 0.86973,1.472544 -0.0483,0.07318 -0.16911,0.292889 -0.26575,0.496277 -0.20133,0.414911 -0.22549,1.073892 -0.11274,2.603394 0.0564,0.667121 0.0403,1.008814 -0.0644,1.553892 -0.0725,0.382375 -0.12887,0.837967 -0.12887,1.016952 0,0.39051 0.22548,0.903046 0.51538,1.163393 0.29797,0.284749 0.28187,0.683383 -0.0805,1.49695 -0.37849,0.854226 -0.38656,1.195931 -0.0403,1.553899 l 0.25769,0.268473 -0.16912,0.764738 c -0.24158,1.130853 -0.23353,1.838643 0.0403,2.408124 0.21743,0.447473 0.21743,0.455592 0.0805,0.74848 -0.21743,0.463732 -0.23353,1.090162 -0.0484,1.936271 0.21743,0.98439 0.21743,1.1715 -0.0323,1.40744 -0.30602,0.28474 -0.36239,0.62643 -0.26575,1.50508 0.0725,0.60204 0.0725,0.88679 -0.0161,1.34238 -0.0966,0.52068 -0.0966,0.67526 0.0403,1.48883 0.0886,0.50441 0.15299,1.14712 0.14494,1.44 -0.008,0.29289 0.0644,0.92746 0.15301,1.42375 0.22548,1.18779 0.24159,2.35933 0.0323,2.66848 -0.22548,0.33357 -0.18522,0.74034 0.14496,1.53764 0.16106,0.39051 0.2899,0.78102 0.2899,0.87865 0,0.24407 -0.21743,0.62644 -0.40265,0.7322 -0.0886,0.0489 -0.14494,0.12206 -0.12074,0.16271 0.18522,0.30104 0.20938,1.62713 0.0323,1.62713 -0.0402,0 -0.0725,-0.057 -0.0725,-0.12205 0,-0.0651 -0.33822,-1.53763 -0.75697,-3.27865 -0.41877,-1.7329 -0.98247,-4.11664 -1.25628,-5.30444 -0.579817,-2.51392 -0.773087,-3.06715 -1.811911,-5.22307 -0.418757,-0.8868 -0.869724,-1.87932 -1.006634,-2.221 -2.198458,-5.597277 -7.070498,-7.997293 -12.063346,-5.938984 -0.877788,0.357968 -1.763611,0.894928 -3.639975,2.196619 C 73.858525,102.6346 68.7207,107.96346 65.2579,114.26857 c -0.789202,1.43187 -2.576962,5.05223 -3.229254,6.51665 -1.795823,4.06783 -2.842718,7.7614 -3.180946,11.27602 -0.120742,1.26914 -0.265755,14.99397 -0.209383,20.05434 0.05637,5.3858 0.314066,10.81227 0.620082,13.17974 0.362391,2.76613 1.457595,5.22308 3.076248,6.88277 1.071057,1.10645 2.295122,1.83865 3.680231,2.20477 0.603983,0.16269 0.869724,0.18709 2.254847,0.17898 4.549955,-0.0243 10.001848,-0.62644 13.295527,-1.45629 2.262914,-0.57764 3.664135,-1.11458 6.796744,-2.62783 6.659814,-3.20543 8.761642,-4.49899 11.03257,-6.80953 2.013254,-2.03391 3.044044,-3.92138 3.704384,-6.75258 0.38654,-1.66779 0.55566,-3.21358 0.68451,-6.18308 0.25769,-6.16682 0.2899,-6.66309 0.67646,-9.03056 0.41875,-2.57087 0.48317,-3.45766 0.48317,-6.67124 0,-2.28611 -0.0322,-3.36002 -0.1369,-4.47459 -0.15301,-1.54579 -0.45902,-3.84817 -0.66034,-5.00343 -0.12074,-0.68339 -0.12074,-0.69154 0.0484,-0.81356 0.0966,-0.0651 0.54761,-0.17899 0.99052,-0.24408 0.65229,-0.0976 0.96636,-0.10585 1.5945,-0.0408 0.43487,0.0487 0.8053,0.11381 0.83752,0.14644 0.0323,0.0243 -0.0403,0.65084 -0.15301,1.37492 -0.60398,3.80749 -0.73283,5.44274 -0.73283,9.05498 0,3.21358 0.0644,4.10037 0.48319,6.67123 0.38653,2.36746 0.41875,2.86375 0.67645,9.03057 0.16106,3.7261 0.43486,5.62985 1.12742,7.76953 1.10325,3.40071 3.76075,6.29699 8.1416,8.85158 1.43343,0.82984 6.86922,3.52273 8.81805,4.36885 2.3837,1.03321 5.44385,1.81424 8.72141,2.2373 2.5367,0.32542 6.37799,0.58576 8.70531,0.60204 1.38512,0.008 1.65088,-0.0164 2.25485,-0.17899 3.55943,-0.95188 6.15251,-4.43394 6.75648,-9.08752 0.30601,-2.36748 0.56372,-7.79395 0.62008,-13.17975 0.0564,-5.06037 -0.0886,-18.7852 -0.20937,-20.05435 -0.33823,-3.5146 -1.38512,-7.20819 -3.18094,-11.27601 -0.6523,-1.46441 -2.44007,-5.08478 -3.22926,-6.51666 -2.64945,-4.83257 -6.21693,-8.99801 -11.32255,-13.22038 -2.0052,-1.667785 -5.74985,-4.385062 -7.44098,-5.402009 -4.44527,-2.684744 -9.42202,-1.562042 -12.23253,2.774227 -0.48319,0.748459 -0.90194,1.562028 -1.24821,2.440662 -0.13691,0.34169 -0.58789,1.33421 -1.00664,2.221 -1.04689,2.18036 -1.23211,2.70918 -1.85219,5.3858 -0.70061,3.05086 -1.90051,8.00546 -1.94079,8.04614 -0.0644,0.0651 -0.0322,-0.39864 0.0564,-0.80541 0.0805,-0.39865 0.0805,-0.41493 -0.16106,-0.69968 -0.32211,-0.36609 -0.32211,-0.60203 0.0323,-1.46441 0.33018,-0.79729 0.34628,-1.11458 0.11275,-1.58646 -0.16106,-0.29287 -0.16912,-0.41491 -0.12887,-1.11457 0.0323,-0.43932 0.12074,-1.17153 0.20936,-1.62713 0.10476,-0.51255 0.14496,-0.98442 0.11275,-1.19593 -0.0241,-0.21967 0.0241,-0.75664 0.13691,-1.3912 0.16106,-0.91933 0.16911,-1.09832 0.0886,-1.54578 -0.0725,-0.34983 -0.0886,-0.81357 -0.0484,-1.48069 0.0644,-1.02507 0.0322,-1.16337 -0.32213,-1.56203 l -0.18522,-0.20338 0.19327,-0.93559 c 0.23354,-1.171532 0.23354,-1.35051 0.0241,-1.960681 -0.16107,-0.471862 -0.16912,-0.520661 -0.0403,-0.781006 0.17717,-0.374243 0.16106,-0.886778 -0.0484,-1.887441 l -0.17717,-0.846106 0.17717,-0.512549 c 0.22549,-0.642703 0.22549,-1.082039 0.008,-1.879322 -0.21745,-0.805426 -0.17717,-1.147114 0.19326,-1.570169 0.51539,-0.569495 0.53955,-1.033211 0.17717,-3.034575 -0.0161,-0.07318 0.0323,-0.569494 0.0966,-1.098309 0.14494,-1.17152 0.0966,-1.618975 -0.2255,-2.261692 -0.24964,-0.504411 -0.24964,-0.504411 -0.11275,-0.797286 0.0805,-0.162722 0.44292,-0.626437 0.81336,-1.016952 0.36237,-0.398648 0.72476,-0.837966 0.78918,-0.968129 0.13691,-0.268486 0.98248,-4.295611 1.29654,-6.166802 0.26576,-1.578316 0.37044,-3.010189 0.28991,-3.856299 -0.20132,-1.920011 -0.33017,-1.985094 -3.18899,-1.570178 z"
       id="path3935"
       style="display:inline;fill:#ffffff;stroke:#000000;stroke-width:2.008;stroke-miterlimit:4;stroke-dasharray:none;stroke-opacity:1;fill-opacity:1" />
  </g>
  <g
     inkscape:groupmode="layer"
     id="layer2"
     inkscape:label="cerebro"
     style="display:inline;opacity:1">
    <path
       d="m 103.77565,9.4927158 c -0.54871,0.07939 -1.07042,0.201118 -1.54715,0.370481 -0.39578,0.1376102 -0.50823,0.1534872 -1.05692,0.1534872 -1.601127,0 -3.058298,0.38636 -4.466009,1.185543 -0.22937,0.127018 -0.517217,0.254043 -0.643157,0.275215 -0.319317,0.04764 -0.971434,0.30168 -1.515644,0.58219 -0.69711,0.359898 -0.7421,0.375775 -1.20983,0.439283 -1.19635,0.158782 -2.49162,0.762141 -3.52606,1.646004 -0.13043,0.11644 -0.42277,0.275215 -0.69711,0.386362 -1.07491,0.4287 -1.92493,0.931496 -2.47364,1.460758 -0.11247,0.111158 -0.41376,0.359898 -0.67462,0.555724 -0.65214,0.497505 -1.21883,1.047937 -1.74954,1.704221 -0.5127,0.629823 -0.85003,1.196128 -1.15136,1.931803 l -0.20688,0.50809 -0.3688,0.216997 c -0.20239,0.121736 -0.47224,0.32285 -0.59817,0.455163 -0.45425,0.471045 -0.76458,1.217302 -0.81405,1.958267 l -0.0269,0.375777 -0.31931,0.396943 c -0.3778,0.465749 -0.60718,0.862697 -0.82306,1.413128 -0.14841,0.381065 -0.37329,1.286103 -0.37329,1.513683 0,0.05822 -0.063,0.322851 -0.14391,0.587483 -0.12594,0.423406 -0.14393,0.566309 -0.16192,1.169663 -0.0136,0.513386 0,0.809769 0.0585,1.164376 0.0944,0.576894 0.099,0.746256 0.0224,1.17496 -0.054,0.285801 -0.0495,0.354602 0.009,0.539843 0.063,0.190537 0.0676,0.23817 0.005,0.486922 -0.099,0.396944 -0.0585,1.079692 0.09,1.577197 0.0676,0.216996 0.15293,0.433994 0.18891,0.481628 0.036,0.04764 0.099,0.206409 0.14391,0.349313 0.0406,0.142898 0.10793,0.317558 0.14843,0.39165 0.0449,0.07411 0.0944,0.296387 0.11247,0.502798 0.14392,1.651293 0.49472,2.852718 1.21433,4.133528 0.55769,0.989718 1.11088,1.598368 1.65509,1.82595 0.099,0.04233 0.19339,0.121736 0.22037,0.179952 0.0855,0.195826 0.50373,0.666867 0.75559,0.846814 0.85903,0.613944 2.3612,0.873282 4.43905,0.767432 0.91748,-0.04764 2.75247,-0.248757 3.40911,-0.370485 0.44525,-0.08468 0.44525,-0.08468 0.67913,0.30168 0.11694,0.201118 0.3643,0.571602 0.5487,0.830939 0.1844,0.254045 0.40477,0.613941 0.49023,0.788599 0.26535,0.550432 0.52621,0.942083 0.93998,1.413124 0.45424,0.508094 0.885997,0.862696 1.479674,1.201425 0.22038,0.132307 0.548697,0.365191 0.719597,0.523966 0.346307,0.317559 0.886004,0.650993 1.304284,0.799185 0.211367,0.07411 0.413757,0.09526 0.944464,0.08998 0.611657,-0.0053 0.724104,-0.02115 1.205321,-0.169367 0.29233,-0.09527 0.57569,-0.195826 0.62966,-0.227581 0.0495,-0.03705 0.38678,-0.09527 0.74658,-0.132322 2.02837,-0.222293 3.28769,-0.957964 3.8094,-2.228188 0.16191,-0.391655 0.1889,-0.428704 0.33281,-0.460457 0.0855,-0.02115 0.31483,-0.09526 0.50372,-0.169365 0.1934,-0.07411 0.3688,-0.121723 0.38679,-0.10585 0.0225,0.01588 0.054,0.10585 0.0719,0.195825 0.0495,0.285802 0.50373,1.328445 0.75109,1.704217 0.31483,0.492216 0.68812,0.830944 1.30877,1.196133 1.27281,0.751548 1.95194,1.518976 3.83189,4.334647 0.65665,0.984424 0.5487,0.93679 1.16486,0.534554 0.21588,-0.142898 0.40927,-0.259338 0.42727,-0.259338 0.0449,0 0.93998,-0.698623 1.09739,-0.857404 l 0.12143,-0.121736 -0.44974,-0.635114 c -0.39579,-0.561018 -0.52172,-0.778013 -0.40479,-0.693329 0.1034,0.07939 1.26381,0.407527 1.71356,0.486919 0.62965,0.11644 1.70905,0.127017 2.27124,0.02646 0.86803,-0.153488 1.84398,-0.576895 2.55909,-1.106155 0.14843,-0.116441 0.67913,-0.449874 1.17835,-0.740964 1.16486,-0.693336 1.58762,-1.02677 1.75403,-1.39725 0.036,-0.08468 0.20239,-0.227582 0.43626,-0.38107 0.82754,-0.52926 1.65059,-1.254347 2.3522,-2.069408 0.3598,-0.418115 0.59367,-0.910332 0.71961,-1.534856 0.10339,-0.513386 0.0944,-1.810071 -0.018,-2.566919 -0.0495,-0.30697 -0.0765,-0.571601 -0.0676,-0.598065 0.009,-0.02115 0.0676,-0.03704 0.13042,-0.03704 0.1844,0 1.05242,-0.243464 1.36724,-0.386362 0.76008,-0.338729 1.22783,-0.682746 1.75854,-1.307274 0.57117,-0.661578 0.94897,-1.397249 1.23681,-2.392259 0.0809,-0.285801 0.17091,-0.650993 0.1979,-0.820355 0.0316,-0.169361 0.12593,-0.444578 0.21587,-0.613942 0.0855,-0.16407 0.1844,-0.428701 0.21588,-0.576897 0.10794,-0.486918 0.0719,-1.275517 -0.099,-2.090579 -0.063,-0.301679 -0.063,-0.338729 0.009,-0.502798 0.045,-0.100555 0.0855,-0.338726 0.099,-0.571602 0.0316,-0.661574 -0.17989,-1.159078 -0.88151,-2.0747 l -0.3508,-0.46575 -0.10339,-0.529261 c -0.17541,-0.915622 -0.50374,-1.624831 -1.07491,-2.318165 l -0.31034,-0.37048 -0.0269,-0.428701 c -0.0406,-0.592772 -0.20688,-1.005597 -0.57566,-1.402542 -0.14843,-0.164073 -0.3778,-0.370483 -0.50374,-0.455163 -0.21137,-0.142902 -0.23836,-0.185243 -0.43625,-0.698625 -0.11247,-0.301679 -0.30133,-0.714502 -0.41378,-0.926205 -0.24286,-0.433997 -0.76457,-1.100863 -1.14236,-1.450177 -0.13942,-0.127017 -0.29233,-0.269923 -0.33732,-0.312266 -0.054,-0.05293 -0.099,-0.201118 -0.13043,-0.449869 -0.13491,-1.069106 -0.87251,-2.000609 -2.18129,-2.768036 -0.24736,-0.142899 -0.49922,-0.280508 -0.56219,-0.30168 -0.0585,-0.02115 -0.42277,-0.418112 -0.80955,-0.873279 -1.20983,-1.450175 -2.42416,-2.455767 -3.9713,-3.28671 -0.22938,-0.121735 -0.47675,-0.280508 -0.5532,-0.344021 -0.23837,-0.216995 -0.80056,-0.492213 -1.12438,-0.550432 -0.17091,-0.03177 -0.48573,-0.05293 -0.70161,-0.04764 l -0.39127,0.01589 -0.23838,-0.264629 c -0.48574,-0.539847 -1.19184,-0.910328 -1.96541,-1.032058 -0.43176,-0.0688 -1.6461,-0.03705 -2.12732,0.05822 -0.28336,0.05822 -0.31034,0.05292 -0.53072,-0.07939 -0.31032,-0.1852402 -0.74209,-0.2858002 -1.21433,-0.2910932 -0.21138,-0.0053 -0.5442,-0.02647 -0.74209,-0.05294 -0.19789,-0.02646 -0.89501,-0.07411 -1.55163,-0.10585 -0.65664,-0.03177 -1.43021,-0.08998 -1.72256,-0.137611 -0.68363,-0.100555 -1.49317,-0.132321 -1.92044,-0.0688 z"
       id="path4190"
       style="display:inline;fill:#ffffff;stroke:#000000;stroke-width:2.005;fill-opacity:1;stroke-miterlimit:4;stroke-dasharray:none;stroke-opacity:1" />
    <path
       d="m 119.00364,133.33177 c -0.39419,0.31217 -0.58801,0.52734 -0.66026,0.72983 -0.0559,0.1603 -0.0559,0.17717 -0.004,0.27842 0.0559,0.10961 0.1938,0.20672 0.35476,0.25311 0.47959,0.1266 0.88033,1.77184 1.0183,4.17226 0.0296,0.57373 0.0296,0.6792 -0.01,0.69186 -0.17743,0.076 -0.98875,0.64967 -1.24497,0.8817 -0.40732,0.37123 -1.08071,1.23606 -1.32051,1.70011 -0.24966,0.48516 -0.49601,1.14326 -0.64056,1.717 -0.0656,0.26577 -0.12151,0.47249 -0.12479,0.46828 -0.0128,-0.0253 0.0822,-1.16436 0.13467,-1.59466 0.0296,-0.24469 0.0886,-0.66655 0.13138,-0.94498 0.0427,-0.27422 0.0789,-0.54421 0.0789,-0.60328 0,-0.0548 0.0395,-0.17296 0.0854,-0.26154 0.2365,-0.45984 0.0723,-0.8564 -0.48617,-1.18124 -0.4172,-0.24467 -1.13329,-0.42186 -1.69171,-0.42607 -0.40076,0 -0.99204,0.11393 -1.34023,0.25733 -0.36133,0.14759 -0.74566,0.45562 -0.87048,0.70031 -0.1051,0.2067 -0.1051,0.50201 -0.007,1.10527 0.0919,0.55266 0.2825,2.26121 0.34819,3.12605 0.24965,3.22727 0.17085,6.12551 -0.22008,8.16312 l -0.0723,0.37547 -0.18073,0.13925 c -0.20696,0.15608 -0.7358,0.81841 -1.02816,1.27824 -0.8015,1.27405 -1.27452,2.71261 -1.47492,4.49289 -0.0624,0.56532 -0.0527,2.18952 0.0198,2.84761 0.12151,1.11796 0.36791,2.38778 0.66025,3.41713 0.25622,0.89015 0.63398,1.99122 0.88364,2.56496 l 0.2398,0.54844 0.0527,0.62435 c 0.17743,1.9912 0.75222,4.09211 1.64242,5.99052 l 0.22009,0.46828 v 1.11372 c 0,3.09227 -0.17742,6.1761 -0.47302,8.34871 -0.0853,0.61171 -0.0757,0.71717 0.0623,0.71717 0.0427,0 0.16427,-0.0718 0.26936,-0.16453 0.69638,-0.5906 1.68184,-0.93653 2.44065,-0.84795 0.54528,0.0591 0.83434,0.18983 1.28765,0.57796 0.39748,0.34172 0.92306,1.14326 1.24827,1.90683 0.0656,0.15609 0.16755,0.17296 0.21351,0.0338 0.0263,-0.0718 0.0164,-0.13494 -0.0427,-0.28265 -0.21678,-0.53578 -0.94274,-4.26929 -1.14639,-5.9019 -0.0263,-0.19828 -0.0427,-0.36702 -0.0361,-0.37123 0.007,-0.009 0.20366,0.15608 0.44344,0.37123 1.37309,1.22342 3.54766,2.59447 5.45289,3.42977 0.49272,0.21937 1.69168,0.6792 2.23699,0.86482 0.98874,0.33327 2.69687,0.77201 3.794,0.97452 0.14455,0.0253 0.42705,0.0928 0.62414,0.14759 1.40263,0.39234 3.1206,0.40077 4.29331,0.0168 0.88034,-0.28686 1.62272,-0.79732 2.01363,-1.39216 0.6471,-0.98294 1.15955,-3.05852 1.37635,-5.5855 0.11827,-1.36262 0.13467,-1.75918 0.13138,-3.45929 -0.004,-2.6198 -0.15112,-4.57304 -0.52558,-6.87644 -0.49931,-3.05853 -1.40265,-6.1002 -2.44394,-8.23485 -0.14455,-0.29529 -0.1971,-0.44294 -0.21353,-0.6117 -0.0493,-0.50203 -0.25293,-1.78873 -0.39089,-2.48058 -0.64056,-3.2273 -1.59645,-5.43787 -2.81841,-6.50099 -0.25622,-0.2236 -0.67011,-0.47248 -0.96246,-0.58217 l -0.22995,-0.0844 h 0.4993 c 0.95589,-0.009 2.23041,0.29108 3.05821,0.70873 0.17085,0.0886 0.17414,0.0886 0.13796,0.004 -0.0329,-0.076 -0.0296,-0.0801 0.0493,-0.0422 0.0624,0.0295 0.11492,0.0253 0.19052,-0.017 0.22009,-0.11394 0.41061,-0.53155 0.61755,-1.34154 0.40732,-1.59045 0.34163,-3.00792 -0.16757,-3.72087 -0.0952,-0.13077 -0.11827,-0.19407 -0.0919,-0.22782 0.0724,-0.0928 -0.22995,-0.11393 -1.48476,-0.10961 -1.27453,0.004 -1.85594,0.0506 -2.74286,0.21092 -0.32849,0.0591 -1.11029,0.24469 -1.23512,0.29109 -0.0427,0.0168 -0.059,-0.0421 -0.0919,-0.32484 -0.17413,-1.50183 -0.6307,-3.10493 -1.15956,-4.06678 -0.2595,-0.46827 -0.71938,-1.0631 -1.05771,-1.36685 -0.14455,-0.1266 -0.48289,-0.37545 -0.75551,-0.54841 l -0.49605,-0.3164 0.004,-0.23204 c 0.007,-0.35858 0.18724,-0.76779 0.80808,-1.80135 0.24965,-0.41343 0.30549,-0.58218 0.21023,-0.62859 -0.0263,-0.0119 -0.10834,0.0168 -0.18396,0.0675 -0.0788,0.0506 -0.16098,0.076 -0.20037,0.0633 -0.0362,-0.0168 -0.14783,-0.18983 -0.24636,-0.3839 -0.20366,-0.39232 -0.29237,-0.50201 -0.47303,-0.56951 -0.18072,-0.0716 -0.29235,-0.009 -0.41717,0.23203 -0.19053,0.35859 -0.34163,1.16013 -0.41717,2.23166 -0.0263,0.34171 -0.0527,0.63702 -0.0656,0.64968 -0.0296,0.038 -0.37447,-0.0718 -0.57158,-0.1814 -0.11492,-0.0675 -0.18071,-0.13077 -0.20365,-0.20672 -0.0688,-0.23624 -0.0329,-1.02935 0.10176,-2.31604 0.0854,-0.78889 0.10833,-0.72984 -0.31862,-0.86482 -0.34163,-0.10976 -0.71938,-0.12242 -0.86391,-0.0296 -0.22338,0.1476 -0.28252,0.59061 -0.25295,1.81824 0.0128,0.46405 0.0128,0.90278 0,0.97872 l -0.0198,0.13077 -0.11827,-0.0886 c -0.18071,-0.13925 -0.44675,-0.1181 -0.84421,0.0633 -0.18072,0.0801 -0.35147,0.16031 -0.38433,0.17719 -0.0461,0.0253 -0.0559,-0.0168 -0.0757,-0.34172 -0.0853,-1.47653 -0.33506,-2.69994 -0.78837,-3.87272 -0.24308,-0.62015 -0.63397,-1.37106 -0.71282,-1.37106 -0.023,0 -0.17414,0.10544 -0.33505,0.23624 z m 11.12582,12.99768 c -0.023,0.009 -0.0623,0.009 -0.0822,0 -0.023,-0.0119 -0.007,-0.0212 0.0395,-0.0212 0.0461,0 0.0622,0.009 0.0427,0.0212 z m -6.54015,0.51889 c 0.37446,0.78046 0.77523,1.72544 0.88362,2.10512 l 0.0329,0.10977 -0.10175,-0.1266 c -0.32193,-0.38812 -0.6964,-1.25293 -0.98548,-2.25699 -0.12151,-0.42609 -0.10834,-0.41343 0.17086,0.16874 z m -0.63072,-0.18983 c 0,0.0338 -0.023,0.0633 -0.0493,0.0633 -0.0527,0 -0.0656,-0.0506 -0.0263,-0.0971 0.0361,-0.0506 0.0756,-0.0338 0.0756,0.0338 z m -0.91976,0.90701 c 0,0.0212 -0.0164,0.0422 -0.0362,0.0422 -0.0164,0 -0.023,-0.0212 -0.0128,-0.0422 0.01,-0.0253 0.0263,-0.0421 0.0362,-0.0421 0.007,0 0.0128,0.0168 0.0128,0.0421 z m 0.68327,3.22729 c 0.26278,0.10545 0.18723,0.11811 -0.1281,0.0253 -0.15112,-0.0465 -0.31863,-0.0928 -0.37447,-0.10544 -0.0527,-0.009 -0.004,-0.0119 0.11492,-0.004 0.11827,0.009 0.29236,0.0465 0.38762,0.0843 z m 7.70628,1.37952 c 0.19381,0.18983 0.20368,0.20249 0.16099,0.20249 -0.023,0 -0.10834,-0.076 -0.19051,-0.16875 -0.18072,-0.2025 -0.16427,-0.22359 0.0296,-0.0338 z m 0.69311,0.7931 c 0.0527,0.0716 0.0527,0.0843 0.01,0.0633 -0.0296,-0.0168 -0.0624,-0.0548 -0.0723,-0.0886 -0.023,-0.0801 -0.007,-0.076 0.0622,0.0253 z m 0.96904,1.68747 c 0.0395,0.097 0.0395,0.10128 -0.01,0.0465 -0.0329,-0.0295 -0.0559,-0.0843 -0.0559,-0.12228 0,-0.076 0.01,-0.0675 0.0656,0.076 z m -13.36939,1.0842 c -0.0362,0.0716 -0.0362,0.0716 -0.0198,0 0.01,-0.0421 0.0198,-0.10127 0.023,-0.12659 0,-0.038 0.007,-0.038 0.0164,0 0.01,0.0296 0,0.0844 -0.0197,0.12659 z m 13.81613,0.25312 0.0461,0.20249 -0.0656,-0.10544 c -0.0361,-0.0591 -0.0656,-0.16032 -0.0656,-0.22782 0,-0.16452 0.0263,-0.12227 0.0854,0.13077 z m -21.89361,1.16434 c -0.0329,0.038 -0.0361,0.0338 -0.0164,-0.0253 0.01,-0.0422 0.0296,-0.0633 0.0393,-0.0506 0.01,0.0119 0,0.0465 -0.023,0.076 z m 7.68329,1.25718 c -0.1248,1.10951 -0.28908,3.49728 -0.29892,4.41694 -0.007,0.31641 -0.007,0.32064 -0.0296,0.11394 -0.0623,-0.51468 -0.0164,-1.94903 0.0985,-3.13026 0.0624,-0.62435 0.25952,-2.0123 0.28252,-1.98276 0.007,0.009 -0.0164,0.26999 -0.0527,0.58217 z m 14.58151,0.26999 c 0.004,0.0718 -0.004,0.0718 -0.0296,0.0211 -0.0164,-0.0338 -0.0296,-0.1476 -0.0296,-0.25312 l 0.004,-0.18984 0.0296,0.16874 c 0.0128,0.0928 0.0263,0.20672 0.0263,0.25313 z m -22.52102,0.32484 c 0.023,0.0168 0.0198,0.0506 -0.007,0.0928 -0.0691,0.10545 -0.0886,0.0801 -0.0723,-0.0928 0.007,-0.0843 0.0198,-0.12659 0.0296,-0.0928 0.01,0.0338 0.0329,0.076 0.0493,0.0928 z m 22.37648,3.09228 c -0.0128,0.10545 -0.0329,0.18562 -0.0395,0.17298 -0.01,-0.0119 -0.007,-0.10962 0.007,-0.21515 0.01,-0.10977 0.0296,-0.18985 0.0395,-0.17719 0.007,0.0119 0.004,0.10976 -0.007,0.21936 z m -0.16098,2.94043 c 0.20364,0.27842 0.41061,0.6539 0.31533,0.57796 -0.0329,-0.0253 -0.0919,-0.11811 -0.12481,-0.20251 -0.0329,-0.0801 -0.15112,-0.26577 -0.26278,-0.41343 -0.10833,-0.14342 -0.17414,-0.24467 -0.14453,-0.22358 0.0263,0.0168 0.1248,0.13494 0.2168,0.26156 z m -9.12209,2.22325 c 0.10176,0.47669 0.0757,0.51466 -0.0493,0.0718 -0.0691,-0.24468 -0.10833,-0.5864 -0.0624,-0.52312 0.01,0.009 0.059,0.21516 0.11168,0.45141 z m 0.45661,1.88152 c 0,0.021 -0.0198,-0.0168 -0.0427,-0.0844 -0.0263,-0.0718 -0.0461,-0.15609 -0.0461,-0.18983 0,-0.0338 0.023,0.004 0.0461,0.0843 0.023,0.0801 0.0427,0.16453 0.0427,0.18985 z m 0.15111,0.5653 c -0.0198,0.0295 -0.0362,-0.009 -0.0559,-0.14342 l -0.0198,-0.1266 0.0427,0.1266 c 0.0263,0.0675 0.0395,0.13493 0.0329,0.14342 z m -10.91888,3.10494 c 0.0461,0.0801 0.0461,0.0801 -0.007,0.0253 -0.0329,-0.0295 -0.0593,-0.0759 -0.0593,-0.10127 0,-0.0253 0.004,-0.0338 0.01,-0.0253 0.004,0.009 0.0296,0.0548 0.0559,0.10127 z m 1.19897,2.15997 0.0592,0.1181 -0.0688,-0.0801 c -0.0395,-0.0465 -0.0723,-0.097 -0.0723,-0.1181 0,-0.059 0.023,-0.038 0.082,0.0801 z m -0.12152,0.32905 c -0.01,0.0119 -0.0296,-0.009 -0.0395,-0.0506 -0.0197,-0.059 -0.0164,-0.0633 0.0164,-0.0253 0.023,0.0295 0.0329,0.0633 0.023,0.076 z m 0.26937,0.42188 c 0.0427,0.059 0.0624,0.10544 0.0427,0.10544 -0.0198,0 -0.0593,-0.0465 -0.0886,-0.10544 -0.0296,-0.0591 -0.0493,-0.10545 -0.0427,-0.10545 0.007,0 0.0461,0.0465 0.0886,0.10545 z m 0.25951,0.46405 c -0.01,0.009 -0.0527,-0.0422 -0.0952,-0.11811 l -0.0757,-0.13493 0.0952,0.11393 c 0.0493,0.0633 0.0853,0.1266 0.0756,0.13926 z m 0.26279,0.41763 c -0.01,0.0119 -0.059,-0.0506 -0.10834,-0.13494 l -0.0952,-0.1561 0.11169,0.13494 c 0.0591,0.076 0.10175,0.14759 0.0919,0.15608 z m 0.33176,0.45985 c 0,0.0591 -0.0886,-0.0465 -0.20365,-0.24047 l -0.10511,-0.17297 0.15442,0.18984 c 0.0853,0.10128 0.15441,0.2025 0.15441,0.2236 z m 20.55997,1.26136 c -0.004,0.16875 -0.004,0.17298 -0.0296,0.0633 -0.0263,-0.10962 -0.0128,-0.24047 0.0197,-0.24047 0.007,0 0.0128,0.0801 0.01,0.17719 z m -18.89455,0.73406 c 0.007,0.0295 0.0952,0.12228 0.19381,0.21094 0.0985,0.0886 0.17743,0.17717 0.17743,0.19826 0,0.0253 -0.0263,0.0119 -0.0559,-0.021 -0.0329,-0.0338 -0.21025,-0.21515 -0.39418,-0.40922 -0.18073,-0.18983 -0.34165,-0.37125 -0.3515,-0.40499 -0.01,-0.0338 0.0789,0.0338 0.1971,0.15609 0.11827,0.11811 0.22337,0.24048 0.23322,0.26999 z m 18.92738,0.82686 c 0,2.21478 -0.36132,3.65756 -1.06428,4.23129 -0.0886,0.076 -0.20038,0.15188 -0.24637,0.16876 -0.0461,0.0168 0.007,-0.038 0.11492,-0.12228 0.37447,-0.29108 0.68325,-0.8142 0.77523,-1.31621 0.0197,-0.11394 0.0688,-0.30374 0.11168,-0.41765 0.0952,-0.27 0.15111,-0.61592 0.14454,-0.88592 -0.004,-0.11811 0.01,-0.33327 0.0329,-0.48514 0.0263,-0.16875 0.0395,-0.51889 0.0329,-0.90702 -0.01,-0.47248 0,-0.67076 0.0361,-0.79309 0.0263,-0.0845 0.0493,-0.1561 0.0559,-0.1561 0.004,0 0.007,0.30797 0.007,0.68343 z m -17.1404,0.78466 c 0.0788,0.0633 0.27921,0.21092 0.44016,0.32483 0.2398,0.16453 0.47302,0.34172 0.57157,0.4303 0.007,0.009 0.007,0.0212 -0.004,0.0338 -0.0263,0.0338 -1.20883,-0.83952 -1.20883,-0.89012 0,-0.0422 0.0623,-0.009 0.20038,0.10127 z m 4.87473,2.87712 c 0.0263,0.0548 -0.0164,0.0548 -0.0822,0 -0.0427,-0.0338 -0.0427,-0.0421 0.007,-0.0421 0.0296,0 0.0656,0.0168 0.0756,0.0421 z m 1.11029,0.45141 c -0.023,0.009 -0.0622,0.009 -0.0822,0 -0.023,-0.0119 -0.007,-0.0212 0.0395,-0.0212 0.0461,0 0.0623,0.009 0.0427,0.0212 z m 3.71189,1.09684 c -0.023,0.009 -0.0624,0.009 -0.082,0 -0.023,-0.0119 -0.007,-0.0212 0.0393,-0.0212 0.0461,0 0.0625,0.009 0.0427,0.0212 z m 0.82122,0.16875 c -0.023,0.009 -0.069,0.009 -0.0985,0 -0.0329,-0.0119 -0.0128,-0.0212 0.0395,-0.0212 0.0559,0 0.0788,0.009 0.059,0.0212 z"
       id="path4205"
       style="fill:#ffffff;stroke:#000000;stroke-width:2.004;stroke-miterlimit:4;stroke-dasharray:none;stroke-opacity:1;fill-opacity:1" />
  </g>
  <g
     inkscape:groupmode="layer"
     id="layer6"
     inkscape:label="riñones"
     style="display:inline;opacity:1;mix-blend-mode:normal">
    <g
       transform="matrix(0.00507554,0,0,-0.00406467,102.70836,243.96504)"
       fill="#000000"
       stroke="none"
       id="g853"
       style="display:inline;opacity:1;mix-blend-mode:normal;fill:#ffffff;fill-opacity:1;stroke-width:441.42873846;stroke-miterlimit:4;stroke-dasharray:none;stroke:#000000;stroke-opacity:1">
      <path
         d="m 9240,9064 c -14,-2 -65,-9 -115,-15 -279,-34 -624,-153 -958,-333 -149,-80 -250,-158 -407,-316 -558,-560 -784,-1195 -654,-1840 41,-203 160,-488 285,-680 168,-260 406,-414 749,-488 l 85,-19 -82,-42 c -264,-138 -409,-367 -472,-749 -20,-120 -25,-161 -62,-457 -42,-342 -95,-545 -204,-770 -34,-71 -86,-184 -115,-250 -29,-66 -130,-275 -225,-465 -174,-350 -225,-477 -262,-650 -27,-129 -25,-525 5,-752 l 22,-168 -22,-77 c -30,-104 -32,-326 -5,-453 54,-249 171,-441 313,-511 56,-28 71,-31 118,-26 30,3 68,13 85,22 129,66 257,282 292,489 36,216 49,382 55,691 2,171 10,344 15,385 12,82 51,214 80,272 10,20 28,80 40,133 46,214 136,431 248,601 67,101 192,253 276,334 l 56,55 -75,-114 c -126,-191 -200,-359 -243,-553 -25,-116 -25,-425 1,-552 107,-531 405,-1055 766,-1345 221,-178 461,-286 750,-337 143,-26 458,-26 615,0 249,40 465,100 712,198 660,261 1219,831 1441,1468 87,250 251,966 327,1425 89,541 119,884 119,1365 1,637 -68,1109 -236,1620 -312,951 -901,1722 -1853,2427 -346,256 -664,401 -1005,458 -90,15 -407,29 -460,19 z"
         id="path851"
         style="fill:#ffffff;fill-opacity:1;stroke-width:441.42873846;stroke-miterlimit:4;stroke-dasharray:none;stroke:#000000;stroke-opacity:1" />
    </g>
  </g>
</svg>
