<?xml version="1.0" encoding="UTF-8"?>
<svg xmlns="http://www.w3.org/2000/svg" width="36.9925537109375" height="56.135738372802734" viewBox="348.5000261903764 530.9321312902168 36.9925537109375 56.135738372802734" preserveAspectRatio="none">
  <g>
    <defs>
      <path id="s-Path_15-550f5" d="M363.89097384137983 532.4518955433213 C363.8117893330385 532.4636170623093 363.52333148122364 532.5046423787676 363.240529665719 532.5398069357318 C361.6624955352021 532.739072758529 359.71116300821916 533.4365031383195 357.82204688064724 534.4914398472463 C356.97929747044293 534.9603006067692 356.4080378031232 535.4174398473041 355.5200401024382 536.343439847362 C352.3639718414048 539.625465164023 351.08570763532305 543.3470474427368 351.82099235563567 547.1272373163908 C352.05288984434935 548.3169714936804 352.725958165251 549.9872879494811 353.43296270401277 551.1125537723362 C354.383176804109 552.636351240786 355.72931344591177 553.5389082028678 357.66933390027464 553.9726044054265 L358.1500969866328 554.0839588358132 L357.68630200920495 554.3301107345628 C356.1931084233398 555.13889554474 355.37298315837563 556.4810094688745 355.0166528708397 558.7198195955968 C354.9035321446378 559.4231107348813 354.8752519630874 559.6634018741368 354.66597861961384 561.3981866843719 C354.42842509458967 563.4025664313326 354.12865517015473 564.5923006086223 353.5121472123543 565.9109714947807 C353.31984197781105 566.3270854188573 353.0257280896859 566.9893512416835 352.86170303669326 567.37616136829 C352.6976779837004 567.7629714948964 352.12641831638064 568.9878702291503 351.58909486692176 570.1014145330174 C350.6049445489649 572.1526803559304 350.31648669715 572.8969968116733 350.10721335367646 573.9109082041417 C349.9545003733041 574.6669461788725 349.96581244592414 576.9878069385113 350.13549353522706 578.3181993436579 L350.25992633404906 579.3028069386561 L350.13549353522706 579.7540854196969 C349.96581244592414 580.3636044070769 349.9545003733041 581.6646930147532 350.10721335367646 582.4090094704959 C350.41263931442165 583.8683385845112 351.074395562703 584.9936044073664 351.8775527187364 585.4038575719491 C352.1942907521019 585.567958837782 352.27913129675346 585.5855411162642 352.5449650033278 585.5562373187939 C352.7146460926307 585.5386550403118 352.9295754724145 585.4800474453715 353.0257280896859 585.4273006099252 C353.7553567736885 585.0404904833186 354.4793294213806 583.7745664326067 354.6772906922339 582.5613892173409 C354.88090799939744 581.2954651666288 354.9544364714287 580.3225790906185 354.98837268928935 578.511604406961 C354.9996847619094 577.5094145334806 355.0449330523901 576.4955031410121 355.0732132339407 576.2552120017566 C355.1410856696617 575.7746297232455 355.3616710857556 575.0010094700326 355.52569613874823 574.6610854193785 C355.5822565018492 574.5438702294978 355.6840651554311 574.1922246598555 355.7519375911521 573.8816044066715 C356.0121152614166 572.6274018749475 356.52115852932513 571.3556170647414 357.1546345960561 570.3592879507551 C357.53358902883235 569.7673512418572 358.2405935675944 568.8765157987635 358.71570061764226 568.4017942797466 L359.03243865100774 568.0794525075745 L358.60823592775034 568.7475790898948 C357.8955753526785 569.8669841532559 357.4770286657314 570.8515917482541 357.2338191043972 571.9885790900975 C357.09241819664487 572.6684271914057 357.09241819664487 574.4794018750633 357.2394751407072 575.223718330806 C357.84467102588735 578.33578162214 359.53016984629596 581.4068195970156 361.5719989542407 583.1064398502864 C362.82198297877187 584.1496550402251 364.17943169319494 584.782617065581 365.8140261868124 585.081515799777 C366.6228393791563 585.233895546622 368.4044908168363 585.233895546622 369.2924885175215 585.081515799777 C370.7008415587353 584.8470854200154 371.92254540171587 584.4954398503733 373.3195863703096 583.9210854199575 C377.052570334973 582.3914271920138 380.2142946323164 579.0507942804124 381.4699346931576 575.3174904827107 C381.962009852136 573.8523006092013 382.88959980699144 569.6559968114706 383.31945856655886 566.9659082037074 C383.82284579815735 563.7952373174331 383.99252688746026 561.7849968109783 383.99252688746026 558.9659714943464 C383.9981829237703 555.2326676966445 383.60791641837375 552.4663892154589 382.65770231827776 549.4715411140058 C380.89301898952783 543.8979588351763 377.5616136028815 539.3793132652734 372.17706703567035 535.2474778219771 C370.22007847237717 533.7471233915035 368.4214589257666 532.8973132648681 366.49275054402403 532.5632499737079 C365.9837072761153 532.4753385812974 364.190743765815 532.3932879483808 363.89097384137983 532.4518955433213 Z "></path>
    </defs>
    <g style="mix-blend-mode:normal">
      <use xmlns:xlink="http://www.w3.org/1999/xlink" xlink:href="#s-Path_15-550f5" fill="#35B736" fill-opacity="1.0" stroke-width="2.0" stroke="#404040" stroke-linecap="butt"></use>
    </g>
  </g>
</svg>
