<?xml version="1.0" encoding="UTF-8"?>
<svg xmlns="http://www.w3.org/2000/svg" width="63.86765670776367" height="50.5070686340332" viewBox="333.5000037091058 200.9321352805011 63.86765670776367 50.5070686340332" preserveAspectRatio="none">
  <g>
    <defs>
      <path id="s-Path_11-550f5" d="M363.0911271615612 202.46750815770432 C362.463342941214 202.55310577828396 361.86643335465453 202.68435546317275 361.32098149107424 202.86696372040933 C360.8681535288566 203.01533292941406 360.7395092214084 203.03245245352997 360.11172500106136 203.03245245352997 C358.2798300629993 203.03245245352997 356.6125998384708 203.44902754035093 355.00197310921965 204.31071025418606 C354.7395387220253 204.44766644711348 354.410209294958 204.58462264004095 354.266127670616 204.60744867219552 C353.90077783746324 204.65880724454328 353.1546408542638 204.93271963039817 352.5320024062146 205.23516455644625 C351.73440770003583 205.62320710307398 351.6829499770566 205.64032662718992 351.14778965807216 205.70880472365363 C349.7790142268235 205.87999996481292 348.2970318050205 206.53054188121826 347.11350417649726 207.48352872367167 C346.96427677985736 207.60907190052183 346.6298015804921 207.7802671416811 346.3159094703185 207.90010381049262 C345.0860698911139 208.36233096162272 344.1135189268057 208.9044492252938 343.4857347064586 209.4751000291581 C343.35709039901036 209.59493669796962 343.0123236550493 209.86314257578584 342.71386886176947 210.07428337321565 C341.96773187857 210.6106951288481 341.3193645690312 211.204171964867 340.7121634378758 211.91177896165874 C340.12554539591207 212.5908534182573 339.73961247356755 213.2014497783921 339.39484572960646 213.99465439576352 L339.1581402039018 214.54247916747326 L338.73618687547173 214.77644599705764 C338.504627122065 214.90769568194642 338.1958807841894 215.12454298741486 338.0517991598474 215.26720568838095 C337.53207615775676 215.7750849038202 337.1770178691998 216.57970253726887 337.1204143739226 217.3786136626789 L337.089539740135 217.78377573342257 L336.72418990698225 218.2117638363208 C336.2919450339563 218.7139365437214 336.02951064676205 219.14192464661966 335.78251357646155 219.73540148263854 C335.6127030906299 220.14627006142086 335.3554144757336 221.12208293602885 335.3554144757336 221.36746278169048 C335.3554144757336 221.43023437011556 335.2833736635626 221.7155597720477 335.1907497621999 222.0008851739799 C335.046668137858 222.45740581707133 335.02608504866623 222.61148153411472 335.00550195947454 223.26202345052002 C334.99006464258076 223.8155547302684 335.00550195947454 224.1351191804324 335.0723969993476 224.5174552190215 C335.18045821760404 225.13946459523362 335.185603989902 225.3220728524702 335.09812586083723 225.78430000360032 C335.0363765932621 226.09245143768703 335.04152236556 226.1666360421894 335.1084174054331 226.36636382354192 C335.18045821760404 226.57179811293304 335.185603989902 226.62315668528083 335.113563177731 226.89136256309706 C335.00035618717664 227.3193506659953 335.046668137858 228.05549020298028 335.21647862368957 228.59190195861274 C335.2936652081585 228.8258687881971 335.39143488181907 229.05983561778146 335.4326010602025 229.11119419012925 C335.4737672385859 229.16255276247705 335.5458080507569 229.33374800363634 335.5972657737361 229.48782372067973 C335.6435777244175 229.64189943772308 335.72076430888643 229.83021420299832 335.7670762595678 229.9101053155393 C335.818533982547 229.9899964280803 335.87513747782424 230.22966976570333 335.8957205670159 230.4522235792104 C336.0603852805496 232.23265408726706 336.4617555197879 233.52803141203907 337.28507908745627 234.90900635739075 C337.92315485239925 235.976123360617 338.5560848450443 236.63237178506097 339.17872329309347 236.87775163072263 C339.2919302836479 236.92340369503177 339.39999150190437 237.0090013156114 339.43086613569193 237.0717729040365 C339.5286358093525 237.2829137014663 340.0071926330598 237.79079291690553 340.2953558817437 237.9848141902194 C341.2781983906478 238.64676912270198 342.9968863381555 238.92638801659552 345.37423313979787 238.81225785582265 C346.42397068857497 238.76089928347486 348.5234457861293 238.54405197800645 349.27472854162664 238.41280229311764 C349.78415999912147 238.32149816449936 349.78415999912147 238.32149816449936 350.05174015861365 238.7380732513203 C350.1855302383598 238.95492055678875 350.4685477147458 239.35437611949374 350.67952437896076 239.63399501338728 C350.8905010431758 239.90790739924216 351.1426438857742 240.2959499458699 351.24041355943484 240.4842647111451 C351.54401412501255 241.077741547164 351.8424689182923 241.5000231420236 352.31587996970165 242.00790235746285 C352.83560297179224 242.55572712917257 353.3295971123933 242.93806316776167 354.0088390557197 243.30327968223483 C354.2609818983181 243.44594238320093 354.6366232760668 243.69702873690122 354.83216262338806 243.86822397806048 C355.2283870903284 244.2106144603791 355.8458797660797 244.57012446681364 356.3244365897869 244.72990669189562 C356.5662878877895 244.80979780443664 356.7978476411962 244.8326238365912 357.4050487723516 244.82691732855255 C358.1048738048697 244.82121082051393 358.2335181123179 244.80409129639798 358.7841157481961 244.64430907131597 C359.1185909475614 244.5415919266204 359.4427746023308 244.43316827388617 359.50452386990594 244.3989292256543 C359.5611273651831 244.3589836693838 359.9470602875277 244.29621208095872 360.35872207136185 244.25626652468824 C362.679465377727 244.0165931870652 364.1202816211466 243.22338856969384 364.71719120770615 241.85382664041947 C364.9024390104315 241.43154504555986 364.9333136442191 241.39159948928938 365.09797835775277 241.35736044105752 C365.1957480314134 241.33453440890293 365.4581824186077 241.25464329636193 365.6743048551206 241.17475218382094 C365.8955730639315 241.09486107127992 366.0962581835507 241.04350249893213 366.11684127274236 241.06062202304807 C366.142570134232 241.077741547164 366.1785905403175 241.17475218382094 366.19917362950923 241.27176282047787 C366.2557771247864 241.57991425456459 366.7755001268771 242.7040963381773 367.05851760326306 243.10925840892097 C367.4187216641179 243.6399636565148 367.84582076484594 244.00518017098796 368.55593734195986 244.3989292256543 C370.01219090227323 245.20925336714163 370.78920251926024 246.0366970327449 372.94013533979387 249.07255930930307 C373.6914180952912 250.13396980449073 373.5679195601409 250.0826112321429 374.272890364957 249.64891662120604 C374.5198874352575 249.4948409041627 374.7411556440684 249.36929772731253 374.7617387332601 249.36929772731253 C374.8131964562393 249.36929772731253 375.8372051435269 248.61603866621164 376.0173071739543 248.4448434250523 L376.1562430259983 248.31359374016353 L375.64166579620564 247.62881277552634 C375.18883783398803 247.02392292343018 375.04475620964604 246.7899560938458 375.17854628939216 246.8812602224641 C375.2968990522445 246.96685784304375 376.6245083051097 247.32066134143963 377.13908553490245 247.40625896201925 C377.85949365661224 247.5318021388694 379.0944790081148 247.54321515494672 379.73770054535566 247.43479150221248 C380.7308345988556 247.26930276909184 381.8474671875058 246.8127821260004 382.66564498287624 246.24213132213606 C382.83545546870783 246.1165881452859 383.44265659986326 245.7570781388514 384.0138373249332 245.44322019672603 C385.34659235009633 244.69566764366374 385.8302949461015 244.33615763722923 386.0206885211248 243.93670207452422 C386.0618546995082 243.84539794590592 386.25224827453155 243.69132222886256 386.51982843402374 243.52583349574192 C387.46665053684234 242.9551826918776 388.40832686736303 242.1733910905835 389.21106734583964 241.29458885263244 C389.6227291296738 240.8437747175796 389.89030928916605 240.3130694699858 390.034390913508 239.63970152142593 C390.15274367636033 239.0861702416775 390.14245213176446 237.68807577220997 390.0138078243163 236.87204512268397 C389.9572043290391 236.5410676564427 389.9263296952515 236.25574225451052 389.9366212398474 236.22720971431733 C389.94691278444327 236.20438368216273 390.0138078243163 236.1872641580468 390.0858486364873 236.1872641580468 C390.29682530070227 236.1872641580468 391.2899593542022 235.92476478826921 391.65016341505714 235.77068907122583 C392.51979893340683 235.40547255675267 393.05495925239126 235.03454953424088 393.6621603835467 234.36118158568098 C394.31567346538344 233.64786808085057 394.74791833840936 232.8546634634792 395.07724776547667 231.78183995221428 C395.16987166683936 231.47368851812752 395.2727871127979 231.07993946346116 395.3036617465855 230.89733120622458 C395.33968215267095 230.71472294898797 395.4477433709274 230.41798453097854 395.55065881688597 230.23537627374196 C395.64842849054656 230.05847452454404 395.76163548110094 229.77314912261187 395.79765588718647 229.6133668975299 C395.9211544223367 229.08836815797468 395.87998824395333 228.23809846021686 395.68444889663203 227.3592962222658 C395.6124080844611 227.03402526406313 395.6124080844611 226.99407970779265 395.6947404412279 226.8171779585947 C395.74619816420716 226.7087543058605 395.7925101148885 226.45196144412154 395.8079474317823 226.20087509042125 C395.8439678378678 225.48756158559087 395.6021165398652 224.9511498299584 394.79937606138856 223.96392393927312 L394.39800582215025 223.46175123187254 L394.27965305929797 222.8911004280082 C394.07896793967876 221.90387453732293 393.7033265619301 221.13920246014476 393.04981348009335 220.39164990708252 L392.6947551915364 219.99219434437748 L392.6638805577488 219.5299671932474 C392.6175686070675 218.89083829291934 392.42717503204415 218.4457306659052 392.0052217036141 218.01774256300695 C391.8354112177825 217.840840813809 391.57297683058823 217.6182870003019 391.42889520624624 217.52698287168363 C391.1870439082437 217.37290715464027 391.15616927445615 217.3272550903311 390.92975529334734 216.77372381058274 C390.8011109858992 216.44845285238006 390.58498854938625 216.0033452253659 390.45634424193804 215.7750849038202 C390.17847253785 215.30715124465144 389.5815629512904 214.5881312317824 389.1493180782645 214.21150170123195 C388.98979913702874 214.0745455083045 388.8148428788993 213.92046979126116 388.76338515592 213.87481772695202 C388.70163588834487 213.81775264656557 388.65017816536556 213.65797042148358 388.6141577592801 213.38976454366735 C388.4597845903423 212.23704991986142 387.61587793348224 211.2327045050602 386.1184581947854 210.40526083945696 C385.8354407183994 210.25118512241357 385.5472774697155 210.10281591340888 385.4752366575445 210.0799898812543 C385.40834161767145 210.0571638490997 384.99153406153937 209.6291757462015 384.54899764391763 209.13841605487818 C383.1647848957752 207.57483285228994 381.77542637533486 206.49059632494775 380.0052807048479 205.59467456288075 C379.7428463176536 205.46342487799197 379.4598288412676 205.2922296368327 379.37235071220283 205.22375154036897 C379.0996247804127 204.9897847107846 378.4564032431718 204.69304629277514 378.08590763772105 204.6302747043501 C377.8903682903998 204.5960356561182 377.53016422954494 204.57320962396363 377.2831671592444 204.5789161320023 L376.83548496932474 204.5960356561182 L376.5627590375346 204.31071025418606 C376.0070156293585 203.72864643424447 375.1991293785839 203.32919087153942 374.31405654334037 203.19794118665064 C373.8200624027394 203.12375658214827 372.43070388229904 203.15799563038013 371.88010624642084 203.26071277507572 C371.55592259165144 203.32348436350077 371.5250479578639 203.31777785546214 371.2729051152654 203.17511515449607 C370.91784682670846 202.97538737314355 370.42385268610747 202.86696372040933 369.8835465948251 202.86125721237067 C369.6416952968225 202.85555070433205 369.2609081467759 202.83272467217748 369.03449416566707 202.80419213198425 C368.8080801845583 202.77565959179105 368.01048547837956 202.72430101944326 367.2592027228822 202.69006197121138 C366.50791996738485 202.65582292297955 365.6228471321414 202.59305133455445 365.2883719327761 202.54169276220665 C364.5062145434912 202.43326910947246 363.57997552986427 202.39903006124058 363.0911271615612 202.46750815770432 Z "></path>
    </defs>
    <g style="mix-blend-mode:normal">
      <use xmlns:xlink="http://www.w3.org/1999/xlink" xlink:href="#s-Path_11-550f5" fill="#35B736" fill-opacity="1.0" stroke-width="2.0" stroke="#000000" stroke-linecap="butt"></use>
    </g>
  </g>
</svg>
