<?xml version="1.0" encoding="UTF-8"?>
<svg xmlns="http://www.w3.org/2000/svg" width="71.99999237060547" height="42.27064514160156" viewBox="330.49999999570167 460.93213138438387 71.99999237060547 42.27064514160156" preserveAspectRatio="none">
  <g>
    <defs>
      <path id="s-Path_14-550f5" d="M399.05834611797326 462.44409573020266 C398.7724032180055 462.4823394013535 397.93615511432597 462.6693084603132 397.4937528917343 462.79678736414934 C396.511835763543 463.08149024938336 395.19002424482386 463.5659100839608 391.5321131848583 464.9894245101311 C389.4118196058517 465.8137880882715 387.2861308777891 466.62540377602835 386.8113577608614 466.79537564780986 C380.9036695445454 468.9072761546954 378.1683289731552 469.37469880209466 373.97090300759 469.00076068417525 C371.025151623016 468.7415535797084 367.6154174196262 468.0616660925823 359.2960975752798 466.0942416767111 C355.34684846629045 465.15939638191264 354.6616645361789 465.0106709941038 353.4693365948037 464.81945263834956 C350.3293598442138 464.31803561659405 347.55085808037563 464.3477806941558 344.95039623538537 464.9086878710349 C342.452442222459 465.44834856394124 340.2943826000605 466.46817979463043 338.38989498329374 468.01067453104787 C336.9547853343987 469.1707325559568 335.9458924609274 470.3180426904822 334.8884432459521 471.97951773714664 C333.3939869574411 474.33362816132086 332.46602131980967 476.8959541284275 332.066780289666 479.75573087115174 C331.975062755714 480.4016239839216 331.98045790477005 484.3959629707876 332.066780289666 485.93845770720503 C332.51457766131364 493.531951079045 333.518075385729 499.247255267699 334.7050081780482 500.96822046948705 C334.89383839500806 501.24442476113205 335.36321636287977 501.58011920790057 335.6545544119036 501.64810795661316 C336.0484002929913 501.74159248609305 336.93859988723074 501.71184740853124 337.56983232678226 501.5843685046951 C339.55524717938897 501.1764360124194 342.8031269110988 499.799663850989 345.87836187301673 498.0574521652283 L346.7469808710322 497.5645337370619 L347.51848718603964 497.6325224857745 C348.57054125195896 497.7217577184598 350.8850601969814 497.6877633441035 351.9586948591247 497.5645337370619 C356.76577266801746 497.02912234095004 360.89845684491075 495.33790221672376 363.74170039742086 492.7373325784663 C365.4519626481717 491.17359135807624 366.55796820465093 489.3336458460411 366.9841849800747 487.3322270558136 C367.04892676874664 487.0347762801959 367.1136685574186 486.77556917572906 367.1244588555306 486.76282128534547 C367.1460394517546 486.72882691098914 367.75569129508216 486.66083816227655 368.60272969687355 486.59709871035847 C371.80744823613543 486.34214090268614 375.6865604073969 485.03335748996835 380.0943971861459 482.71749073694497 C387.3454775174051 478.9058715122441 395.05514551842396 472.76138834734166 398.8479353047894 467.76846461375914 C399.72194945186084 466.61265588564476 400.58517330082026 465.15939638191264 400.87111620078804 464.35202999095037 C401.03836582152394 463.87185945316753 401.0437609705799 463.23021563719226 400.88190649890004 462.9922550166981 C400.73623747438813 462.7712915833821 400.5150363630923 462.60981830518966 400.2452789102925 462.52058307250434 C400.0294729480526 462.45259432379174 399.36047446510906 462.41010135584634 399.05834611797326 462.44409573020266 Z "></path>
    </defs>
    <g style="mix-blend-mode:normal">
      <use xmlns:xlink="http://www.w3.org/1999/xlink" xlink:href="#s-Path_14-550f5" fill="#35B736" fill-opacity="1.0" stroke-width="2.0" stroke="#404040" stroke-linecap="butt"></use>
    </g>
  </g>
</svg>
