<?xml version="1.0" encoding="UTF-8"?>
<svg xmlns="http://www.w3.org/2000/svg" width="40.617496490478516" height="63.007083892822266" viewBox="346.4999999133279 364.93213133327794 40.617496490478516 63.007083892822266" preserveAspectRatio="none">
  <g>
    <defs>
      <path id="s-Path_13-550f5" d="M360.4699116065793 366.69467375502813 C359.93938237088213 367.04160481234084 359.6785388299977 367.28070594643475 359.58127513678653 367.5057423079349 C359.5061168283961 367.68389609412253 359.5061168283961 367.70264912424756 359.57685405982244 367.8151673049976 C359.65201236821287 367.9370620008102 359.83769760070686 368.044891924029 360.05433037194985 368.0964627568728 C360.6998076087147 368.2371104828104 361.23917899834015 370.0655309199991 361.42486423083415 372.73314945528216 C361.46465392351143 373.3707524795326 361.46465392351143 373.48795891781396 361.4116009999417 373.50202369040767 C361.172862843878 373.58641232597023 360.0808568337347 374.22401535022067 359.73601283053154 374.4818695144396 C359.18779928697785 374.8944361771899 358.28147850932856 375.85552897109676 357.9587398909461 376.37123729953464 C357.62273804167125 376.91038691562875 357.29115726936055 377.6417550905042 357.09662988293826 378.27935811475464 C357.0082083436554 378.57471833922364 356.93305003526496 378.80444295825504 356.9286289583008 378.7997547007238 C356.91094465044426 378.77162515553624 357.0391558824044 377.5057956220979 357.1098931138307 377.02759335391005 C357.14968280650794 376.7556744170974 357.2292621918625 376.2868486639721 357.2867361923964 375.9774236669094 C357.34421019293023 375.6726869273779 357.3928420395358 375.37263844537773 357.3928420395358 375.30700283994014 C357.3928420395358 375.24605549203386 357.44589496310556 375.1147842811588 357.50779004060354 375.01633087300246 C357.82610758202185 374.5053108020959 357.60505373381466 374.06461459415806 356.8534706499104 373.7036187642516 C356.29199387546424 373.4316998274389 355.3281990972811 373.23479301112627 354.5766160133768 373.230104753595 C354.03724462375135 373.230104753595 353.24145077020563 373.3566877069388 352.7728166120065 373.51608846300144 C352.28649814595076 373.6801774765953 351.76923214114606 374.0224202763768 351.60123121650867 374.29433921318946 C351.45975675365605 374.52406383222086 351.45975675365605 374.8522418594086 351.59238906258037 375.5226626863778 C351.7161792175764 376.136824422972 351.97260168149666 378.0355687231295 352.0610232207795 378.9966615170364 C352.3970250700544 382.58317852844505 352.2909192229149 385.804011452416 351.7648110641819 388.06843984001125 L351.6675473709708 388.4856947602928 L351.4243881379429 388.64040725882415 C351.14586028920195 388.8138727874805 350.4340668979749 389.54992921988725 350.0405910481662 390.0609492907938 C348.96184826891533 391.4768030652323 348.32521318607877 393.0754988833896 348.05552749126605 395.0539435615785 C347.9715270289473 395.6821700707664 347.98479025983977 397.4871492202988 348.0820539530509 398.21851739517433 C348.2456338007242 399.4609056409564 348.5772145730349 400.8720711578636 348.97069042284363 402.01600599548937 C349.3155344260468 403.0052283345838 349.8239582769232 404.2288635502409 350.15996012619803 404.8664665744913 L350.4826987445805 405.4759400535542 L350.55343597600677 406.1698021681797 C350.7921741320705 408.3826597229312 351.56586260079547 410.71741197349525 352.7639744580782 412.82712786255917 L353.0601866146758 413.34752444852825 L353.0601866146758 414.5852244367791 C353.0601866146758 418.0217172071877 352.82144845861205 421.44883346253374 352.4235515318392 423.8632860911291 C352.3086035307715 424.5430834331608 352.32186676166396 424.6602898714421 352.50755199415795 424.6602898714421 C352.5650259946918 424.6602898714421 352.7286058423651 424.5805894934108 352.87008030521764 424.47744782772327 C353.8073486216159 423.8210917733478 355.13367171085883 423.43665465578505 356.15494048957584 423.5351080639414 C356.8888392656235 423.6007436693789 357.2778940384681 423.74607965284775 357.8880026595198 424.1773993457231 C358.4229529721811 424.5571482057546 359.13032528644396 425.44791713669264 359.56801190589414 426.29649174984945 C359.65643344517696 426.46995727850583 359.7934868310654 426.48871030863086 359.8553819085634 426.3339978100995 C359.89075052427654 426.2542974320682 359.87748729338415 426.1839735690994 359.7979079080296 426.01988455550554 C359.5061168283961 425.4244758490364 358.52905881932054 421.27536793387736 358.25495204754367 419.4610122692824 C358.21958343183053 419.2406641653135 358.19747804700984 419.05313386406334 358.20632020093814 419.0484456065321 C358.2151623548664 419.03906909146957 358.48042697271495 419.22191113518846 358.8031655910974 419.4610122692824 C360.6511757621091 420.82060695334576 363.5779287123717 422.34429065100306 366.1421533515746 423.2725656421912 C366.805314896196 423.51635503381635 368.4190079881082 424.027375104723 369.1529067641559 424.2336584360981 C370.4836509303629 424.6040307810671 372.78261095171723 425.0916095643174 374.25925065774095 425.31664592581757 C374.45377804416324 425.34477547100505 374.83399066307953 425.41978759150516 375.0992552809281 425.48073493941143 C376.9870551446171 425.91674288981795 379.2992783968638 425.92611940488047 380.87760287306287 425.49948796953646 C382.0624514994531 425.18068645741124 383.06161489334943 424.6134072961296 383.5877230520824 423.9523629842229 C384.45867521401857 422.8599989794409 385.14836322042487 420.55337627406436 385.44015430005834 417.7451100128437 C385.59931307076744 416.23080283024893 385.6214184555882 415.79010662231116 385.61699737862403 413.9007388372161 C385.6125763016599 410.9893309103079 385.41362783827344 408.8186676733377 384.90962506436114 406.2588790612735 C384.23762136581144 402.8598923511149 383.02182520067214 399.47965867108144 381.62034380303885 397.1074003602673 C381.42581641661656 396.7792223330796 381.3550791851903 396.6151333194857 381.3329738003696 396.42760301823563 C381.2666576459074 395.8697003720165 380.9925508741306 394.43978182498427 380.8068656416366 393.67090758985876 C379.9447556336287 390.0843905784501 378.6582222370631 387.6277436320735 377.01358160640194 386.4463027341977 C376.6687376031988 386.19782508504125 376.1116819057168 385.9212178906973 375.71820605590807 385.7993231948847 L375.4087306684181 385.70555804425965 L376.0807343669678 385.70555804425965 C377.3672677635334 385.69618152919713 379.08264562562084 386.0290478139161 380.19675702058487 386.4931853095102 C380.4266530227203 386.5916387176665 380.43107409968445 386.5916387176665 380.3824422530788 386.49787356704144 C380.3382314834374 386.4134849314789 380.3426525604016 386.4087966739476 380.448758407541 386.45099099172893 C380.5327588698597 386.48380879444767 380.603496101286 386.4791205369164 380.70518087146127 386.4322379616039 C381.0013930280588 386.3056550082601 381.25781549197916 385.841517512666 381.5363433407201 384.9413720666654 C382.08455688427387 383.173898977383 381.996135344991 381.5986444468819 381.31086841554884 380.8063289241001 C381.18265718358873 380.6609929406313 381.1517096448397 380.5906690776625 381.1870782605528 380.55316301741243 C381.284341953764 380.4500213517249 380.87760287306287 380.4265800640686 379.18875147276026 380.4312683215999 C377.4733736106728 380.43595657913113 376.69084298801954 380.4875274119749 375.49715220770094 380.66568119816253 C375.05504451128667 380.73131680360007 374.0028281938207 380.9376001349752 373.8348272691832 380.989170967819 C373.77735326864934 381.007923997944 373.75524788382864 380.94228839250644 373.7110371141872 380.6281751379125 C373.4767200350876 378.9591554567864 372.8621903370718 377.17761759491015 372.15039694584476 376.10869487778444 C371.8011318656775 375.58829829181536 371.1821810906975 374.92725397990864 370.7268101633908 374.58969943765845 C370.5322827769685 374.4490517117208 370.07691184966177 374.1724445173769 369.70996246163793 373.9802259585955 L369.0423798400523 373.62860664375154 L369.04680091701647 373.3707524795326 C369.05564307094477 372.9722505893761 369.2988023039726 372.5174896088445 370.1343858501956 371.3688665136875 C370.4703876994705 370.9094172756247 370.54554600786093 370.72188697437457 370.41733477590077 370.6703161415308 C370.38196616018763 370.65625136893703 370.27143923608406 370.6890691716558 370.16975446590874 370.74532826203085 C370.0636486187693 370.8015873524059 369.95312169466575 370.8297168975934 369.9000687710961 370.81565212499964 C369.8514369244905 370.7968990948746 369.70112030770963 370.60468053609327 369.5684879987853 370.3890206896556 C369.29438122700844 369.95301273924906 369.17501214897663 369.83111804343645 368.93185291594875 369.7561059229364 C368.68869368292087 369.6764055449051 368.53837706614 369.74672940787394 368.3703761415026 370.01396008715534 C368.11395367758234 370.41246197731186 367.91058413723175 371.30323090825 367.8088993670565 372.49404832118825 C367.77353075134334 372.8737971812198 367.7381621356302 373.2019752084075 367.7204778277736 373.21603998100124 C367.6806881350963 373.25823429878255 367.2164750538613 373.13633960296994 366.95121043601273 373.0144449071574 C366.7964727422677 372.93943278665733 366.7080512029849 372.86910892368854 366.6771036642359 372.784720288126 C366.5842610479889 372.5221778663758 366.6328928945945 371.6407854505002 366.8141570501243 370.210866903468 C366.92910505119204 369.33416274512365 366.96005258994103 369.3997983505612 366.38531258460245 369.2497741095611 C365.9255205803316 369.1278794137485 365.4170967294552 369.11381464115476 365.2225693430329 369.2169563068423 C364.9219361094712 369.38104532043616 364.8423567241166 369.87331236121776 364.8821464167939 371.2375953028124 C364.8998307246504 371.7533036312503 364.8998307246504 372.2408824145006 364.8821464167939 372.3252710500632 L364.855619955009 372.470607033532 L364.6964611842999 372.3721536253757 C364.453301951272 372.21744112684434 364.09519471717647 372.2408824145006 363.5602444045152 372.4424774883445 C363.3170851714873 372.5315543814383 363.08718916935186 372.6206312745321 363.0429783997104 372.63938430465714 C362.98108332221244 372.6675138498446 362.96782009132 372.6206312745321 362.94129362953515 372.2596354446256 C362.82634562846744 370.618745308687 362.4903437791926 369.2591506246236 361.88023515814086 367.9558150309352 C361.55307546279425 367.266641173841 361.02696730406126 366.43213133327794 360.92086145692184 366.43213133327794 C360.88991391817285 366.43213133327794 360.68654437782226 366.54933777155924 360.4699116065793 366.69467375502813 Z M375.4440992841312 381.1391952088191 C375.4131517453822 381.1485717238816 375.3600988218125 381.1485717238816 375.3335723600277 381.1391952088191 C375.30262482127864 381.12513043622533 375.3247302060994 381.1157539211628 375.38662528359737 381.1157539211628 C375.4485203610954 381.1157539211628 375.4706257459161 381.12513043622533 375.4440992841312 381.1391952088191 Z M366.6417350485227 381.7158508851632 C367.145737822435 382.58317852844505 367.68510921206047 383.6333482154458 367.8310047518772 384.0552913932585 L367.8752155215186 384.17718608907114 L367.7381621356302 384.03653836313356 C367.3048965931442 383.60521867025824 366.8008938192319 382.6441258763513 366.41183904638734 381.5283205839131 C366.24825919871404 381.05480657325654 366.2659435065706 381.0688713458503 366.6417350485227 381.7158508851632 Z M365.7928882714073 381.50487929625683 C365.7928882714073 381.5423853565069 365.76194073265833 381.5752031592256 365.7265721169452 381.5752031592256 C365.65583488551886 381.5752031592256 365.6381505776623 381.5189440688506 365.69120350123205 381.46737323600684 C365.7398353478376 381.41111414563176 365.7928882714073 381.4298671757568 365.7928882714073 381.50487929625683 Z M364.5549867214473 382.51285466547625 C364.5549867214473 382.53629595313254 364.5328813366266 382.55973724078876 364.50635487484175 382.55973724078876 C364.484249490021 382.55973724078876 364.47540733609276 382.53629595313254 364.48867056698515 382.51285466547625 C364.5019337978776 382.4847251202887 364.5240391826983 382.46597209016375 364.53730241359074 382.46597209016375 C364.54614456751904 382.46597209016375 364.5549867214473 382.4847251202887 364.5549867214473 382.51285466547625 Z M365.474570729989 386.0993716768849 C365.82825688712046 386.21657811516627 365.7265721169452 386.23064288776 365.30214872838746 386.12750122207245 C365.0987791880369 386.0759303892287 364.8733042628656 386.02435955638487 364.79814595447516 386.0102947837911 C364.7274087230489 386.0009182687286 364.793724877511 385.9962300111973 364.95288364822017 386.00560652625984 C365.1120424189293 386.01498304132235 365.34635949802885 386.05717735910366 365.474570729989 386.0993716768849 Z M375.84641728786823 387.63243188960473 C376.10726082875266 387.8434034785111 376.1205240596451 387.8574682511049 376.0630500591112 387.8574682511049 C376.03210252036223 387.8574682511049 375.9171545192945 387.7730796155423 375.80662759519095 387.6699379498547 C375.5634683621631 387.4449015883546 375.5855737469838 387.4214603006983 375.84641728786823 387.63243188960473 Z M376.7792645273024 388.5138243054803 C376.8500017587287 388.5935246835116 376.8500017587287 388.60758945610536 376.7925277581948 388.5841481684491 C376.7527380655175 388.5653951383241 376.7085272958761 388.5232008205428 376.6952640649837 388.4856947602928 C376.66431652623464 388.396617867199 376.6864219110554 388.40130612473024 376.7792645273024 388.5138243054803 Z M378.08348223172453 390.38912731798155 C378.13653515529427 390.4969572412004 378.13653515529427 390.50164549873165 378.07021900083214 390.44069815082537 C378.0260082311907 390.4078803481066 377.99506069244165 390.3469330002003 377.99506069244165 390.304738682419 C377.99506069244165 390.2203500468564 378.0083239233341 390.22972656191894 378.08348223172453 390.38912731798155 Z M360.089698987663 391.59400950351363 C360.0410671410574 391.67370988154494 360.0410671410574 391.67370988154494 360.06317252587814 391.59400950351363 C360.07643575677054 391.54712692820107 360.089698987663 391.48149132276353 360.09412006462713 391.45336177757605 C360.09412006462713 391.41116745979474 360.10296221855543 391.41116745979474 360.1162254494478 391.45336177757605 C360.1294886803403 391.4861795802948 360.1162254494478 391.54712692820107 360.089698987663 391.59400950351363 Z M378.68474869884795 391.8753049553888 L378.746643776346 392.10034131688894 L378.6582222370631 391.98313487860764 C378.6095903904575 391.9174992731701 378.56980069778024 391.80498109242 378.56980069778024 391.72996897191996 C378.56980069778024 391.54712692820107 378.6051693134934 391.59400950351363 378.68474869884795 391.8753049553888 Z M349.2182707328356 393.1692640340147 C349.17405996319417 393.21145835179595 349.1696388862301 393.2067700942647 349.1961653480149 393.14113448882716 C349.20942857890736 393.09425191351465 349.2359550406922 393.07081062585837 349.2492182715846 393.08487539845214 C349.26248150247704 393.0989401710459 349.2492182715846 393.1364462312959 349.2182707328356 393.1692640340147 Z M359.55916975196584 394.56636477832814 C359.3911688273284 395.7993765090477 359.17011497912125 398.452930271737 359.15685174822886 399.4749704135502 C359.14800959430056 399.8265897283942 359.14800959430056 399.83127798592545 359.11706205555157 399.601553366894 C359.03306159323284 399.02958594808115 359.0949566707308 397.43557838745505 359.24969436447583 396.1228662787042 C359.33369482679456 395.4290041640787 359.5989594446431 393.88656743629645 359.6299069833921 393.9193852390152 C359.6387491373204 393.9287617540777 359.6078015985714 394.2194337210154 359.55916975196584 394.56636477832814 Z M379.1843303957961 394.86641326032833 C379.18875147276026 394.94611363835963 379.17990931883196 394.94611363835963 379.1445407031188 394.8898545479846 C379.12243531829813 394.85234848773456 379.10475101044153 394.72576553439075 379.10475101044153 394.6085590961094 L379.1091720874057 394.397587507203 L379.14896178008297 394.58511780845316 C379.16664608793957 394.6882594741407 379.1843303957961 394.81484242748456 379.1843303957961 394.86641326032833 Z M348.87342672963246 395.2274090902348 C348.9043742683815 395.2461621203598 348.89995319141735 395.2836681806099 348.8645845757042 395.3305507559224 C348.7717419594572 395.44775719420375 348.74521549767235 395.4196276490162 348.76732088249304 395.2274090902348 C348.77616303642134 395.1336439396098 348.7938473442779 395.0867613642972 348.8071105751703 395.12426742454727 C348.8203738060628 395.16177348479727 348.85132134481177 395.20865606010983 348.87342672963246 395.2274090902348 Z M378.9898030093738 398.66390186064336 C378.9721187015173 398.7811082989247 378.9455922397324 398.87018519201854 378.93675008580414 398.85612041942477 C378.9234868549117 398.842055646831 378.92790793187584 398.7342257236122 378.9455922397324 398.61701928533085 C378.9588554706248 398.49512458951824 378.98538193240967 398.4060476964245 378.9986451633021 398.42011246901825 C379.0074873172304 398.43417724161196 379.00306624026626 398.5420071648308 378.9898030093738 398.66390186064336 Z M378.77317023813083 401.9316173599268 C379.0472770099077 402.2410423569895 379.32580485864867 402.65829727727106 379.19759362668856 402.5739086417085 C379.1533828570471 402.545779096521 379.07380347169254 402.44263743083343 379.0295927020511 402.34887228020835 C378.98538193240967 402.25979538711454 378.82622316170057 402.0535120557394 378.6759065449197 401.88942304214555 C378.53001100510295 401.73002228608294 378.44158946582013 401.61750410533284 378.4813791584974 401.6409453929891 C378.51674777421056 401.65969842311415 378.6493800831348 401.7909696339892 378.77317023813083 401.9316173599268 Z M366.495839508706 404.40232907889725 C366.6328928945945 404.93210217992885 366.59752427888134 404.97429649771016 366.4295233542439 404.48202945692856 C366.33668073799686 404.2101105201159 366.2836278144272 403.83036166008435 366.34552289192516 403.90068552305314 C366.3587861228176 403.91006203811565 366.42510227727973 404.13978665714706 366.495839508706 404.40232907889725 Z M367.1103692067219 406.49329193783615 C367.1103692067219 406.51673322549243 367.08384274493704 406.4745389077111 367.05289520618805 406.3995267872111 C367.01752659047486 406.31982640917977 366.99100012869 406.22606125855475 366.99100012869 406.1885551983047 C366.99100012869 406.15104913805465 367.021947667439 406.19324345583595 367.05289520618805 406.2823203489298 C367.08384274493704 406.3713972420236 367.1103692067219 406.4651623926486 367.1103692067219 406.49329193783615 Z M367.3137387470725 407.1215184470241 C367.2872122852876 407.15433624974287 367.2651069004669 407.11214193196156 367.23858043868205 406.96211769096146 L367.21205397689715 406.8214699650239 L367.26952797743104 406.96211769096146 C367.3048965931442 407.0371298114615 367.3225809010007 407.11214193196156 367.3137387470725 407.1215184470241 Z M352.6180789182615 410.5720759900264 C352.6799739957595 410.6611528831202 352.6799739957595 410.6611528831202 352.6092367643332 410.60020553521395 C352.5650259946918 410.56738773249515 352.52965737897864 410.5158168996514 352.52965737897864 410.48768735446384 C352.52965737897864 410.4595578092763 352.5340784559428 410.45018129421385 352.5429206098711 410.4595578092763 C352.54734168683524 410.4689343243388 352.5827103025484 410.5205051571826 352.6180789182615 410.5720759900264 Z M354.23177201017364 412.972463846028 L354.3113513955282 413.1037350569031 L354.21850877928125 413.01465816380926 C354.1654558557115 412.9630873309655 354.1212450860701 412.90682824059047 354.1212450860701 412.8833869529342 C354.1212450860701 412.81775134749665 354.15219262481907 412.84119263515294 354.23177201017364 412.972463846028 Z M354.0681921625004 413.33814793346573 C354.05492893160795 413.3522127060595 354.0284024698231 413.3287714184032 354.01513923893066 413.2818888430907 C353.9886127771458 413.2162532376532 353.99303385410997 413.2115649801219 354.03724462375135 413.25375929790323 C354.0681921625004 413.28657710062197 354.0814553933928 413.324083160872 354.0681921625004 413.33814793346573 Z M354.4307204735601 413.80697368659105 C354.488194474094 413.87260929202864 354.5147209358788 413.9241801248724 354.488194474094 413.9241801248724 C354.4616680123091 413.9241801248724 354.4086150887394 413.87260929202864 354.3688253960621 413.80697368659105 C354.3290357033848 413.7413380811535 354.3025092415999 413.68976724830975 354.3113513955282 413.68976724830975 C354.3201935494565 413.68976724830975 354.37324647302626 413.7413380811535 354.4307204735601 413.80697368659105 Z M354.7799855537274 414.32268201502893 C354.76672232283494 414.33205853009144 354.7092483223011 414.27579943971637 354.6517743217672 414.19141080415386 L354.55008955159195 414.0413865631537 L354.6783007835521 414.1679695164976 C354.74461693801425 414.23829337946637 354.79324878461983 414.30861724243516 354.7799855537274 414.32268201502893 Z M355.13367171085883 414.786819510623 C355.1204084799664 414.80088428321676 355.05409232550426 414.7305604202479 354.98777617104207 414.6367952696229 L354.85956493908196 414.4633297409665 L355.0098815558628 414.6133539819666 C355.0894609412174 414.6977426175292 355.1469349417512 414.7774429955605 355.13367171085883 414.786819510623 Z M355.58020048423725 415.29783958152956 C355.58020048423725 415.3634751869671 355.4608314062054 415.2462687486858 355.3060937124604 415.03060890224816 L355.1646192496078 414.83839034346676 L355.3724098669225 415.04936193237313 C355.4873578679902 415.16188011312323 355.58020048423725 415.27439829387333 355.58020048423725 415.29783958152956 Z M383.2517212028076 416.6996285833743 C383.2473001258434 416.8871588846244 383.2473001258434 416.89184714215565 383.2119315101303 416.76995244634304 C383.17656289441715 416.6480577505305 383.19424720227374 416.50272176706164 383.2384579719152 416.50272176706164 C383.2473001258434 416.50272176706164 383.2561422797717 416.59179866015546 383.2517212028076 416.6996285833743 Z M357.8216865050577 417.5153853938123 C357.83052865898594 417.54820319653106 357.9498977370178 417.65134486221865 358.0825300459421 417.749798270375 C358.2151623548664 417.8482516785313 358.32126820200585 417.9467050866876 358.32126820200585 417.97014637434387 C358.32126820200585 417.9982759195314 358.28589958629266 417.98421114693764 358.2461098936154 417.9467050866876 C358.201899123974 417.9091990264376 357.96316096791026 417.7076039525937 357.7155806579183 417.49194410615604 C357.4724214248904 417.28097251724967 357.2557886536474 417.07937744340575 357.24252542275497 417.04187138315575 C357.2292621918625 417.0043653229057 357.3486312698944 417.07937744340575 357.50779004060354 417.21533691181213 C357.6669488113127 417.3466081226872 357.80842327416525 417.4825675910935 357.8216865050577 417.5153853938123 Z M383.295931972449 418.43428386993793 C383.295931972449 420.89561907384586 382.8096135063933 422.4990031495344 381.86350303606673 423.13660617378486 C381.74413395803487 423.2209948093474 381.593817341254 423.30538344491 381.531922263756 423.324136475035 C381.470027186258 423.34288950516 381.5407644176843 423.2819421572537 381.686659957501 423.1881770066286 C382.1906627314133 422.86468723697215 382.6062439660427 422.2833433030968 382.7300341210387 421.72544065687765 C382.75656058282357 421.59885770353384 382.8228767372857 421.3878861146274 382.8803507378196 421.2613031612836 C383.00856196977975 420.9612546792834 383.0837202781701 420.57681756172065 383.0748781242419 420.27676907972045 C383.0704570472777 420.1454978688453 383.08814135513427 419.9063967347514 383.11908889388326 419.73761946362634 C383.15445750959645 419.5500891623762 383.172141817453 419.1609637872822 383.1632996635247 418.7296440944069 C383.1500364326323 418.2045592509065 383.1632996635247 417.98421114693764 383.2119315101303 417.8482516785313 C383.2473001258434 417.75448652790624 383.2782476645924 417.67478614987493 383.2870898185207 417.67478614987493 C383.29151089548486 417.67478614987493 383.295931972449 418.0170289496564 383.295931972449 418.43428386993793 Z M360.2267523735514 419.306299770751 C360.33285822069087 419.3766236337198 360.6025439155036 419.5407126473137 360.8191766867466 419.6672956006575 C361.141915305129 419.8501376443764 361.45581176958314 420.047044460689 361.58844407850745 420.1454978688453 C361.5972862324357 420.15487438390784 361.5972862324357 420.1689391565016 361.5840230015433 420.1830039290954 C361.54865438583016 420.2205099893454 359.95706667873867 419.250040680376 359.95706667873867 419.1937815900009 C359.95706667873867 419.1468990146884 360.0410671410574 419.18440507493847 360.2267523735514 419.306299770751 Z M366.7876305883395 422.5036914070657 C366.8229992040526 422.56463875497195 366.76552520351873 422.56463875497195 366.6771036642359 422.5036914070657 C366.619629663702 422.4661853468156 366.619629663702 422.45680883175316 366.68594581816416 422.45680883175316 C366.72573551084145 422.45680883175316 366.77436735744703 422.4755618618782 366.7876305883395 422.5036914070657 Z M368.28195460221974 423.0053349629098 C368.25100706347075 423.01471147797224 368.197954139901 423.01471147797224 368.1714276781162 423.0053349629098 C368.1404801393672 422.991270190316 368.1625855241879 422.9818936752535 368.2244806016859 422.9818936752535 C368.2863756791839 422.9818936752535 368.30848106400464 422.991270190316 368.28195460221974 423.0053349629098 Z M373.27777157170124 424.2242819210356 C373.2468240329522 424.2336584360981 373.1937711093825 424.2336584360981 373.16724464759767 424.2242819210356 C373.1362971088486 424.2102171484418 373.15840249366937 424.2008406333793 373.22029757116735 424.2008406333793 C373.2821926486654 424.2008406333793 373.3042980334861 424.2102171484418 373.27777157170124 424.2242819210356 Z M374.3830408127369 424.41181222228573 C374.3520932739879 424.42118873734825 374.29019819648994 424.42118873734825 374.25040850381265 424.41181222228573 C374.2061977341712 424.39774744969196 374.23272419595605 424.38837093462945 374.3034614273824 424.38837093462945 C374.3786197357728 424.38837093462945 374.4095672745218 424.39774744969196 374.3830408127369 424.41181222228573 Z "></path>
    </defs>
    <g style="mix-blend-mode:normal">
      <use xmlns:xlink="http://www.w3.org/1999/xlink" xlink:href="#s-Path_13-550f5" fill="#35B736" fill-opacity="1.0" stroke-width="2.0" stroke="#404040" stroke-linecap="butt"></use>
    </g>
  </g>
</svg>
