<?xml version="1.0" encoding="UTF-8"?>
<svg xmlns="http://www.w3.org/2000/svg" width="62.999996185302734" height="78.2575912475586" viewBox="335.4999999922444 268.9321313627088 62.999996185302734 78.2575912475586" preserveAspectRatio="none">
  <g>
    <defs>
      <path id="s-Path_12-550f5" d="M369.353921431137 270.58160457981575 C368.4737595047119 270.7227944577987 368.3816495356674 270.74632610412925 367.921099690445 270.9698767442689 C367.71129364984364 271.06988624117355 367.55265981426703 271.093417887504 367.0255861025125 271.093417887504 C366.40640242171344 271.0993007990866 366.3756990986986 271.093417887504 366.032845325033 270.90516471686004 C365.81792206392925 270.7875064852076 365.59788158232294 270.7169115462161 365.4699510697612 270.7169115462161 C365.3573722187068 270.7169115462161 364.9633462400165 270.66396534197247 364.600023584341 270.5992533145636 C364.2367009286655 270.53454128715475 363.77103386294067 270.48159508291116 363.56122782233933 270.48159508291116 C363.21325682817127 270.48159508291116 363.167201843649 270.4933609060764 363.0341541105848 270.6463166072246 C362.8294652904859 270.8875159821122 362.7578242034513 271.3405001739742 362.7578242034513 272.36412678935073 C362.76294142395375 273.31715846573576 362.8448169519933 274.017224944068 363.1364985206342 275.71738639144627 C363.53564171982697 278.02348773183473 363.6891583349011 278.82356370707157 363.77103386294067 279.0000510545503 C363.8170888474629 279.1000605514549 364.04224654957164 279.41773777691657 364.2776386926853 279.70600044446513 C364.75354019941517 280.2942916027275 364.9275256964992 280.6237346513544 364.8302985069522 280.77080744092 C364.7995951839374 280.82375364516366 364.7228368764003 280.98259225789445 364.6614302303707 281.1296650474601 C364.53349971780887 281.42969353817386 364.51814805630147 281.9062093763664 364.5897891433361 283.0121967538997 C364.62560968685335 283.4945955036748 364.61537524584844 283.741677790145 364.5488513793163 284.1358328661808 C364.5027963947941 284.4123297105641 364.46697585127674 284.741772759191 364.46697585127674 284.8711968140087 C364.46697585127674 285.1535765699747 364.61025802534596 285.52419999968 364.79447796343493 285.71245317032395 C364.9838151220264 285.9183550757158 364.9735806810214 286.20661774326436 364.7433057584102 286.7949089015267 C364.5027963947941 287.4126146177022 364.4976791742916 287.6596969041724 364.71771965589784 287.91854501380783 L364.88147071197693 288.1126810960344 L364.77400908142505 288.665674784801 C364.6204924663509 289.4833994947857 364.62560968685335 289.995212802474 364.7995951839374 290.40701661325767 C364.93776013750414 290.73057675030196 364.93776013750414 290.73645966188457 364.85076738896214 290.94824447885907 C364.7126024353954 291.28357043906857 364.70236799439044 291.73655463093064 364.8200640659473 292.3483774355235 C364.958229019514 293.06020973702095 364.958229019514 293.1955167034213 364.7995951839374 293.3661211393174 C364.6051408048435 293.5720230447092 364.5693202613262 293.8191053311794 364.63072690735584 294.4544597821028 C364.6767818918781 294.88979523921694 364.6767818918781 295.0956971446088 364.6204924663509 295.4251401932357 C364.55908582032123 295.80164653452357 364.55908582032123 295.9134218545935 364.6460785688633 296.5017130128558 C364.70236799439044 296.8664535309785 364.7433057584102 297.3312035460058 364.7381885379077 297.5429883629802 C364.7330713174053 297.75477317995467 364.77912630192753 298.21364028339934 364.8354157274547 298.57249788993937 C364.9786979015239 299.43140298100246 364.98893234252887 300.27854224890024 364.85588460946457 300.50209288903994 C364.7126024353954 300.7432922639275 364.7381885379077 301.0374378430587 364.94799457850905 301.6139631781558 C365.0503389885585 301.8963429341218 365.132214516598 302.1787226900877 365.132214516598 302.2493176290792 C365.132214516598 302.4258049765579 364.9940495630313 302.7023018209412 364.87635349147445 302.77877967151534 C364.8200640659473 302.81407714101107 364.78424352242996 302.86702334525467 364.7995951839374 302.8964379031678 C364.91729125549426 303.1141056317249 364.93264291700166 304.0730202196925 364.8200640659473 304.0730202196925 C364.79447796343493 304.0730202196925 364.77400908142505 304.0318398386142 364.77400908142505 303.9847765459532 C364.77400908142505 303.9377132532922 364.55908582032123 302.8729062568373 364.29299035419274 301.6139631781558 C364.0268948880642 300.36090301105696 363.6686894528912 298.63720991734823 363.4947039558072 297.7783048262852 C363.12626407962927 295.9604851472544 363.00345078756993 295.56044715963606 362.34332934275113 294.0014755902408 C362.0772338766226 293.3602382277348 361.7906695284842 292.64252301465467 361.7036767799422 292.3954407281845 C360.30667558276747 288.3479975593394 357.21075717877227 286.6125386424654 354.03808046724 288.10091527286914 C353.4803034324706 288.35976338250464 352.91740917719875 288.7480355469578 351.7250968001229 289.68930140017756 C346.67951738468605 293.6779154531964 343.41473070410933 297.53122253981496 341.2143258880466 302.09047901634835 C340.7128382788044 303.1258714548901 339.57681532725576 305.74376710915766 339.16232046655557 306.80269119402993 C338.0211802945044 309.7441469853418 337.3559416291831 312.41498884385294 337.14101836807936 314.9564066475464 C337.06426006054227 315.8741408544357 336.9721500914978 325.7986126943219 337.00797063501506 329.45778369871385 C337.0437911785324 333.35227116641073 337.2075422346115 337.27617319202074 337.40199661370536 338.98810046256426 C337.6322715363166 340.9882904006563 338.3282135246527 342.7649296986086 339.35677484564945 343.9650436614639 C340.0373651724782 344.7651196367007 340.81518268885384 345.29458167913685 341.6953446152789 345.55931270035495 C342.0791361529643 345.6769709320074 342.2480044295458 345.6946196667553 343.1281663559709 345.6887367551726 C346.01939593986725 345.6710880204248 349.4837542200404 345.2357525633106 351.5766974055512 344.635695581883 C353.0146363667457 344.2180088595167 353.90503273417573 343.8297366950635 355.8956315096371 342.7355151406955 C360.127572865181 340.41764797714177 361.46316741632603 339.4822650355046 362.90622359802296 337.8115181460395 C364.18552872364086 336.3407902503836 364.8405329479572 334.9759547632149 365.26014502915984 332.92870153246184 C365.50577161327845 331.722704658024 365.61323324383034 330.60495145732546 365.6951087718699 328.4576887296678 C365.858859827949 323.99844175003904 365.8793287099589 323.639584143499 366.1249552940775 321.9276568729555 C366.39105076020604 320.06865681284637 366.4319885242258 319.42741945034044 366.4319885242258 317.10366937520405 C366.4319885242258 315.4505712204868 366.4115196422159 314.67402689158047 366.3449957756838 313.868068004761 C366.24776858613683 312.7503148040625 366.0533142070429 311.08545082618 365.9253836944811 310.25007738144745 C365.84862538694404 309.75591280850705 365.84862538694404 309.7500298969244 365.9560870174959 309.66178622318506 C366.0174936635256 309.61472293052407 366.304058011664 309.53236216836734 366.5855051392999 309.48529887570635 C367.0000000000001 309.4147039367149 367.1995715995965 309.4088210251322 367.5987147987893 309.4558843177932 C367.87504470592273 309.49118178728895 368.11043684903643 309.53824507994995 368.1309057310463 309.56177672628047 C368.1513746130562 309.57942546102834 368.10531962853395 310.03240965289035 368.03367854149934 310.5559887837439 C367.649887003814 313.30919140441176 367.5680114757744 314.49165663251915 367.5680114757744 317.10366937520405 C367.5680114757744 319.42741945034044 367.60894923979424 320.06865681284637 367.87504470592273 321.9276568729555 C368.12067129004134 323.639584143499 368.1411401720512 323.99844175003904 368.3048912281303 328.4576887296678 C368.40723563817977 331.15206223450946 368.5812211352638 332.5286635448434 369.0213020984763 334.07586929107345 C369.72236130731494 336.53492633261015 371.4110440731305 338.6292428560242 374.19481202647495 340.476477092968 C375.10567727591484 341.0765340743957 378.5598011150831 343.0237778082441 379.79816847668116 343.6356006128369 C381.3128657454127 344.38273038383016 383.2574095363518 344.94748989576203 385.3401182808577 345.25340129805846 C386.95204273913623 345.48871776136343 389.39295691881506 345.6769709320074 390.8718336440293 345.6887367551726 C391.7519955704544 345.6946196667553 391.92086384703595 345.6769709320074 392.30465538472134 345.55931270035495 C394.5664668468137 344.87101204518797 396.21421184860947 342.353125887825 396.59800338629486 338.98810046256426 C396.7924577653888 337.27617319202074 396.95620882146784 333.35227116641073 396.99202936498517 329.45778369871385 C397.02784990850245 325.7986126943219 396.93573993945796 315.8741408544357 396.8589816319209 314.9564066475464 C396.6440583708171 312.41498884385294 395.9788197054958 309.7441469853418 394.83767953344466 306.80269119402993 C394.4231846727445 305.74376710915766 393.28716172119584 303.1258714548901 392.78567411195365 302.09047901634835 C391.10210856664054 298.59602953626984 388.8351798840457 295.5839788059665 385.5908620854788 292.5307476945848 C384.3166741803634 291.32475082014696 381.9371666467142 289.35985835155066 380.86255034119523 288.6244944037227 C378.037844623831 286.68313358145684 374.8754023533036 287.49497537985894 373.0894923979411 290.6305672533974 C372.7824591677928 291.1717951189987 372.5163637016643 291.7600862772611 372.29632322005807 292.3954407281845 C372.209330471516 292.64252301465467 371.92276612337764 293.3602382277348 371.6566706572491 294.0014755902408 C370.9914319919278 295.5780958943839 370.873735920371 295.9604851472544 370.4797099416807 297.89596305793765 C370.0345117579657 300.1020549014215 369.2720459030974 303.68474805523937 369.24645980058506 303.7141626131525 C369.2055220365653 303.7612259058135 369.2259909185752 303.42589994560393 369.2822803441024 303.13175436647276 C369.33345254912706 302.8434916989242 369.33345254912706 302.83172587575893 369.17993593405293 302.6258239703671 C368.9752471139541 302.36109294914905 368.9752471139541 302.19048851325294 369.2004048160628 301.5668998854948 C369.41021085666415 300.99037455039775 369.4204452976691 300.7609409986754 369.2720459030974 300.4197321268832 C369.169701493048 300.2079473099088 369.16458427254554 300.1197036361694 369.1901703750579 299.6137732400638 C369.2106392570678 299.2960960146021 369.26692868259494 298.76663397216595 369.32321810812215 298.43719092353905 C369.38974197465427 298.06656749383376 369.41532807716663 297.72535862204154 369.39485919515676 297.57240292089335 C369.3795075336493 297.4135643081625 369.41021085666415 297.02529214370935 369.48185194369876 296.5664250402647 C369.5841963537482 295.9016560314282 369.58931357425064 295.7722319766105 369.53814136922597 295.4486718395662 C369.4920863847037 295.19570664151337 369.48185194369876 294.8603806813038 369.5074380462111 294.37798193152867 C369.5483758102309 293.6367350721181 369.527906928221 293.5367255752135 369.30274922611227 293.24846290766493 L369.1850531545554 293.10139011809935 L369.30786644661475 292.42485528609757 C369.4562658411864 291.5777160181998 369.4562658411864 291.4482919633821 369.32321810812215 291.00707359468527 C369.2208736980727 290.6658647228931 369.21575647757027 290.6305672533974 369.2976320056098 290.4423140827534 C369.41021085666415 290.1717001499527 369.39997641565924 289.8010767202474 369.26692868259494 289.0774785955847 L369.15434983154057 288.46565579099183 L369.26692868259494 288.09503236128654 C369.41021085666415 287.63028234625926 369.41021085666415 287.31260512079757 369.2720459030974 286.73607978570044 C369.1338809495307 286.1536715390207 369.15946705204306 285.90658925255053 369.39485919515676 285.6006778502541 C369.72236130731494 285.1888740394704 369.73771296882234 284.85354807926086 369.5074380462111 283.40635182993543 C369.49720360520615 283.35340562569183 369.527906928221 282.9945480191518 369.56884469224076 282.61215876628125 C369.66095466128525 281.7650194983834 369.63025133827045 281.4414593613391 369.42556251817155 280.97670934631185 C369.26692868259494 280.61196882818916 369.26692868259494 280.61196882818916 369.353921431137 280.4001840112147 C369.40509363616167 280.28252577956226 369.63536855877294 279.9471998193527 369.8707607018866 279.66482006338674 C370.1010356244978 279.37655739583823 370.331310547109 279.05888017037654 370.37224831112877 278.96475358505455 C370.45924105967083 278.770617502828 370.9965492124303 275.85857626942925 371.19612081202666 274.50550660542575 C371.36498908860824 273.36422175839675 371.43151295514036 272.328829319855 371.3803407501157 271.71700651526214 C371.2524102375539 270.32863938176297 371.17053470951436 270.281576089102 369.353921431137 270.58160457981575 Z "></path>
    </defs>
    <g style="mix-blend-mode:normal">
      <use xmlns:xlink="http://www.w3.org/1999/xlink" xlink:href="#s-Path_12-550f5" fill="#35B736" fill-opacity="1.0" stroke-width="2.0" stroke="#404040" stroke-linecap="butt"></use>
    </g>
  </g>
</svg>
