<?xml version="1.0" encoding="UTF-8"?>
<svg xmlns="http://www.w3.org/2000/svg" width="36.9925537109375" height="56.135738372802734" viewBox="98.00373247627367 575.0602211778572 36.9925537109375 56.135738372802734" preserveAspectRatio="none">
  <g>
    <defs>
      <path id="s-Path_6-5119c" d="M113.39468012727707 576.5799854309616 C113.31549561893576 576.5917069499496 113.02703776712087 576.632732266408 112.74423595161625 576.6678968233722 C111.16620182109932 576.8671626461694 109.2148692941164 577.5645930259599 107.32575316654447 578.6195297348867 C106.48300375634017 579.0883904944096 105.91174408902043 579.5455297349445 105.02374638833544 580.4715297350024 C101.86767812730204 583.7535550516634 100.58941392122028 587.4751373303772 101.3246986415329 591.2553272040312 C101.55659613024659 592.4450613813208 102.22966445114821 594.1153778371215 102.93666898991 595.2406436599766 C103.88688309000622 596.7644411284264 105.23301973180901 597.6669980905082 107.17304018617187 598.1006942930669 L107.65380327253001 598.2120487234536 L107.19000829510219 598.4582006222032 C105.69681470923706 599.2669854323804 104.87668944427287 600.6090993565149 104.52035915673696 602.8479094832372 C104.40723843053502 603.5512006225217 104.37895824898465 603.7914917617773 104.16968490551108 605.5262765720123 C103.93213138048691 607.530656318973 103.63236145605197 608.7203904962627 103.01585349825154 610.0390613824211 C102.82354826370829 610.4551753064977 102.52943437558315 611.1174411293239 102.3654093225905 611.5042512559304 C102.20138426959761 611.8910613825369 101.63012460227787 613.1159601167907 101.09280115281899 614.2295044206578 C100.10865083486215 616.2807702435708 99.82019298304726 617.0250866993136 99.6109196395737 618.0389980917821 C99.45820665920132 618.7950360665129 99.46951873182138 621.1158968261517 99.6391998211243 622.4462892312981 L99.76363261994629 623.4308968262965 L99.6391998211243 623.8821753073373 C99.46951873182138 624.4916942947173 99.45820665920132 625.7927829023936 99.6109196395737 626.5370993581363 C99.91634560031889 627.9964284721516 100.57810184860023 629.1216942950068 101.38125900463365 629.5319474595894 C101.69799703799913 629.6960487254224 101.7828375826507 629.7136310039045 102.04867128922501 629.6843272064343 C102.21835237852792 629.6667449279522 102.43328175831175 629.6081373330119 102.52943437558315 629.5553904975656 C103.25906305958574 629.168580370959 103.98303570727785 627.902656320247 104.18099697813113 626.6894791049813 C104.38461428529467 625.4235550542692 104.45814275732596 624.4506689782589 104.49207897518659 622.6396942946014 C104.50339104780664 621.6375044211211 104.54863933828733 620.6235930286525 104.57691951983793 620.383301889397 C104.64479195555896 619.9027196108859 104.86537737165281 619.129099357673 105.02940242464547 618.7891753070189 C105.08596278774644 618.6719601171382 105.18777144132832 618.3203145474959 105.25564387704935 618.0096942943119 C105.51582154731386 616.7554917625879 106.02486481522237 615.4837069523818 106.65834088195334 614.4873778383954 C107.03729531472959 613.8954411294976 107.74429985349161 613.0046056864039 108.2194069035395 612.529884167387 L108.53614493690498 612.2075423952149 L108.11194221364758 612.8756689775352 C107.39928163857576 613.9950740408963 106.98073495162862 614.9796816358946 106.73752539029442 616.1166689777378 C106.59612448254211 616.7965170790461 106.59612448254211 618.6074917627037 106.74318142660445 619.3518082184464 C107.34837731178459 622.4638715097803 109.0338761321932 625.5349094846559 111.07570524013795 627.2345297379268 C112.32568926466911 628.2777449278653 113.68313797909218 628.9107069532214 115.31773247270962 629.2096056874174 C116.12654566505353 629.3619854342624 117.90819710273354 629.3619854342624 118.79619480341876 629.2096056874174 C120.20454784463254 628.9751753076558 121.4262516876131 628.6235297380136 122.82329265620683 628.0491753075979 C126.55627662087022 626.5195170796542 129.71800091821365 623.1788841680528 130.97364097905484 619.4455803703511 C131.46571613803326 617.9803904968417 132.39330609288868 613.784086699111 132.8231648524561 611.0939980913478 C133.32655208405458 607.9233272050735 133.4962331733575 605.9130866986187 133.4962331733575 603.0940613819868 C133.50188920966752 599.3607575842849 133.11162270427099 596.5944791030993 132.161408604175 593.5996310016462 C130.39672527542507 588.0260487228167 127.06531988877873 583.5074031529138 121.68077332156759 579.3755677096175 C119.7237847582744 577.8752132791438 117.92516521166385 577.0254031525085 115.99645682992127 576.6913398613483 C115.48741356201253 576.6034284689378 113.69445005171224 576.5213778360212 113.39468012727707 576.5799854309616 Z "></path>
    </defs>
    <g style="mix-blend-mode:normal">
      <use xmlns:xlink="http://www.w3.org/1999/xlink" xlink:href="#s-Path_6-5119c" fill="#D9D9D9" fill-opacity="1.0" stroke-width="2.0" stroke="#404040" stroke-linecap="butt"></use>
    </g>
  </g>
</svg>
