<?xml version="1.0" encoding="UTF-8"?>
<svg xmlns="http://www.w3.org/2000/svg" width="71.99999237060547" height="42.27064514160156" viewBox="80.49999999570171 505.06022127202425 71.99999237060547 42.27064514160156" preserveAspectRatio="none">
  <g>
    <defs>
      <path id="s-Path_4-5119c" d="M149.05834611797331 506.57218561784305 C148.77240321800548 506.6104292889939 147.93615511432603 506.79739834795356 147.49375289173435 506.9248772517897 C146.511835763543 507.20958013702375 145.1900242448239 507.69399997160116 141.53211318485833 509.11751439777146 C139.41181960585175 509.9418779759119 137.28613087778916 510.75349366366873 136.81135776086148 510.92346553545025 C130.9036695445454 513.0353660423358 128.16832897315527 513.502788689735 123.97090300759004 513.1288505718156 C121.025151623016 512.8696434673489 117.61541741962628 512.1897559802227 109.29609757527984 510.22233156435146 C105.34684846629048 509.287486269553 104.66166453617893 509.1387608817442 103.46933659480372 508.94754252598995 C100.32935984421383 508.44612550423443 97.55085808037568 508.4758705817962 94.95039623538541 509.03677775867527 C92.45244222245907 509.5764384515816 90.29438260006052 510.5962696822708 88.38989498329379 512.1387644186882 C86.95478533439874 513.2988224435971 85.94589246092741 514.4461325781225 84.88844324595212 516.107607624787 C83.39398695744111 518.4617180489613 82.46602131980974 521.0240440160678 82.066780289666 523.8838207587921 C81.97506275571406 524.529713871562 81.98045790477006 528.524052858428 82.066780289666 530.0665475948454 C82.51457766131371 537.6600409666854 83.51807538572903 543.3753451553395 84.70500817804825 545.0963103571274 C84.89383839500812 545.3725146487724 85.36321636287981 545.708209095541 85.6545544119036 545.7761978442536 C86.04840029299135 545.8696823737334 86.93859988723075 545.8399372961717 87.56983232678233 545.7124583923355 C89.555247179389 545.3045259000598 92.80312691109884 543.9277537386293 95.87836187301679 542.1855420528686 L96.7469808710322 541.6926236247023 L97.51848718603969 541.7606123734148 C98.57054125195899 541.8498476061002 100.88506019698144 541.8158532317439 101.95869485912473 541.6926236247023 C106.76577266801752 541.1572122285904 110.89845684491077 539.4659921043642 113.74170039742089 536.8654224661067 C115.45196264817173 535.3016812457166 116.55796820465099 533.4617357336815 116.98418498007472 531.460316943454 C117.04892676874667 531.1628661678362 117.11366855741863 530.9036590633694 117.12445885553062 530.8909111729859 C117.1460394517546 530.8569167986295 117.75569129508219 530.7889280499169 118.60272969687362 530.7251885979988 C121.80744823613549 530.4702307903266 125.68656040739691 529.1614473776087 130.09439718614595 526.8455806245853 C137.34547751740513 523.0339613998844 145.05514551842398 516.8894782349821 148.84793530478944 511.8965545013995 C149.72194945186084 510.74074577328514 150.5851733008203 509.287486269553 150.8711162007881 508.48011987859076 C151.038365821524 507.9999493408079 151.04376097057997 507.35830552483264 150.8819064989001 507.1203449043385 C150.7362374743882 506.8993814710225 150.51503636309235 506.73790819283005 150.2452789102925 506.6486729601447 C150.02947294805267 506.58068421143213 149.36047446510912 506.5381912434867 149.05834611797331 506.57218561784305 Z "></path>
    </defs>
    <g style="mix-blend-mode:normal">
      <use xmlns:xlink="http://www.w3.org/1999/xlink" xlink:href="#s-Path_4-5119c" fill="#D9D9D9" fill-opacity="1.0" stroke-width="2.0" stroke="#404040" stroke-linecap="butt"></use>
    </g>
  </g>
</svg>
