<?xml version="1.0" encoding="UTF-8"?>
<svg xmlns="http://www.w3.org/2000/svg" width="62.999996185302734" height="78.2575912475586" viewBox="84.99999999224443 313.0602212503492 62.999996185302734 78.2575912475586" preserveAspectRatio="none">
  <g>
    <defs>
      <path id="s-Path_2-5119c" d="M118.853921431137 314.70969446745613 C117.97375950471192 314.8508843454391 117.88164953566744 314.87441599176964 117.421099690445 315.0979666319093 C117.21129364984367 315.19797612881393 117.05265981426706 315.2215077751444 116.5255861025125 315.2215077751444 C115.90640242171345 315.227390686727 115.87569909869863 315.2215077751444 115.53284532503304 315.0332546045004 C115.31792206392925 314.915596372848 115.09788158232297 314.8450014338565 114.96995106976118 314.8450014338565 C114.85737221870681 314.8450014338565 114.46334624001652 314.79205522961286 114.10002358434105 314.727343202204 C113.73670092866557 314.66263117479514 113.27103386294067 314.60968497055154 113.06122782233935 314.60968497055154 C112.7132568281713 314.60968497055154 112.66720184364905 314.6214507937168 112.5341541105848 314.774406494865 C112.32946529048593 315.01560586975256 112.25782420345132 315.4685900616146 112.25782420345132 316.4922166769911 C112.2629414239538 317.44524835337614 112.34481695199335 318.1453148317084 112.63649852063422 319.84547627908665 C113.035641719827 322.1515776194751 113.18915833490114 322.95165359471196 113.27103386294067 323.12814094219067 C113.31708884746291 323.22815043909526 113.54224654957166 323.54582766455695 113.77763869268534 323.8340903321055 C114.25354019941518 324.4223814903679 114.42752569649922 324.7518245389948 114.33029850695226 324.8988973285604 C114.29959518393743 324.95184353280405 114.22283687640036 325.11068214553484 114.16143023037071 325.2577549351005 C114.03349971780892 325.55778342581425 114.0181480563015 326.0342992640068 114.0897891433361 327.14028664154006 C114.12560968685341 327.6226853913152 114.11537524584847 327.8697676777854 114.04885137931633 328.2639227538212 C114.00279639479409 328.5404195982045 113.96697585127679 328.8698626468314 113.96697585127679 328.9992867016491 C113.96697585127679 329.2816664576151 114.11025802534598 329.65228988732036 114.29447796343496 329.84054305796434 C114.4838151220264 330.0464449633562 114.47358068102146 330.33470763090475 114.24330575841024 330.9229987891671 C114.00279639479409 331.5407045053426 113.99767917429162 331.7877867918128 114.2177196558979 332.0466349014482 L114.38147071197697 332.2407709836748 L114.27400908142508 332.7937646724414 C114.12049246635094 333.6114893824261 114.12560968685341 334.1233026901144 114.29959518393743 334.53510650089805 C114.43776013750416 334.85866663794235 114.43776013750416 334.86454954952495 114.35076738896214 335.07633436649945 C114.21260243539541 335.41166032670895 114.20236799439047 335.864644518571 114.32006406594732 336.4764673231639 C114.45822901951405 337.18829962466134 114.45822901951405 337.32360659106166 114.29959518393743 337.49421102695777 C114.10514080484351 337.7001129323496 114.06932026132621 337.9471952188198 114.13072690735588 338.5825496697432 C114.17678189187811 339.0178851268573 114.17678189187811 339.22378703224916 114.12049246635094 339.55323008087606 C114.05908582032127 339.92973642216396 114.05908582032127 340.04151174223387 114.14607856886329 340.6298029004962 C114.20236799439047 340.9945434186189 114.24330575841024 341.45929343364617 114.23818853790777 341.6710782506206 C114.2330713174053 341.88286306759505 114.27912630192755 342.3417301710397 114.33541572745473 342.70058777757976 C114.47869790152393 343.55949286864285 114.48893234252887 344.4066321365406 114.35588460946462 344.63018277668033 C114.21260243539541 344.8713821515679 114.23818853790777 345.16552773069907 114.4479945785091 345.7420530657962 C114.55033898855854 346.02443282176216 114.63221451659808 346.30681257772807 114.63221451659808 346.3774075167196 C114.63221451659808 346.5538948641983 114.49404956303135 346.8303917085816 114.3763534914745 346.9068695591557 C114.32006406594732 346.94216702865145 114.28424352243002 346.99511323289505 114.29959518393743 347.0245277908082 C114.41729125549428 347.2421955193653 114.43264291700169 348.2011101073329 114.32006406594732 348.2011101073329 C114.29447796343496 348.2011101073329 114.27400908142508 348.1599297262546 114.27400908142508 348.1128664335936 C114.27400908142508 348.0658031409326 114.05908582032127 347.0009961444777 113.79299035419277 345.7420530657962 C113.52689488806425 344.48899289869735 113.16868945289124 342.7652998049886 112.99470395580722 341.9063947139256 C112.62626407962927 340.0885750348948 112.50345078756996 339.68853704727644 111.84332934275115 338.12956547788116 C111.57723387662263 337.48832811537517 111.29066952848423 336.77061290229506 111.20367677994223 336.5235306158249 C109.80667558276751 332.47608744697976 106.7107571787723 330.74062853010577 103.53808046724002 332.22900516050953 C102.98030343247063 332.487853270145 102.41740917719878 332.8761254345982 101.22509680012293 333.81739128781794 C96.17951738468611 337.8060053408368 92.91473070410933 341.65931242745535 90.71432588804662 346.21856890398874 C90.21283827880443 347.2539613425305 89.07681532725576 349.87185699679804 88.66232046655558 350.9307810816703 C87.52118029450445 353.87223687298217 86.85594162918316 356.5430787314933 86.64101836807936 359.08449653518676 C86.5642600605423 360.0022307420761 86.47215009149781 369.9267025819623 86.50797063501511 373.58587358635424 C86.5437911785324 377.4803610540511 86.7075422346115 381.4042630796611 86.9019966137054 383.11619035020465 C87.13227153631662 385.1163802882967 87.82821352465274 386.893019586249 88.8567748456495 388.09313354910427 C89.53736517247819 388.8932095243411 90.31518268885385 389.42267156677724 91.19534461527894 389.68740258799534 C91.5791361529643 389.8050608196478 91.74800442954584 389.82270955439566 92.62816635597093 389.816826642813 C95.5193959398673 389.7991779080652 98.98375422004045 389.363842450951 101.07669740555126 388.7637854695234 C102.51463636674573 388.3460987471571 103.40503273417576 387.9578265827039 105.39563150963714 386.8636050283359 C109.62757286518101 384.54573786478215 110.96316741632606 383.610354923145 112.406223598023 381.93960803367986 C113.68552872364086 380.46888013802396 114.3405329479572 379.10404465085526 114.76014502915986 377.05679142010223 C115.00577161327848 375.85079454566437 115.1132332438304 374.73304134496584 115.19510877186994 372.58577861730816 C115.35885982794902 368.1265316376794 115.37932870995891 367.7676740311394 115.62495529407752 366.05574676059587 C115.89105076020604 364.19674670048676 115.93198852422582 363.5555093379808 115.93198852422582 361.23175926284443 C115.93198852422582 359.57866110812716 115.91151964221594 358.80211677922085 115.84499577568381 357.9961578924014 C115.74776858613684 356.8784046917029 115.55331420704293 355.2135407138204 115.42538369448116 354.37816726908784 C115.34862538694406 353.88400269614743 115.34862538694406 353.8781197845648 115.45608701749597 353.78987611082545 C115.51749366352564 353.74281281816445 115.80405801166403 353.6604520560077 116.08550513929995 353.61338876334673 C116.50000000000014 353.5427938243553 116.69957159959652 353.5369109127726 117.0987147987893 353.5839742054336 C117.37504470592276 353.61927167492934 117.61043684903645 353.66633496759033 117.63090573104634 353.68986661392086 C117.65137461305622 353.7075153486687 117.60531962853398 354.16049954053074 117.53367854149937 354.68407867138427 C117.14988700381402 357.43728129205215 117.06801147577447 358.61974652015954 117.06801147577447 361.23175926284443 C117.06801147577447 363.5555093379808 117.10894923979424 364.19674670048676 117.37504470592276 366.05574676059587 C117.62067129004139 367.7676740311394 117.64114017205127 368.1265316376794 117.80489122813036 372.58577861730816 C117.90723563817978 375.28015212214984 118.08122113526382 376.6567534324838 118.52130209847635 378.20395917871383 C119.22236130731494 380.66301622025054 120.91104407313051 382.75733274366456 123.69481202647496 384.6045669806084 C124.60567727591489 385.20462396203607 128.0598011150831 387.1518676958845 129.29816847668118 387.7636905004773 C130.81286574541272 388.51082027147055 132.75740953635187 389.0755797834024 134.84011828085772 389.38149118569885 C136.45204273913623 389.6168076490038 138.89295691881512 389.8050608196478 140.37183364402935 389.816826642813 C141.25199557045443 389.82270955439566 141.420863847036 389.8050608196478 141.80465538472134 389.68740258799534 C144.06646684681374 388.99910193282835 145.71421184860952 386.4812157754654 146.0980033862949 383.11619035020465 C146.2924577653888 381.4042630796611 146.4562088214679 377.4803610540511 146.49202936498517 373.58587358635424 C146.5278499085025 369.9267025819623 146.43573993945802 360.0022307420761 146.35898163192093 359.08449653518676 C146.1440583708171 356.5430787314933 145.47881970549582 353.87223687298217 144.3376795334447 350.9307810816703 C143.92318467274453 349.87185699679804 142.78716172119587 347.2539613425305 142.28567411195365 346.21856890398874 C140.60210856664057 342.7241194239102 138.33517988404571 339.7120686936069 135.09086208547885 336.6588375822252 C133.81667418036346 335.45284070778735 131.43716664671425 333.48794823919104 130.36255034119523 332.75258429136306 C127.53784462383102 330.81122346909723 124.37540235330367 331.6230652674993 122.58949239794114 334.75865714103776 C122.28245916779285 335.2998850066391 122.01636370166435 335.8881761649015 121.79632322005807 336.5235306158249 C121.70933047151605 336.77061290229506 121.42276612337767 337.48832811537517 121.15667065724915 338.12956547788116 C120.49143199192787 339.7061857820243 120.37373592037102 340.0885750348948 119.97970994168071 342.02405294557803 C119.5345117579657 344.2301447890619 118.77204590309746 347.81283794287975 118.7464598005851 347.8422525007929 C118.70552203656533 347.8893157934539 118.72599091857522 347.5539898332443 118.7822803441024 347.25984425411315 C118.83345254912712 346.9715815865646 118.83345254912712 346.9598157633993 118.67993593405298 346.7539138580075 C118.47524711395411 346.48918283678944 118.47524711395411 346.31857840089333 118.70040481606287 345.6949897731352 C118.9102108566642 345.11846443803813 118.92044529766913 344.88903088631577 118.77204590309746 344.5478220145236 C118.66970149304802 344.33603719754916 118.66458427254557 344.2477935238098 118.6901703750579 343.74186312770416 C118.7106392570678 343.42418590224247 118.766928682595 342.89472385980633 118.82321810812218 342.56528081117943 C118.8897419746543 342.19465738147414 118.91532807716666 341.8534485096819 118.89485919515677 341.70049280853374 C118.87950753364936 341.5416541958029 118.9102108566642 341.15338203134974 118.98185194369879 340.69451492790506 C119.08419635374821 340.0297459190686 119.08931357425068 339.9003218642509 119.03814136922597 339.5767617272066 C118.99208638470373 339.32379652915375 118.98185194369879 338.9884705689442 119.00743804621115 338.50607181916905 C119.04837581023091 337.76482495975847 119.02790692822103 337.6648154628539 118.8027492261123 337.3765527953053 L118.68505315455545 337.22948000573973 L118.80786644661475 336.55294517373795 C118.95626584118642 335.7058059058402 118.95626584118642 335.57638185102246 118.82321810812218 335.13516348232565 C118.72087369807275 334.7939546105335 118.71575647757027 334.75865714103776 118.79763200560981 334.5704039703938 C118.9102108566642 334.2997900375931 118.89997641565924 333.9291666078878 118.766928682595 333.2055684832251 L118.65434983154061 332.5937456786322 L118.766928682595 332.2231222489269 C118.9102108566642 331.75837223389965 118.9102108566642 331.44069500843796 118.77204590309746 330.8641696733408 C118.63388094953073 330.2817614266611 118.65946705204308 330.0346791401909 118.89485919515677 329.7287677378945 C119.22236130731494 329.3169639271108 119.23771296882236 328.98163796690125 119.00743804621115 327.5344417175758 C118.99720360520621 327.4814955133322 119.02790692822103 327.1226379067922 119.0688446922408 326.74024865392164 C119.1609546612853 325.8931093860238 119.13025133827045 325.5695492489795 118.9255625181716 325.10479923395224 C118.766928682595 324.74005871582955 118.766928682595 324.74005871582955 118.853921431137 324.5282738988551 C118.90509363616172 324.41061566720265 119.13536855877294 324.0752897069931 119.37076070188661 323.7929099510271 C119.60103562449783 323.5046472834786 119.83131054710904 323.1869700580169 119.87224831112881 323.09284347269494 C119.95924105967083 322.89870739046836 120.49654921243032 319.98666615706964 120.69612081202672 318.63359649306614 C120.86498908860827 317.49231164603714 120.93151295514039 316.4569192074954 120.88034075011569 315.8450964029025 C120.7524102375539 314.45672926940335 120.67053470951436 314.40966597674236 118.853921431137 314.70969446745613 Z "></path>
    </defs>
    <g style="mix-blend-mode:normal">
      <use xmlns:xlink="http://www.w3.org/1999/xlink" xlink:href="#s-Path_2-5119c" fill="#D9D9D9" fill-opacity="1.0" stroke-width="2.0" stroke="#404040" stroke-linecap="butt"></use>
    </g>
  </g>
</svg>
