<?xml version="1.0" encoding="UTF-8"?>
<svg xmlns="http://www.w3.org/2000/svg" width="40.617496490478516" height="63.007083892822266" viewBox="96.19125063574512 409.0602212209183 40.617496490478516 63.007083892822266" preserveAspectRatio="none">
  <g>
    <defs>
      <path id="s-Path_3-5119c" d="M110.16116232899651 410.8227636426685 C109.63063309329937 411.1696946999812 109.36978955241493 411.40879583407514 109.2725258592038 411.6338321955753 C109.19736755081337 411.8119859817629 109.19736755081337 411.83073901188794 109.26810478223965 411.943257192638 C109.34326309063007 412.0651518884506 109.52894832312407 412.1729818116694 109.74558109436708 412.2245526445132 C110.39105833113194 412.3652003704508 110.93042972075737 414.1936208076395 111.11611495325137 416.86123934292254 C111.15590464592866 417.498842367173 111.15590464592866 417.61604880545434 111.10285172235895 417.63011357804805 C110.86411356629523 417.7145022136106 109.77210755615194 418.35210523786105 109.42726355294879 418.60995940208 C108.87905000939507 419.0225260648303 107.97272923174579 419.98361885873715 107.64999061336336 420.499327187175 C107.31398876408849 421.03847680326913 106.98240799177778 421.7698449781446 106.7878806053555 422.40744800239503 C106.69945906607263 422.702808226864 106.6243007576822 422.9325328458954 106.61987968071806 422.92784458836417 C106.60219537286149 422.8997150431766 106.73040660482164 421.63388550973826 106.80114383624792 421.15568324155043 C106.8409335289252 420.8837643047378 106.92051291427977 420.41493855161247 106.97798691481363 420.10551355454976 C107.03546091534749 419.8007768150183 107.08409276195306 419.5007283330181 107.08409276195306 419.4350927275805 C107.08409276195306 419.37414537967425 107.13714568552277 419.2428741687992 107.19904076302078 419.14442076064284 C107.51735830443906 418.6334006897363 107.29630445623192 418.19270448179844 106.54472137232763 417.831708651892 C105.98324459788148 417.55978971507926 105.01944981969834 417.36288289876666 104.26786673579404 417.3581946412354 C103.72849534616861 417.3581946412354 102.93270149262288 417.4847775945792 102.46406733442375 417.6441783506418 C101.97774886836802 417.8082673642357 101.4604828635633 418.1505101640172 101.29248193892587 418.42242910082985 C101.1510074760733 418.65215371986125 101.1510074760733 418.980331747049 101.28363978499759 419.6507525740182 C101.40742993999359 420.26491431061237 101.66385240391388 422.16365861076986 101.75227394319674 423.1247514046768 C102.08827579247159 426.71126841608543 101.98216994533217 429.93210134005636 101.45606178659916 432.19652972765164 L101.35879809338802 432.6137846479332 L101.11563886036016 432.76849714646454 C100.83711101161916 432.94196267512086 100.12531762039215 433.67801910752763 99.73184177058344 434.1890391784342 C98.65309899133257 435.60489295287266 98.016463908496 437.20358877103 97.74677821368329 439.18203344921886 C97.66277775136456 439.8102599584068 97.67604098225699 441.6152391079392 97.77330467546814 442.3466072828147 C97.93688452314143 443.5889955285968 98.26846529545215 445.000161045504 98.66194114526085 446.14409588312975 C99.006785148464 447.1333182222242 99.51520899934043 448.35695343788126 99.8512108486153 448.9945564621317 L100.17394946699773 449.6040299411946 L100.244686698424 450.29789205582006 C100.48342485448772 452.51074961057157 101.25711332321274 454.84550186113563 102.45522518049546 456.95521775019955 L102.75143733709304 457.47561433616863 L102.75143733709304 458.71331432441946 C102.75143733709304 462.1498070948281 102.51269918102932 465.5769233501741 102.11480225425646 467.9913759787695 C101.99985425318874 468.6711733208012 102.01311748408116 468.7883797590825 102.19880271657517 468.7883797590825 C102.25627671710903 468.7883797590825 102.41985656478232 468.7086793810512 102.56133102763489 468.60553771536365 C103.49859934403318 467.9491816609882 104.82492243327604 467.56474454342543 105.84619121199306 467.66319795158176 C106.58008998804077 467.7288335570193 106.96914476088534 467.87416954048814 107.57925338193706 468.30548923336346 C108.11420369459836 468.68523809339496 108.82157600886121 469.576007024333 109.25926262831136 470.42458163748984 C109.34768416759422 470.5980471661462 109.48473755348265 470.61680019627124 109.54663263098065 470.4620876977399 C109.58200124669379 470.3823873197086 109.56873801580137 470.3120634567398 109.4891586304468 470.1479744431459 C109.19736755081337 469.5525657366768 108.22030954173778 465.40345782151775 107.94620276996092 463.58910215692276 C107.91083415424778 463.3687540529539 107.88872876942708 463.1812237517037 107.89757092335535 463.17653549417247 C107.90641307728364 463.16715897910996 108.17167769513222 463.35000102282885 108.49441631351465 463.58910215692276 C110.34242648452637 464.94869684098614 113.26917943478895 466.47238053864345 115.83340407399183 467.40065552983157 C116.49656561861326 467.64444492145674 118.11025871052543 468.15546499236336 118.84415748657314 468.3617483237385 C120.17490165278015 468.73212066870747 122.47386167413445 469.2196994519578 123.95050138015819 469.44473581345795 C124.14502876658047 469.47286535864544 124.52524138549674 469.54787747914554 124.79050600334533 469.6088248270518 C126.67830586703434 470.04483277745834 128.99052911928106 470.05420929252085 130.56885359548008 469.62757785717685 C131.75370222187038 469.3087763450516 132.75286561576667 468.74149718377 133.2789737744997 468.08045287186326 C134.14992593643584 466.9880888670813 134.8396139428421 464.68146616170475 135.13140502247555 461.8731999004841 C135.29056379318467 460.3588927178893 135.31266917800542 459.91819650995154 135.30824810104127 458.0288287248565 C135.30382702407712 455.1174207979483 135.10487856069068 452.9467575609781 134.6008757867784 450.3869689489139 C133.92887208822867 446.9879822387553 132.71307592308938 443.6077485587218 131.3115945254561 441.2354902479077 C131.1170671390338 440.90731222072 131.04632990760751 440.7432232071261 131.0242245227868 440.555692905876 C130.95790836832467 439.9977902596569 130.6838015965478 438.56787171262465 130.4981163640538 437.79899747749914 C129.63600635604593 434.2124804660905 128.34947295948035 431.75583351971386 126.7048323288192 430.57439262183806 C126.35998832561606 430.32591497268163 125.80293262813404 430.04930777833766 125.40945677832534 429.9274130825251 L125.09998139083532 429.83364793190003 L125.77198508938504 429.83364793190003 C127.05851848595063 429.8242714168375 128.77389634803808 430.1571377015565 129.88800774300208 430.62127519715057 C130.1179037451375 430.7197286053069 130.12232482210166 430.7197286053069 130.07369297549607 430.6259634546818 C130.02948220585463 430.54157481911926 130.0339032828188 430.536886561588 130.14000912995823 430.5790808793693 C130.22400959227696 430.61189868208805 130.29474682370324 430.6072104245568 130.3964315938785 430.5603278492443 C130.6926437504761 430.4337448959005 130.94906621439637 429.96960740030636 131.22759406313736 429.0694619543058 C131.7758076066911 427.30198886502336 131.68738606740823 425.7267343345223 131.0021191379661 424.9344188117405 C130.87390790600594 424.78908282827166 130.84296036725695 424.71875896530287 130.8783289829701 424.6812529050528 C130.97559267618124 424.5781112393653 130.56885359548008 424.554669951709 128.8800021951775 424.55935820924026 C127.16462433309006 424.5640464667715 126.38209371043676 424.6156172996153 125.18840293011819 424.7937710858029 C124.7462952337039 424.85940669124045 123.69407891623788 425.06569002261557 123.52607799160046 425.1172608554594 C123.4686039910666 425.13601388558436 123.44649860624588 425.0703782801468 123.40228783660446 424.75626502555286 C123.16797075750489 423.0872453444268 122.55344105948902 421.30570748255053 121.84164766826203 420.23678476542483 C121.49238258809473 419.71638817945575 120.87343181311473 419.055343867549 120.418060885808 418.71778932529884 C120.22353349938572 418.5771415993612 119.768162572079 418.3005344050173 119.40121318405514 418.1083158462359 L118.73363056246956 417.7566965313919 L118.7380516394337 417.498842367173 C118.74689379336199 417.10034047701646 118.99005302638986 416.6455794964849 119.82563657261286 415.4969564013279 C120.16163842188772 415.0375071632651 120.23679673027814 414.84997686201496 120.108585498318 414.7984060291712 C120.07321688260487 414.7843412565774 119.9626899585013 414.81715905929616 119.861005188326 414.87341814967124 C119.75489934118657 414.92967724004626 119.644372417083 414.9578067852338 119.59131949351328 414.94374201264003 C119.54268764690771 414.924988982515 119.39237103012687 414.73277042373365 119.25973872120257 414.51711057729597 C118.98563194942571 414.08110262688945 118.86626287139386 413.95920793107683 118.62310363836599 413.8841958105768 C118.37994440533814 413.8044954325455 118.22962778855728 413.8748192955143 118.06162686391986 414.1420499747957 C117.80520439999957 414.54055186495225 117.60183485964899 415.4313207958904 117.50015008947369 416.62213820882863 C117.46478147376055 417.0018870688602 117.42941285804741 417.33006509604786 117.41172855019084 417.34412986864163 C117.37193885751356 417.38632418642294 116.90772577627855 417.2644294906103 116.64246115842998 417.14253479479777 C116.48772346468498 417.0675226742977 116.39930192540213 416.99719881132893 116.36835438665312 416.91281017576637 C116.27551177040613 416.65026775401617 116.3241436170117 415.76887533814056 116.50540777254156 414.3389567911084 C116.62035577360928 413.46225263276403 116.65130331235827 413.52788823820157 116.07656330701968 413.3778639972015 C115.61677130274883 413.25596930138886 115.1083474518724 413.24190452879515 114.91382006545011 413.3450461944827 C114.6131868318884 413.50913520807654 114.53360744653382 414.00140224885814 114.57339713921111 415.3656851904528 C114.5910814470677 415.88139351889066 114.5910814470677 416.368972302141 114.57339713921111 416.45336093770356 L114.54687067742626 416.5986969211724 L114.3877119067171 416.5002435130161 C114.14455267368925 416.3455310144847 113.78644543959368 416.368972302141 113.25149512693238 416.57056737598487 C113.00833589390453 416.6596442690787 112.7784398917691 416.7487211621725 112.73422912212767 416.7674741922975 C112.67233404462968 416.795603737485 112.65907081373724 416.7487211621725 112.63254435195239 416.387725332266 C112.51759635088467 414.74683519632737 112.18159450160981 413.387240512264 111.5714858805581 412.08390491857557 C111.24432618521152 411.39473106148137 110.71821802647851 410.5602212209183 110.61211217933909 410.5602212209183 C110.58116464059009 410.5602212209183 110.37779510023951 410.6774276591996 110.16116232899651 410.8227636426685 Z M125.13535000654846 425.2672850964595 C125.10440246779947 425.276661611522 125.05134954422975 425.276661611522 125.0248230824449 425.2672850964595 C124.99387554369589 425.2532203238657 125.01598092851661 425.2438438088032 125.0778760060146 425.2438438088032 C125.13977108351261 425.2438438088032 125.16187646833333 425.2532203238657 125.13535000654846 425.2672850964595 Z M116.33298577093998 425.8439407728036 C116.83698854485228 426.71126841608543 117.3763599344777 427.76143810308616 117.52225547429441 428.1833812808989 L117.56646624393585 428.3052759767115 L117.42941285804741 428.16462825077394 C116.99614731556142 427.7333085578986 116.49214454164913 426.7722157639917 116.10308976880455 425.6564104715535 C115.93950992113126 425.1828964608969 115.95719422898783 425.1969612334907 116.33298577093998 425.8439407728036 Z M115.48413899382454 425.6329691838972 C115.48413899382454 425.67047524414727 115.45319145507554 425.703293046866 115.4178228393624 425.703293046866 C115.34708560793611 425.703293046866 115.32940130007954 425.647033956491 115.38245422364926 425.5954631236472 C115.43108607025482 425.53920403327214 115.48413899382454 425.55795706339717 115.48413899382454 425.6329691838972 Z M114.24623744386454 426.64094455311664 C114.24623744386454 426.6643858407729 114.22413205904382 426.68782712842915 114.19760559725896 426.68782712842915 C114.17550021243825 426.68782712842915 114.16665805850997 426.6643858407729 114.1799212894024 426.64094455311664 C114.19318452029482 426.6128150079291 114.21528990511554 426.59406197780413 114.22855313600797 426.59406197780413 C114.23739528993625 426.59406197780413 114.24623744386454 426.6128150079291 114.24623744386454 426.64094455311664 Z M115.16582145240626 430.2274615645253 C115.5195076095377 430.34466800280666 115.4178228393624 430.35873277540037 114.99339945080469 430.25559110971284 C114.79002991045411 430.2040202768691 114.56455498528283 430.15244944402525 114.4893966768924 430.1383846714315 C114.4186594454661 430.12900815636897 114.48497559992825 430.1243198988377 114.6441343706374 430.1336964139002 C114.80329314134654 430.14307292896274 115.03761022044611 430.18526724674405 115.16582145240626 430.2274615645253 Z M125.53766801028547 431.7605217772451 C125.79851155116991 431.9714933661515 125.81177478206233 431.98555813874526 125.75430078152847 431.98555813874526 C125.72335324277947 431.98555813874526 125.60840524171175 431.9011695031827 125.49787831760818 431.7980278374951 C125.25471908458033 431.57299147599497 125.27682446940105 431.5495501883387 125.53766801028547 431.7605217772451 Z M126.47051524971963 432.64191419312067 C126.54125248114592 432.721614571152 126.54125248114592 432.73567934374574 126.48377848061205 432.71223805608946 C126.44398878793476 432.6934850259645 126.39977801829333 432.6512907081832 126.3865147874009 432.6137846479332 C126.35556724865191 432.52470775483937 126.37767263347263 432.5293960123706 126.47051524971963 432.64191419312067 Z M127.77473295414177 434.51721720562193 C127.82778587771148 434.6250471288408 127.82778587771148 434.62973538637203 127.76146972324935 434.56878803846575 C127.71725895360792 434.53597023574696 127.68631141485892 434.4750228878407 127.68631141485892 434.43282857005937 C127.68631141485892 434.3484399344968 127.69957464575134 434.3578164495593 127.77473295414177 434.51721720562193 Z M109.78094971008022 435.722099391154 C109.73231786347465 435.8017997691853 109.73231786347465 435.8017997691853 109.75442324829537 435.722099391154 C109.7676864791878 435.67521681584145 109.78094971008022 435.6095812104039 109.78537078704437 435.58145166521643 C109.78537078704437 435.5392573474351 109.79421294097266 435.5392573474351 109.80747617186508 435.58145166521643 C109.82073940275751 435.6142694679352 109.80747617186508 435.67521681584145 109.78094971008022 435.722099391154 Z M128.37599942126522 436.0033948430292 L128.4378944987632 436.22843120452933 L128.34947295948035 436.11122476624803 C128.30084111287476 436.0455891608105 128.2610514201975 435.9330709800604 128.2610514201975 435.85805885956034 C128.2610514201975 435.67521681584145 128.29642003591064 435.722099391154 128.37599942126522 436.0033948430292 Z M98.90952145525286 437.2973539216551 C98.86531068561143 437.33954823943634 98.86088960864728 437.3348599819051 98.88741607043215 437.26922437646755 C98.90067930132457 437.22234180115504 98.92720576310943 437.19890051349876 98.94046899400186 437.2129652860925 C98.95373222489428 437.2270300586863 98.94046899400186 437.2645361189363 98.90952145525286 437.2973539216551 Z M109.25042047438308 438.6944546659685 C109.08241954974565 439.9274663966881 108.8613657015385 442.5810201593774 108.84810247064607 443.60306030119057 C108.83926031671778 443.9546796160346 108.83926031671778 443.95936787356584 108.8083127779688 443.7296432545344 C108.72431231565007 443.15767583572153 108.78620739314808 441.56366827509544 108.94094508689308 440.25095616634457 C109.0249455492118 439.5570940517191 109.29021016706037 438.01465732393683 109.32115770580936 438.04747512665557 C109.32999985973765 438.0568516417181 109.29905232098865 438.34752360865576 109.25042047438308 438.6944546659685 Z M128.87558111821335 438.9945031479687 C128.8800021951775 439.074203526 128.87116004124923 439.074203526 128.83579142553606 439.017944435625 C128.81368604071537 438.98043837537494 128.79600173285877 438.85385542203113 128.79600173285877 438.7366489837498 L128.80042280982292 438.5256773948434 L128.8402125025002 438.71320769609355 C128.85789681035678 438.8163493617811 128.87558111821335 438.94293231512495 128.87558111821335 438.9945031479687 Z M98.56467745204972 439.3554989778752 C98.59562499079871 439.3742520080002 98.59120391383458 439.41175806825026 98.55583529812142 439.4586406435628 C98.46299268187443 439.57584708184413 98.43646622008957 439.5477175366566 98.45857160491029 439.3554989778752 C98.46741375883857 439.26173382725017 98.48509806669514 439.2148512519376 98.49836129758756 439.25235731218766 C98.51162452848 439.28986337243765 98.542572067229 439.3367459477502 98.56467745204972 439.3554989778752 Z M128.68105373179105 442.79199174828375 C128.66336942393448 442.9091981865651 128.63684296214964 442.9982750796589 128.62800080822134 442.98421030706515 C128.61473757732892 442.9701455344714 128.61915865429307 442.8623156112526 128.63684296214964 442.74510917297124 C128.65010619304206 442.6232144771586 128.67663265482693 442.53413758406487 128.68989588571935 442.54820235665863 C128.69873803964765 442.56226712925235 128.6943169626835 442.6700970524712 128.68105373179105 442.79199174828375 Z M128.46442096054807 446.0597072475672 C128.7385277323249 446.3691322446299 129.01705558106593 446.78638716491145 128.8888443491058 446.7019985293489 C128.84463357946436 446.6738689841614 128.76505419410978 446.5707273184738 128.72084342446834 446.47696216784874 C128.67663265482693 446.3878852747549 128.51747388411778 446.1816019433798 128.36715726733692 446.01751292978594 C128.22126172752021 445.8581121737233 128.13284018823734 445.7455939929732 128.17262988091463 445.7690352806295 C128.2079984966278 445.78778831075454 128.34063080555205 445.9190595216296 128.46442096054807 446.0597072475672 Z M116.18709023112326 448.53041896653764 C116.3241436170117 449.06019206756923 116.28877500129855 449.10238638535054 116.12077407666112 448.61011934456894 C116.02793146041412 448.3382004077563 115.97487853684441 447.95845154772474 116.03677361434241 448.0287754106935 C116.05003684523484 448.03815192575604 116.11635299969699 448.26787654478744 116.18709023112326 448.53041896653764 Z M116.80161992913912 450.62138182547653 C116.80161992913912 450.6448231131328 116.77509346735427 450.6026287953515 116.74414592860526 450.52761667485146 C116.70877731289212 450.44791629682015 116.68225085110727 450.35415114619514 116.68225085110727 450.3166450859451 C116.68225085110727 450.27913902569503 116.71319838985627 450.32133334347634 116.74414592860526 450.41041023657016 C116.77509346735427 450.499487129664 116.80161992913912 450.593252280289 116.80161992913912 450.62138182547653 Z M117.0049894694897 451.24960833466446 C116.97846300770485 451.28242613738325 116.95635762288413 451.24023181960195 116.92983116109927 451.09020757860185 L116.90330469931442 450.94955985266427 L116.96077869984828 451.09020757860185 C116.99614731556142 451.1652196991019 117.01383162341799 451.24023181960195 117.0049894694897 451.24960833466446 Z M102.30932964067874 454.7001658776668 C102.37122471817675 454.7892427707606 102.37122471817675 454.7892427707606 102.30048748675046 454.72829542285433 C102.25627671710903 454.69547762013553 102.22090810139588 454.64390678729177 102.22090810139588 454.61577724210423 C102.22090810139588 454.5876476969167 102.22532917836003 454.57827118185423 102.23417133228831 454.5876476969167 C102.23859240925246 454.5970242119792 102.2739610249656 454.64859504482297 102.30932964067874 454.7001658776668 Z M103.9230227325909 457.1005537336684 L104.00260211794547 457.23182494454346 L103.90975950169847 457.14274805144964 C103.85670657812875 457.0911772186059 103.81249580848733 457.03491812823086 103.81249580848733 457.0114768405746 C103.81249580848733 456.94584123513704 103.84344334723633 456.9692825227933 103.9230227325909 457.1005537336684 Z M103.7594428849176 457.4662378211061 C103.74617965402518 457.4803025936999 103.71965319224032 457.4568613060436 103.7063899613479 457.4099787307311 C103.67986349956304 457.34434312529356 103.68428457652718 457.3396548677623 103.72849534616861 457.3818491855436 C103.7594428849176 457.41466698826235 103.77270611581004 457.4521730485124 103.7594428849176 457.4662378211061 Z M104.12197119597732 457.93506357423144 C104.17944519651118 458.000699179669 104.20597165829604 458.0522700125128 104.17944519651118 458.0522700125128 C104.15291873472633 458.0522700125128 104.09986581115662 458.000699179669 104.06007611847933 457.93506357423144 C104.02028642580204 457.8694279687939 103.99375996401719 457.81785713595013 104.00260211794547 457.81785713595013 C104.01144427187376 457.81785713595013 104.06449719544347 457.8694279687939 104.12197119597732 457.93506357423144 Z M104.47123627614461 458.4507719026693 C104.45797304525219 458.46014841773183 104.40049904471833 458.40388932735675 104.34302504418447 458.31950069179425 L104.24134027400919 458.1694764507941 L104.36955150596933 458.29605940413796 C104.43586766043147 458.36638326710676 104.48449950703704 458.43670713007555 104.47123627614461 458.4507719026693 Z M104.82492243327604 458.9149093982634 C104.81165920238362 458.92897417085715 104.74534304792147 458.8586503078883 104.67902689345934 458.7648851572633 L104.55081566149919 458.5914196286069 L104.70113227828004 458.741443869607 C104.78071166363462 458.82583250516956 104.83818566416848 458.90553288320086 104.82492243327604 458.9149093982634 Z M105.27145120665448 459.42592946916994 C105.27145120665448 459.4915650746075 105.15208212862262 459.3743586363262 104.99734443487762 459.15869878988855 L104.85586997202505 458.96648023110714 L105.06366058933976 459.1774518200135 C105.17860859040748 459.2899700007636 105.27145120665448 459.4024881815137 105.27145120665448 459.42592946916994 Z M132.9429719252248 460.8277184710147 C132.93855084826066 461.0152487722648 132.93855084826066 461.01993702979604 132.90318223254752 460.8980423339834 C132.86781361683438 460.77614763817087 132.88549792469098 460.63081165470203 132.9297086943324 460.63081165470203 C132.93855084826066 460.63081165470203 132.94739300218896 460.71988854779585 132.9429719252248 460.8277184710147 Z M107.51293722747492 461.6434752814527 C107.5217793814032 461.67629308417145 107.64114845943507 461.77943474985904 107.77378076835936 461.87788815801537 C107.90641307728364 461.9763415661717 108.01251892442306 462.074794974328 108.01251892442306 462.09823626198425 C108.01251892442306 462.1263658071718 107.97715030870992 462.112301034578 107.93736061603263 462.074794974328 C107.89314984639121 462.037288914078 107.65441169032749 461.83569384023406 107.40683138033549 461.6200339937964 C107.16367214730764 461.40906240489005 106.94703937606464 461.20746733104613 106.9337761451722 461.16996127079614 C106.92051291427977 461.1324552105461 107.03988199231163 461.20746733104613 107.19904076302078 461.3434267994525 C107.35819953372992 461.4746980103276 107.49967399658249 461.6106574787339 107.51293722747492 461.6434752814527 Z M132.98718269486625 462.5623737575783 C132.98718269486625 465.02370896148625 132.5008642288105 466.6270930371748 131.55475375848394 467.26469606142524 C131.4353846804521 467.3490846969878 131.28506806367125 467.43347333255036 131.2231729861732 467.4522263626754 C131.16127790867523 467.47097939280036 131.2320151401015 467.4100320448941 131.37791067991824 467.316266894269 C131.88191345383052 466.99277712461253 132.29749468845995 466.41143319073717 132.42128484345596 465.85353054451804 C132.4478113052408 465.7269475911742 132.51412745970296 465.5159760022678 132.57160146023682 465.389393048924 C132.69981269219696 465.0893445669238 132.77497100058739 464.70490744936103 132.76612884665911 464.40485896736084 C132.76170776969497 464.2735877564857 132.77939207755153 464.0344866223918 132.81033961630052 463.86570935126673 C132.8457082320137 463.6781790500166 132.86339253987023 463.28905367492257 132.85455038594196 462.8577339820473 C132.84128715504954 462.3326491385469 132.85455038594196 462.112301034578 132.90318223254752 461.9763415661717 C132.93855084826066 461.8825764155466 132.96949838700968 461.8028760375153 132.97834054093795 461.8028760375153 C132.9827616179021 461.8028760375153 132.98718269486625 462.14511883729676 132.98718269486625 462.5623737575783 Z M109.91800309596866 463.4343896583914 C110.02410894310808 463.5047135213602 110.2937946379208 463.66880253495407 110.5104274091638 463.7953854882979 C110.83316602754623 463.9782275320168 111.14706249200037 464.1751343483294 111.27969480092466 464.2735877564857 C111.28853695485294 464.2829642715482 111.28853695485294 464.297029044142 111.27527372396051 464.31109381673576 C111.23990510824737 464.34859987698576 109.64831740115594 463.3781305680164 109.64831740115594 463.3218714776413 C109.64831740115594 463.2749889023288 109.73231786347465 463.31249496257885 109.91800309596866 463.4343896583914 Z M116.4788813107567 466.63178129470606 C116.51424992646984 466.69272864261234 116.45677592593599 466.69272864261234 116.36835438665312 466.63178129470606 C116.31088038611927 466.594275234456 116.31088038611927 466.58489871939355 116.37719654058141 466.58489871939355 C116.41698623325868 466.58489871939355 116.46561807986427 466.6036517495186 116.4788813107567 466.63178129470606 Z M117.973205324637 467.13342485055017 C117.94225778588799 467.1428013656126 117.88920486231828 467.1428013656126 117.86267840053341 467.13342485055017 C117.83173086178442 467.1193600779564 117.85383624660514 467.1099835628939 117.91573132410313 467.1099835628939 C117.97762640160113 467.1099835628939 117.99973178642185 467.1193600779564 117.973205324637 467.13342485055017 Z M122.96902229411846 468.35237180867597 C122.93807475536946 468.3617483237385 122.88502183179973 468.3617483237385 122.85849537001488 468.35237180867597 C122.82754783126589 468.3383070360822 122.8496532160866 468.3289305210197 122.9115482935846 468.3289305210197 C122.9734433710826 468.3289305210197 122.99554875590331 468.3383070360822 122.96902229411846 468.35237180867597 Z M124.07429153515417 468.5399021099261 C124.04334399640518 468.54927862498863 123.98144891890718 468.54927862498863 123.94165922622989 468.5399021099261 C123.89744845658846 468.52583733733235 123.92397491837332 468.51646082226983 123.9947121497996 468.51646082226983 C124.06987045819002 468.51646082226983 124.10081799693903 468.52583733733235 124.07429153515417 468.5399021099261 Z "></path>
    </defs>
    <g style="mix-blend-mode:normal">
      <use xmlns:xlink="http://www.w3.org/1999/xlink" xlink:href="#s-Path_3-5119c" fill="#D9D9D9" fill-opacity="1.0" stroke-width="2.0" stroke="#404040" stroke-linecap="butt"></use>
    </g>
  </g>
</svg>
