<?xml version="1.0" encoding="UTF-8"?>
<svg xmlns="http://www.w3.org/2000/svg" width="63.86765670776367" height="50.5070686340332" viewBox="83.19107668544345 245.06022516814147 63.86765670776367 50.5070686340332" preserveAspectRatio="none">
  <g>
    <defs>
      <path id="s-Path_1-5119c" d="M112.78220013789884 246.5955980453447 C112.15441591755172 246.68119566592435 111.55750633099217 246.81244535081314 111.01205446741189 246.99505360804972 C110.5592265051943 247.14342281705444 110.4305821977461 247.16054234117036 109.802797977399 247.16054234117036 C107.97090303933692 247.16054234117036 106.30367281480851 247.5771174279913 104.69304608555728 248.43880014182645 C104.430611698363 248.57575633475386 104.10128227129567 248.71271252768133 103.9572006469537 248.7355385598359 C103.59185081380087 248.78689713218367 102.84571383060143 249.06080951803855 102.22307538255224 249.36325444408664 C101.42548067637352 249.75129699071437 101.37402295339425 249.7684165148303 100.83886263440981 249.836894611294 C99.47008720316119 250.0080898524533 97.98810478135816 250.65863176885864 96.8045771528349 251.61161861131205 C96.65534975619501 251.7371617881622 96.32087455682974 251.90835702932148 96.00698244665617 252.028193698133 C94.77714286745157 252.4904208492631 93.80459190314333 253.0325391129342 93.17680768279622 253.6031899167985 C93.04816337534804 253.72302658561 92.70339663138692 253.99123246342623 92.40494183810713 254.20237326085604 C91.65880485490769 254.7387850164885 91.01043754536887 255.33226185250737 90.40323641421345 256.0398688492991 C89.81661837224976 256.7189433058977 89.43068544990521 257.3295396660325 89.0859187059441 258.1227442834039 L88.84921318023945 258.6705690551137 L88.42725985180942 258.904535884698 C88.19570009840268 259.0357855695868 87.88695376052706 259.25263287505527 87.7428721361851 259.39529557602134 C87.22314913409446 259.9031747914606 86.86809084553747 260.70779242490926 86.81148735026028 261.5067035503193 L86.78061271647272 261.91186562106293 L86.41526288331988 262.3398537239612 C85.98301801029399 262.8420264313618 85.72058362309971 263.27001453426004 85.4735865527992 263.8634913702789 C85.3037760669676 264.27435994906125 85.04648745207125 265.25017282366923 85.04648745207125 265.4955526693309 C85.04648745207125 265.55832425775594 84.97444663990026 265.8436496596881 84.88182273853758 266.1289750616203 C84.73774111419561 266.5854957047117 84.7171580250039 266.7395714217551 84.6965749358122 267.3901133381604 C84.68113761891841 267.9436446179088 84.6965749358122 268.2632090680728 84.76346997568525 268.64554510666187 C84.87153119394172 269.267554482874 84.87667696623964 269.4501627401106 84.7891988371749 269.9123898912407 C84.72744956959976 270.2205413253274 84.73259534189768 270.2947259298298 84.79949038177074 270.4944537111823 C84.87153119394172 270.6998880005734 84.87667696623964 270.7512465729212 84.80463615406867 271.01945245073745 C84.69142916351427 271.4474405536357 84.73774111419561 272.1835800906207 84.9075516000272 272.71999184625315 C84.98473818449611 272.9539586758375 85.08250785815673 273.18792550542184 85.12367403654015 273.23928407776964 C85.16484021492357 273.29064265011743 85.23688102709455 273.46183789127673 85.28833875007382 273.6159136083201 C85.33465070075516 273.76998932536344 85.41183728522407 273.9583040906387 85.45814923590542 274.0381952031797 C85.50960695888469 274.1180863157207 85.56621045416189 274.3577596533437 85.5867935433536 274.5803134668508 C85.75145825688728 276.36074397490745 86.1528284961256 277.65612129967946 86.97615206379395 279.03709624503114 C87.61422782873692 280.1042132482574 88.24715782138196 280.76046167270135 88.86979626943116 281.005841518363 C88.98300325998555 281.05149358267215 89.09106447824202 281.13709120325177 89.1219391120296 281.1998627916769 C89.2197087856902 281.4110035891067 89.69826560939744 281.9188828045459 89.98642885808135 282.11290407785975 C90.96927136698545 282.77485901034237 92.68795931449313 283.0544779042359 95.0653061161355 282.940347743463 C96.11504366491265 282.8889891711152 98.21451876246695 282.67214186564684 98.96580151796432 282.540892180758 C99.47523297545911 282.44958805213975 99.47523297545911 282.44958805213975 99.74281313495133 282.8661631389607 C99.87660321469743 283.08301044442914 100.15962069108343 283.4824660071341 100.37059735529844 283.76208490102766 C100.58157401951347 284.03599728688255 100.83371686211188 284.4240398335103 100.9314865357725 284.6123545987855 C101.23508710135022 285.2058314348044 101.53354189462999 285.62811302966395 102.00695294603929 286.13599224510324 C102.52667594812993 286.68381701681295 103.02067008873095 287.0661530554021 103.69991203205734 287.4313695698752 C103.95205487465577 287.5740322708413 104.32769625240446 287.8251186245416 104.5232355997257 287.99631386570087 C104.91946006666609 288.3387043480195 105.53695274241736 288.698214354454 106.01550956612458 288.857996579536 C106.25736086412716 288.937887692077 106.48892061753388 288.9607137242316 107.09612174868928 288.95500721619294 C107.79594678120739 288.9493007081543 107.92459108865556 288.93218118403837 108.47518872453378 288.7723989589564 C108.80966392389905 288.6696818142608 109.13384757866845 288.56125816152655 109.19559684624359 288.5270191132947 C109.25220034152078 288.4870735570242 109.63813326386533 288.42430196859914 110.0497950476995 288.38435641232866 C112.37053835406468 288.1446830747056 113.81135459748428 287.3514784573342 114.40826418404384 285.98191652805986 C114.59351198676922 285.55963493320024 114.62438662055678 285.51968937692976 114.78905133409044 285.4854503286979 C114.88682100775107 285.4626242965433 115.14925539494536 285.3827331840023 115.36537783145829 285.3028420714613 C115.58664604026917 285.2229509589203 115.78733115988832 285.1715923865725 115.80791424908004 285.1887119106884 C115.83364311056968 285.2058314348044 115.86966351665517 285.3028420714613 115.89024660584687 285.39985270811826 C115.94685010112407 285.70800414220497 116.46657310321473 286.8321862258177 116.74959057960072 287.2373482965613 C117.10979464045562 287.7680535441552 117.53689374118358 288.13327005862834 118.24701031829753 288.5270191132947 C119.70326387861093 289.337343254782 120.48027549559794 290.16478692038527 122.6312083161315 293.20064919694346 C123.38249107162888 294.2620596921311 123.25899253647862 294.21070111978327 123.96396334129466 293.7770065088464 C124.21096041159517 293.62293079180307 124.43222862040602 293.4973876149529 124.45281170959774 293.4973876149529 C124.504269432577 293.4973876149529 125.52827811986454 292.744128553852 125.70838015029197 292.5729333126927 L125.847316002336 292.4416836278039 L125.3327387725433 291.7569026631667 C124.8799108103257 291.15201281107056 124.73582918598373 290.9180459814862 124.86961926572984 291.0093501101045 C124.98797202858216 291.0949477306841 126.3155812814474 291.44875122908 126.83015851124011 291.53434884965964 C127.55056663294991 291.6598920265098 128.78555198445244 291.6713050425871 129.42877352169336 291.56288138985286 C130.4219075751933 291.3973926567322 131.5385401638435 290.9408720136408 132.3567179592139 290.37022120977645 C132.52652844504553 290.2446780329263 133.13372957620092 289.8851680264918 133.70491030127084 289.5713100843664 C135.037665326434 288.8237575313041 135.52136792243914 288.4642475248696 135.71176149746245 288.0647919621646 C135.75292767584588 287.9734878335463 135.9433212508692 287.8194121165029 136.21090141036137 287.65392338338233 C137.15772351317997 287.083272579518 138.09939984370067 286.3014809782239 138.90214032217733 285.42267874027283 C139.3138021060115 284.97186460522 139.5813822655037 284.4411593576262 139.72546388984568 283.7677914090663 C139.84381665269797 283.2142601293179 139.83352510810215 281.81616565985036 139.70488080065394 281.00013501032436 C139.64827730537678 280.6691575440831 139.6174026715892 280.38383214215094 139.62769421618503 280.3552996019577 C139.6379857607809 280.33247356980314 139.70488080065394 280.3153540456872 139.77692161282494 280.3153540456872 C139.98789827703996 280.3153540456872 140.9810323305399 280.0528546759096 141.34123639139483 279.8987789588662 C142.21087190974453 279.53356244439306 142.74603222872895 279.1626394218813 143.35323335988437 278.48927147332137 C144.0067464417211 277.77595796849096 144.438991314747 276.9827533511196 144.76832074181434 275.90992983985467 C144.86094464317702 275.6017784057679 144.96386008913555 275.2080293511016 144.9947347229231 275.02542109386496 C145.03075512900864 274.84281283662835 145.1388163472651 274.5460744186189 145.2417317932236 274.36346616138235 C145.33950146688426 274.18656441218445 145.45270845743863 273.90123901025225 145.48872886352416 273.74145678517027 C145.61222739867438 273.21645804561507 145.57106122029097 272.36618834785725 145.37552187296973 271.4873861099062 C145.30348106079873 271.1621151517035 145.30348106079873 271.12216959543304 145.3858134175656 270.9452678462351 C145.43727114054485 270.8368441935009 145.4835830912262 270.5800513317619 145.49902040811997 270.32896497806166 C145.53504081420547 269.61565147323125 145.29318951620292 269.0792397175988 144.49044903772625 268.0920138269135 L144.08907879848795 267.5898411195129 L143.9707260356356 267.0191903156486 C143.77004091601646 266.03196442496335 143.39439953826775 265.26729234778514 142.740886456431 264.5197397947229 L142.38582816787402 264.12028423201787 L142.35495353408646 263.6580570808878 C142.30864158340512 263.0189281805597 142.11824800838184 262.5738205535456 141.6962946799518 262.14583245064733 C141.5264841941202 261.9689307014494 141.2640498069259 261.7463768879423 141.11996818258393 261.655072759324 C140.87811688458137 261.5009970422807 140.84724225079378 261.4553449779715 140.62082826968498 260.9018136982231 C140.49218396223682 260.57654274002044 140.2760615257239 260.1314351130063 140.14741721827568 259.9031747914606 C139.86954551418762 259.4352411322918 139.27263592762807 258.7162211194228 138.8403910546022 258.33959158887234 C138.68087211336643 258.20263539594487 138.50591585523694 258.04855967890154 138.45445813225763 258.0029076145924 C138.3927088646825 257.94584253420595 138.34125114170325 257.78606030912397 138.30523073561778 257.51785443130774 C138.15085756667997 256.3651398075018 137.30695090981988 255.3607943927006 135.80953117112307 254.53335072709734 C135.5265136947371 254.37927501005396 135.23835044605315 254.23090580104926 135.16630963388218 254.2080797688947 C135.09941459400912 254.1852537367401 134.682607037877 253.75726563384188 134.24007062025527 253.26650594251856 C132.85585787211284 251.70292273993033 131.4664993516725 250.61868621258813 129.69635368118554 249.72276445052114 C129.43391929399127 249.59151476563235 129.15090181760527 249.4203195244731 129.0634236885405 249.35184142800935 C128.79069775675038 249.11787459842498 128.14747621950949 248.82113618041552 127.77698061405871 248.75836459199047 C127.58144126673747 248.7241255437586 127.22123720588259 248.70129951160402 126.97424013558206 248.70700601964268 L126.5265579456624 248.7241255437586 L126.25383201387226 248.43880014182645 C125.69808860569613 247.85673632188485 124.89020235492156 247.4572807591798 124.00512951967806 247.32603107429102 C123.51113537907705 247.25184646978866 122.12177685863671 247.2860855180205 121.5711792227585 247.3888026627161 C121.24699556798907 247.45157425114115 121.21612093420153 247.44586774310253 120.9639780916031 247.30320504213645 C120.6089198030461 247.10347726078393 120.1149256624451 246.99505360804972 119.57461957116276 246.98934710001106 C119.33276827316017 246.98364059197243 118.95198112311355 246.96081455981786 118.72556714200475 246.93228201962464 C118.49915316089597 246.90374947943144 117.70155845471724 246.85239090708365 116.95027569921987 246.81815185885176 C116.1989929437225 246.78391281061994 115.31392010847902 246.72114122219483 114.97944490911375 246.66978264984704 C114.19728751982883 246.56135899711285 113.27104850620194 246.52711994888097 112.78220013789884 246.5955980453447 Z "></path>
    </defs>
    <g style="mix-blend-mode:normal">
      <use xmlns:xlink="http://www.w3.org/1999/xlink" xlink:href="#s-Path_1-5119c" fill="#D9D9D9" fill-opacity="1.0" stroke-width="2.0" stroke="#404040" stroke-linecap="butt"></use>
    </g>
  </g>
</svg>
