<?xml version="1.0" encoding="UTF-8" standalone="no"?>
<!--?xml version="1.0" encoding="UTF-8" standalone="no"?-->

<!-- Created with Inkscape (http://www.inkscape.org/) -->

<svg
   width="100%"
   height="100%"
   viewBox="0 0 210 297"
   version="1.1"
   id="svg936"
   inkscape:version="1.1.2 (b8e25be833, 2022-02-05)"
   sodipodi:docname="organos.svg"
   xmlns:inkscape="http://www.inkscape.org/namespaces/inkscape"
   xmlns:sodipodi="http://sodipodi.sourceforge.net/DTD/sodipodi-0.dtd"
   xmlns="http://www.w3.org/2000/svg"
   xmlns:svg="http://www.w3.org/2000/svg">
  <sodipodi:namedview
     id="namedview938"
     pagecolor="#ffffff"
     bordercolor="#666666"
     borderopacity="1.0"
     inkscape:pageshadow="2"
     inkscape:pageopacity="0.0"
     inkscape:pagecheckerboard="0"
     inkscape:document-units="mm"
     showgrid="false"
     inkscape:zoom="1.9077568"
     inkscape:cx="98.28297"
     inkscape:cy="210.71869"
     inkscape:window-width="1366"
     inkscape:window-height="705"
     inkscape:window-x="-8"
     inkscape:window-y="-8"
     inkscape:window-maximized="1"
     inkscape:current-layer="Kidney" />
  <defs
     id="defs933" />
  <g
     inkscape:groupmode="layer"
     id="Lungs"
     inkscape:label="pulmones"
     style="display:inline"
     class="area"
     title="">
    <path
       d="m 110.17595,75.209536 c -1.3851,0.19525 -1.53006,0.22781 -2.25484,0.53696 -0.33017,0.13825 -0.57981,0.17085 -1.40927,0.17085 -0.97443,0.009 -1.02274,0 -1.56228,-0.26035 -0.33824,-0.16271 -0.68452,-0.26033 -0.88584,-0.26033 -0.17717,0 -0.79725,-0.0732 -1.36901,-0.16272 -0.57177,-0.0895 -1.30459,-0.16271 -1.63476,-0.16271 -0.54761,0 -0.62009,0.0163 -0.82947,0.22779 -0.322108,0.33357 -0.434858,0.96001 -0.434858,2.37562 0.008,1.31797 0.13689,2.28611 0.595918,4.63731 0.62813,3.18916 0.86972,4.2956 0.99858,4.53966 0.0725,0.13825 0.4268,0.57764 0.79724,0.97628 0.74893,0.81356 1.02273,1.26915 0.86973,1.47254 -0.0483,0.0732 -0.16911,0.29289 -0.26575,0.49628 -0.20133,0.41491 -0.22549,1.07389 -0.11274,2.60339 0.0564,0.66712 0.0403,1.00882 -0.0644,1.55389 -0.0725,0.38238 -0.12887,0.83797 -0.12887,1.01696 0,0.39051 0.22548,0.90304 0.51538,1.16339 0.29797,0.28475 0.28187,0.68338 -0.0805,1.49695 -0.37849,0.85422 -0.38656,1.19593 -0.0403,1.5539 l 0.25769,0.26847 -0.16912,0.764744 c -0.24158,1.13085 -0.23353,1.83864 0.0403,2.40812 0.21743,0.44748 0.21743,0.45559 0.0805,0.74848 -0.21743,0.46373 -0.23353,1.09016 -0.0484,1.93627 0.21743,0.98439 0.21743,1.1715 -0.0323,1.40744 -0.30602,0.28474 -0.36239,0.62643 -0.26575,1.50508 0.0725,0.60204 0.0725,0.88679 -0.0161,1.34238 -0.0966,0.52068 -0.0966,0.67526 0.0403,1.48883 0.0886,0.50441 0.15299,1.14712 0.14494,1.44 -0.008,0.29289 0.0644,0.92746 0.15301,1.42375 0.22548,1.18779 0.24159,2.35933 0.0323,2.66848 -0.22548,0.33357 -0.18522,0.74034 0.14496,1.53764 0.16106,0.39051 0.2899,0.78102 0.2899,0.87865 0,0.24407 -0.21743,0.62644 -0.40265,0.7322 -0.0886,0.0489 -0.14494,0.12206 -0.12074,0.16271 0.18522,0.30104 0.20938,1.62713 0.0323,1.62713 -0.0402,0 -0.0725,-0.057 -0.0725,-0.12205 0,-0.0651 -0.33822,-1.53763 -0.75697,-3.27865 -0.41877,-1.7329 -0.98247,-4.11664 -1.25628,-5.30444 -0.57982,-2.51392 -0.77309,-3.06715 -1.811908,-5.22307 -0.41876,-0.8868 -0.86973,-1.87932 -1.00664,-2.221 -2.19846,-5.597274 -7.0705,-7.997294 -12.06334,-5.938984 -0.87779,0.35797 -1.76361,0.894934 -3.63998,2.196624 -7.94027,5.51588 -13.078093,10.84474 -16.540893,17.14985 -0.789202,1.43187 -2.576962,5.05223 -3.229254,6.51665 -1.795823,4.06783 -2.842718,7.7614 -3.180946,11.27602 -0.120742,1.26914 -0.265755,14.99397 -0.209383,20.05434 0.05637,5.3858 0.314066,10.81227 0.620082,13.17974 0.362391,2.76613 1.457595,5.22308 3.076248,6.88277 1.071057,1.10645 2.295122,1.83865 3.680231,2.20477 0.603983,0.16269 0.869724,0.18709 2.254847,0.17898 4.549958,-0.0243 10.001848,-0.62644 13.295528,-1.45629 2.26291,-0.57764 3.66413,-1.11458 6.79674,-2.62783 6.65982,-3.20543 8.76165,-4.49899 11.032568,-6.80953 2.01326,-2.03391 3.04405,-3.92138 3.70439,-6.75258 0.38654,-1.66779 0.55566,-3.21358 0.68451,-6.18308 0.25769,-6.16682 0.2899,-6.66309 0.67646,-9.03056 0.41875,-2.57087 0.48317,-3.45766 0.48317,-6.67124 0,-2.28611 -0.0322,-3.36002 -0.1369,-4.47459 -0.15301,-1.54579 -0.45902,-3.84817 -0.66034,-5.00343 -0.12074,-0.68339 -0.12074,-0.69154 0.0484,-0.81356 0.0966,-0.0651 0.54761,-0.17899 0.99052,-0.24408 0.65229,-0.0976 0.96636,-0.10585 1.5945,-0.0408 0.43487,0.0487 0.8053,0.11381 0.83752,0.14644 0.0323,0.0243 -0.0403,0.65084 -0.15301,1.37492 -0.60398,3.80749 -0.73283,5.44274 -0.73283,9.05498 0,3.21358 0.0644,4.10037 0.48319,6.67123 0.38653,2.36746 0.41875,2.86375 0.67645,9.03057 0.16106,3.7261 0.43486,5.62985 1.12742,7.76953 1.10325,3.40071 3.76075,6.29699 8.1416,8.85158 1.43343,0.82984 6.86922,3.52273 8.81805,4.36885 2.3837,1.03321 5.44385,1.81424 8.72141,2.2373 2.5367,0.32542 6.37799,0.58576 8.70531,0.60204 1.38512,0.008 1.65088,-0.0164 2.25485,-0.17899 3.55943,-0.95188 6.15251,-4.43394 6.75648,-9.08752 0.30601,-2.36748 0.56372,-7.79395 0.62008,-13.17975 0.0564,-5.06037 -0.0886,-18.7852 -0.20937,-20.05435 -0.33823,-3.5146 -1.38512,-7.20819 -3.18094,-11.27601 -0.6523,-1.46441 -2.44007,-5.08478 -3.22926,-6.51666 -2.64945,-4.83257 -6.21693,-8.99801 -11.32255,-13.22038 -2.0052,-1.66778 -5.74985,-4.38506 -7.44098,-5.402 -4.44527,-2.684754 -9.42202,-1.562054 -12.23253,2.77422 -0.48319,0.74846 -0.90194,1.56203 -1.24821,2.44066 -0.13691,0.34169 -0.58789,1.33421 -1.00664,2.221 -1.04689,2.18036 -1.23211,2.70918 -1.85219,5.3858 -0.70061,3.05086 -1.90051,8.00546 -1.94079,8.04614 -0.0644,0.0651 -0.0322,-0.39864 0.0564,-0.80541 0.0805,-0.39865 0.0805,-0.41493 -0.16106,-0.69968 -0.32211,-0.36609 -0.32211,-0.60203 0.0323,-1.46441 0.33018,-0.79729 0.34628,-1.11458 0.11275,-1.58646 -0.16106,-0.29287 -0.16912,-0.41491 -0.12887,-1.11457 0.0323,-0.43932 0.12074,-1.17153 0.20936,-1.62713 0.10476,-0.51255 0.14496,-0.98442 0.11275,-1.19593 -0.0241,-0.21967 0.0241,-0.75664 0.13691,-1.3912 0.16106,-0.91933 0.16911,-1.09832 0.0886,-1.54578 -0.0725,-0.34983 -0.0886,-0.81357 -0.0484,-1.48069 0.0644,-1.02507 0.0322,-1.16337 -0.32213,-1.56203 l -0.18522,-0.20338 0.19327,-0.93559 c 0.23354,-1.17153 0.23354,-1.35051 0.0241,-1.96068 -0.16107,-0.47186 -0.16912,-0.52066 -0.0403,-0.781 0.17717,-0.37425 0.16106,-0.88678 -0.0484,-1.88744 l -0.17717,-0.846114 0.17717,-0.51255 c 0.22549,-0.6427 0.22549,-1.08204 0.008,-1.87932 -0.21745,-0.80543 -0.17717,-1.14711 0.19326,-1.57017 0.51539,-0.56949 0.53955,-1.03321 0.17717,-3.03457 -0.0161,-0.0732 0.0323,-0.5695 0.0966,-1.09831 0.14494,-1.17152 0.0966,-1.61898 -0.2255,-2.2617 -0.24964,-0.50441 -0.24964,-0.50441 -0.11275,-0.79728 0.0805,-0.16272 0.44292,-0.62644 0.81336,-1.01695 0.36237,-0.39865 0.72476,-0.83797 0.78918,-0.96813 0.13691,-0.26849 0.98248,-4.29561 1.29654,-6.1668 0.26576,-1.57832 0.37044,-3.01019 0.28991,-3.8563 -0.20132,-1.92001 -0.33017,-1.9851 -3.18899,-1.57018 z"
       id="path3935"
       style="display:inline;fill:#ffffff;fill-opacity:1;stroke:#000000;stroke-width:2.008;stroke-miterlimit:4;stroke-dasharray:none;stroke-opacity:1"
       class="area"
       title="" />
  </g>
  <g
     inkscape:label="cerebro"
     inkscape:groupmode="layer"
     id="Brain"
     style="display:inline"
     class="area"
     title="">
    <path
       d="m 105.21727,8.8943839 c -0.54871,0.0794 -1.07042,0.2011097 -1.54715,0.3704797 -0.39578,0.13761 -0.50823,0.15348 -1.05692,0.15348 -1.60112,0 -3.058297,0.3863597 -4.466007,1.1855494 -0.22937,0.12702 -0.51721,0.25404 -0.64315,0.27521 -0.31932,0.0476 -0.97144,0.30168 -1.51565,0.58219 -0.69711,0.3599 -0.7421,0.37578 -1.20983,0.43929 -1.19635,0.15878 -2.49162,0.76214 -3.52606,1.646 -0.13043,0.11644 -0.42277,0.27521 -0.69711,0.38636 -1.07491,0.4287 -1.92493,0.9315 -2.47364,1.46076 -0.11247,0.11116 -0.41376,0.3599 -0.67462,0.55572 -0.65214,0.49751 -1.21883,1.04794 -1.74954,1.70422 -0.5127,0.62983 -0.85003,1.19613 -1.15136,1.93181 l -0.20688,0.50809 -0.3688,0.21699 c -0.20239,0.12174 -0.47224,0.32285 -0.59817,0.45517 -0.45425,0.47104 -0.76458,1.2173 -0.81405,1.95826 l -0.0269,0.37578 -0.31931,0.39694 c -0.3778,0.46575 -0.60718,0.8627 -0.82306,1.41313 -0.14841,0.38107 -0.37329,1.2861 -0.37329,1.51369 0,0.0582 -0.063,0.32285 -0.14391,0.58748 -0.12594,0.4234 -0.14393,0.56631 -0.16192,1.16966 -0.0136,0.51339 0,0.80977 0.0585,1.16438 0.0944,0.57689 0.099,0.74625 0.0224,1.17496 -0.054,0.2858 -0.0495,0.3546 0.009,0.53984 0.063,0.19054 0.0676,0.23817 0.005,0.48692 -0.099,0.39695 -0.0585,1.07969 0.09,1.5772 0.0676,0.217 0.15293,0.43399 0.18891,0.48163 0.036,0.0476 0.099,0.20641 0.14391,0.34931 0.0406,0.1429 0.10793,0.31756 0.14843,0.39165 0.0449,0.0741 0.0944,0.29639 0.11247,0.5028 0.14392,1.65129 0.49472,2.85272 1.21433,4.13353 0.55769,0.98971 1.11088,1.59836 1.65509,1.82595 0.099,0.0423 0.19339,0.12173 0.22037,0.17995 0.0855,0.19582 0.50373,0.66686 0.75559,0.84681 0.85903,0.61395 2.3612,0.87328 4.43905,0.76743 0.91748,-0.0476 2.75247,-0.24875 3.40911,-0.37048 0.44525,-0.0847 0.44525,-0.0847 0.67913,0.30168 0.11694,0.20112 0.3643,0.5716 0.5487,0.83094 0.1844,0.25404 0.40477,0.61394 0.49023,0.7886 0.26535,0.55043 0.52621,0.94208 0.93998,1.41312 0.45424,0.50809 0.886,0.8627 1.47968,1.20143 0.22038,0.1323 0.54869,0.36519 0.71959,0.52396 0.34631,0.31756 0.88601,0.65099 1.30429,0.79919 0.21137,0.0741 0.41376,0.0953 0.944457,0.09 0.61166,-0.005 0.72411,-0.0212 1.20532,-0.16937 0.29233,-0.0953 0.57569,-0.19583 0.62966,-0.22758 0.0495,-0.037 0.38678,-0.0953 0.74658,-0.13232 2.02837,-0.2223 3.28769,-0.95797 3.8094,-2.22819 0.16191,-0.39166 0.1889,-0.42871 0.33281,-0.46046 0.0855,-0.0212 0.31483,-0.0953 0.50372,-0.16936 0.1934,-0.0741 0.3688,-0.12173 0.38679,-0.10585 0.0225,0.0159 0.054,0.10585 0.0719,0.19582 0.0495,0.2858 0.50373,1.32845 0.75109,1.70422 0.31483,0.49221 0.68812,0.83094 1.30877,1.19613 1.27281,0.75155 1.95194,1.51898 3.83189,4.33465 0.65665,0.98442 0.5487,0.93679 1.16486,0.53455 0.21588,-0.1429 0.40927,-0.25934 0.42727,-0.25934 0.0449,0 0.93998,-0.69862 1.09739,-0.8574 l 0.12143,-0.12174 -0.44974,-0.63511 c -0.39579,-0.56102 -0.52172,-0.77801 -0.40479,-0.69333 0.1034,0.0794 1.26381,0.40753 1.71356,0.48692 0.62965,0.11644 1.70905,0.12702 2.27124,0.0265 0.86803,-0.15349 1.84398,-0.57689 2.55909,-1.10615 0.14843,-0.11645 0.67913,-0.44988 1.17835,-0.74097 1.16486,-0.69333 1.58762,-1.02677 1.75403,-1.39725 0.036,-0.0847 0.20239,-0.22758 0.43626,-0.38107 0.82754,-0.52926 1.65059,-1.25435 2.3522,-2.06941 0.3598,-0.41811 0.59367,-0.91033 0.71961,-1.53485 0.10339,-0.51339 0.0944,-1.81007 -0.018,-2.56692 -0.0495,-0.30697 -0.0765,-0.5716 -0.0676,-0.59807 0.009,-0.0212 0.0676,-0.037 0.13042,-0.037 0.1844,0 1.05242,-0.24346 1.36724,-0.38636 0.76008,-0.33873 1.22783,-0.68274 1.75854,-1.30727 0.57117,-0.66158 0.94897,-1.39725 1.23681,-2.39226 0.0809,-0.2858 0.17091,-0.65099 0.1979,-0.82036 0.0316,-0.16936 0.12593,-0.44457 0.21587,-0.61394 0.0855,-0.16407 0.1844,-0.4287 0.21588,-0.57689 0.10794,-0.48692 0.0719,-1.27552 -0.099,-2.09058 -0.063,-0.30168 -0.063,-0.33873 0.009,-0.5028 0.045,-0.10056 0.0855,-0.33873 0.099,-0.5716 0.0316,-0.66158 -0.17989,-1.15908 -0.88151,-2.0747 l -0.3508,-0.46575 -0.10339,-0.52926 c -0.17541,-0.91563 -0.50374,-1.62484 -1.07491,-2.31817 l -0.31034,-0.37048 -0.0269,-0.4287 c -0.0406,-0.59277 -0.20688,-1.0056 -0.57566,-1.40254 -0.14843,-0.16408 -0.3778,-0.37049 -0.50374,-0.45517 -0.21137,-0.1429 -0.23836,-0.18524 -0.43625,-0.69862 -0.11247,-0.30168 -0.30133,-0.7145 -0.41378,-0.92621 -0.24286,-0.43399 -0.76457,-1.10086 -1.14236,-1.45017 -0.13942,-0.12702 -0.29233,-0.26993 -0.33732,-0.31227 -0.054,-0.0529 -0.099,-0.20112 -0.13043,-0.44987 -0.13491,-1.0691 -0.87251,-2.00061 -2.18129,-2.76803 -0.24736,-0.1429 -0.49922,-0.28051 -0.56219,-0.30168 -0.0585,-0.0212 -0.42277,-0.41812 -0.80955,-0.87328 -1.20983,-1.45018 -2.42416,-2.45577 -3.9713,-3.28671 -0.22938,-0.12174 -0.47675,-0.28051 -0.5532,-0.34402 -0.23837,-0.217 -0.80056,-0.49222 -1.12438,-0.55044 -0.17091,-0.0318 -0.48573,-0.0529 -0.70161,-0.0476 l -0.39127,0.0159 -0.23838,-0.26463 c -0.48574,-0.53984 -1.19184,-0.9103197 -1.96541,-1.0320497 -0.43176,-0.0688 -1.6461,-0.037 -2.12732,0.0582 -0.28336,0.0582 -0.31034,0.0529 -0.53072,-0.0794 -0.31032,-0.1852397 -0.74209,-0.2857997 -1.21433,-0.2910997 -0.21138,-0.005 -0.5442,-0.0265 -0.74209,-0.0529 -0.19789,-0.0265 -0.89501,-0.0741 -1.55163,-0.10585 -0.65664,-0.0318 -1.43021,-0.09 -1.72256,-0.13761 -0.68363,-0.1005497 -1.49317,-0.1323197 -1.92044,-0.0688 z"
       id="path4190"
       style="display:inline;fill:#ffffff;fill-opacity:1;stroke:#000000;stroke-width:2.005;stroke-miterlimit:4;stroke-dasharray:none;stroke-opacity:1"
       class="area"
       title="" />
  </g>
  <g
     inkscape:groupmode="layer"
     id="Heart"
     inkscape:label="corazon"
     style="display:inline"
     class="area"
     title="">
    <path
       d="m 120.06414,133.98537 c -0.48686,0.24268 -0.72625,0.40995 -0.81548,0.56736 -0.0691,0.12461 -0.0691,0.13773 -0.005,0.21645 0.069,0.0852 0.23936,0.16069 0.43816,0.19676 0.59234,0.0984 1.08729,1.37742 1.2577,3.24348 0.0366,0.44601 0.0366,0.52801 -0.0123,0.53785 -0.21915,0.0591 -1.2212,0.50504 -1.53766,0.68542 -0.50308,0.2886 -1.33478,0.96091 -1.63096,1.32165 -0.30835,0.37717 -0.61262,0.88877 -0.79115,1.33479 -0.081,0.20661 -0.15008,0.36731 -0.15413,0.36404 -0.0158,-0.0197 0.10153,-0.90517 0.16633,-1.23968 0.0366,-0.19022 0.10943,-0.51817 0.16227,-0.73462 0.0527,-0.21318 0.0974,-0.42307 0.0974,-0.46899 0,-0.0427 0.0488,-0.13445 0.10547,-0.20331 0.2921,-0.35748 0.0893,-0.66576 -0.60046,-0.91829 -0.51528,-0.19021 -1.39972,-0.32795 -2.08943,-0.33122 -0.49497,0 -1.22526,0.0886 -1.65531,0.20004 -0.44628,0.11474 -0.92096,0.35419 -1.07513,0.54442 -0.12981,0.16069 -0.12981,0.39026 -0.009,0.85922 0.1135,0.42964 0.34891,1.75786 0.43005,2.43018 0.30834,2.50885 0.21101,4.76193 -0.27182,6.34595 l -0.0893,0.29188 -0.22322,0.10826 c -0.25562,0.12132 -0.90878,0.63621 -1.26988,0.99368 -0.98993,0.99045 -1.57415,2.10877 -1.82167,3.49275 -0.0771,0.43947 -0.0651,1.70211 0.0245,2.2137 0.15008,0.8691 0.4544,1.85625 0.81547,2.65646 0.31646,0.692 0.78303,1.54796 1.09138,1.99398 l 0.29618,0.42635 0.0651,0.48537 c 0.21914,1.54794 0.92906,3.18118 2.02854,4.65699 l 0.27184,0.36404 v 0.86579 c 0,2.40391 -0.21913,4.80126 -0.58423,6.49022 -0.10535,0.47555 -0.0935,0.55753 0.0769,0.55753 0.0527,0 0.20289,-0.0558 0.33268,-0.12791 0.8601,-0.45912 2.07724,-0.72805 3.01444,-0.65918 0.67348,0.046 1.03049,0.14757 1.59037,0.44929 0.49093,0.26566 1.14007,0.88877 1.54174,1.48236 0.081,0.12135 0.20694,0.13446 0.2637,0.0263 0.0325,-0.0559 0.0203,-0.10491 -0.0527,-0.21973 -0.26774,-0.41651 -1.16437,-3.31892 -1.4159,-4.5881 -0.0325,-0.15413 -0.0527,-0.28531 -0.0446,-0.28859 0.009,-0.007 0.25154,0.12134 0.5477,0.28859 1.69589,0.95108 4.3817,2.01693 6.73484,2.66628 0.60856,0.17054 2.08939,0.52801 2.7629,0.67231 1.22119,0.25908 3.33089,0.60016 4.68595,0.75758 0.17854,0.0197 0.52745,0.0722 0.77088,0.11474 1.73238,0.305 3.85424,0.31155 5.30265,0.013 1.0873,-0.22301 2.00421,-0.61983 2.48702,-1.08226 0.79924,-0.76413 1.43216,-2.37767 1.69993,-4.34213 0.14607,-1.05928 0.16633,-1.36756 0.16227,-2.68923 -0.005,-2.03661 -0.18665,-3.55503 -0.64915,-5.34568 -0.61669,-2.37768 -1.7324,-4.74226 -3.0185,-6.40172 -0.17853,-0.22955 -0.24343,-0.34433 -0.26373,-0.47552 -0.0609,-0.39028 -0.31239,-1.39056 -0.48278,-1.92839 -0.79116,-2.50888 -1.97177,-4.22736 -3.48101,-5.05382 -0.31646,-0.17383 -0.82765,-0.3673 -1.18873,-0.45258 l -0.28401,-0.0656 h 0.61668 c 1.18062,-0.007 2.75477,0.22628 3.77719,0.55096 0.21101,0.0689 0.21507,0.0689 0.17039,0.003 -0.0406,-0.0591 -0.0366,-0.0623 0.0609,-0.0328 0.0771,0.0229 0.14194,0.0196 0.23531,-0.0132 0.27183,-0.0886 0.50714,-0.41322 0.76273,-1.0429 0.50308,-1.23641 0.42195,-2.33834 -0.20696,-2.89257 -0.11758,-0.10161 -0.14608,-0.15088 -0.11351,-0.17712 0.0894,-0.0722 -0.28401,-0.0886 -1.83382,-0.0852 -1.57417,0.003 -2.29226,0.0393 -3.38769,0.16397 -0.40572,0.046 -1.37132,0.19022 -1.5255,0.22629 -0.0527,0.013 -0.0729,-0.0327 -0.1135,-0.25253 -0.21507,-1.16751 -0.77898,-2.41375 -1.43217,-3.16149 -0.32051,-0.36402 -0.8885,-0.82644 -1.30637,-1.06257 -0.17854,-0.0984 -0.59642,-0.29188 -0.93313,-0.42633 l -0.61267,-0.24597 0.005,-0.18039 c 0.009,-0.27876 0.23126,-0.59687 0.99806,-1.40035 0.30834,-0.3214 0.37731,-0.45259 0.25965,-0.48866 -0.0325,-0.01 -0.13381,0.013 -0.22721,0.0525 -0.0973,0.0393 -0.19882,0.0591 -0.24747,0.0491 -0.0447,-0.013 -0.18259,-0.14757 -0.30428,-0.29844 -0.25154,-0.30499 -0.36111,-0.39026 -0.58424,-0.44272 -0.22321,-0.0557 -0.36108,-0.007 -0.51525,0.18037 -0.23532,0.27876 -0.42194,0.90187 -0.51524,1.73488 -0.0325,0.26564 -0.0651,0.49521 -0.081,0.50505 -0.0366,0.0295 -0.46251,-0.0559 -0.70596,-0.14102 -0.14194,-0.0525 -0.22319,-0.10161 -0.25153,-0.1607 -0.085,-0.18365 -0.0406,-0.80021 0.12569,-1.80047 0.10547,-0.61328 0.13379,-0.56737 -0.39353,-0.67231 -0.42195,-0.0853 -0.8885,-0.0951 -1.06701,-0.023 -0.2759,0.11475 -0.34894,0.45913 -0.31242,1.41349 0.0158,0.36075 0.0158,0.70181 0,0.76085 l -0.0245,0.10161 -0.14608,-0.0689 c -0.22319,-0.10826 -0.55178,-0.0918 -1.04268,0.0493 -0.22321,0.0623 -0.4341,0.12462 -0.47468,0.13775 -0.0569,0.0196 -0.069,-0.013 -0.0935,-0.26566 -0.10535,-1.14784 -0.41383,-2.09891 -0.97371,-3.01062 -0.30023,-0.4821 -0.78302,-1.06585 -0.88041,-1.06585 -0.0284,0 -0.21508,0.082 -0.41381,0.18365 z m 13.74146,10.1043 c -0.0284,0.007 -0.077,0.007 -0.10152,0 -0.0284,-0.01 -0.009,-0.0165 0.0488,-0.0165 0.0569,0 0.0768,0.007 0.0527,0.0165 z m -8.07771,0.40338 c 0.46249,0.60672 0.95748,1.34134 1.09135,1.6365 l 0.0406,0.0853 -0.12568,-0.0984 c -0.39761,-0.30173 -0.86012,-0.97402 -1.21716,-1.75457 -0.15007,-0.33124 -0.13381,-0.3214 0.21103,0.13117 z m -0.779,-0.14758 c 0,0.0262 -0.0284,0.0493 -0.0609,0.0493 -0.0651,0 -0.081,-0.0393 -0.0325,-0.0755 0.0446,-0.0393 0.0934,-0.0262 0.0934,0.0262 z m -1.136,0.70511 c 0,0.0164 -0.0202,0.0328 -0.0447,0.0328 -0.0203,0 -0.0284,-0.0165 -0.0158,-0.0328 0.0123,-0.0197 0.0325,-0.0327 0.0447,-0.0327 0.009,0 0.0158,0.013 0.0158,0.0327 z m 0.84391,2.50887 c 0.32456,0.082 0.23124,0.0918 -0.15822,0.0196 -0.18665,-0.0361 -0.39354,-0.0722 -0.4625,-0.082 -0.0651,-0.007 -0.005,-0.01 0.14193,-0.003 0.14608,0.007 0.3611,0.0361 0.47875,0.0656 z m 9.518,1.07243 c 0.23937,0.14757 0.25156,0.15741 0.19883,0.15741 -0.0284,0 -0.13381,-0.0591 -0.23529,-0.13118 -0.22321,-0.15742 -0.20289,-0.17382 0.0366,-0.0263 z m 0.85605,0.61654 c 0.0651,0.0557 0.0651,0.0656 0.0123,0.0493 -0.0366,-0.013 -0.0771,-0.0427 -0.0893,-0.0689 -0.0284,-0.0623 -0.009,-0.0591 0.0768,0.0196 z m 1.19686,1.31184 c 0.0488,0.0754 0.0488,0.0787 -0.0123,0.0361 -0.0406,-0.0229 -0.069,-0.0656 -0.069,-0.095 0,-0.0591 0.0123,-0.0525 0.081,0.0591 z m -16.51248,0.84284 c -0.0447,0.0557 -0.0447,0.0557 -0.0245,0 0.0123,-0.0327 0.0245,-0.0787 0.0284,-0.0984 0,-0.0295 0.009,-0.0295 0.0203,0 0.0124,0.023 0,0.0656 -0.0243,0.0984 z m 17.06425,0.19677 0.0569,0.15742 -0.081,-0.082 c -0.0446,-0.046 -0.081,-0.12463 -0.081,-0.1771 0,-0.1279 0.0325,-0.095 0.10548,0.10161 z m -27.04072,0.90516 c -0.0406,0.0295 -0.0446,0.0262 -0.0203,-0.0197 0.0123,-0.0328 0.0366,-0.0493 0.0485,-0.0393 0.0124,0.01 0,0.0361 -0.0284,0.0591 z m 9.4896,0.97732 c -0.15414,0.86253 -0.35704,2.71876 -0.36919,3.4337 -0.009,0.24597 -0.009,0.24925 -0.0366,0.0886 -0.0769,-0.4001 -0.0203,-1.51516 0.12166,-2.43344 0.0771,-0.48537 0.32053,-1.56434 0.34894,-1.54139 0.009,0.007 -0.0203,0.20989 -0.0651,0.45258 z m 18.00957,0.20989 c 0.005,0.0558 -0.005,0.0558 -0.0366,0.0164 -0.0203,-0.0262 -0.0366,-0.11474 -0.0366,-0.19678 l 0.005,-0.14757 0.0365,0.13118 c 0.0158,0.0722 0.0325,0.1607 0.0325,0.19678 z m -27.81563,0.25253 c 0.0284,0.013 0.0245,0.0393 -0.009,0.0722 -0.0853,0.082 -0.10943,0.0623 -0.0893,-0.0722 0.009,-0.0656 0.0245,-0.0984 0.0366,-0.0722 0.0124,0.0262 0.0406,0.0591 0.0609,0.0722 z m 27.63711,2.40391 c -0.0158,0.082 -0.0406,0.1443 -0.0488,0.13447 -0.0124,-0.01 -0.009,-0.0852 0.009,-0.16725 0.0123,-0.0853 0.0366,-0.14759 0.0488,-0.13775 0.009,0.01 0.005,0.0853 -0.009,0.17053 z m -0.19882,2.28586 c 0.25151,0.21645 0.50714,0.50835 0.38946,0.44931 -0.0406,-0.0196 -0.11351,-0.0918 -0.15415,-0.15743 -0.0406,-0.0623 -0.18665,-0.20661 -0.32456,-0.3214 -0.1338,-0.11149 -0.21508,-0.1902 -0.17851,-0.17381 0.0325,0.013 0.15414,0.10492 0.26777,0.20333 z m -11.26666,1.72834 c 0.12568,0.37059 0.0935,0.4001 -0.0609,0.0559 -0.0854,-0.1902 -0.1338,-0.45586 -0.0771,-0.40666 0.0124,0.007 0.0729,0.16726 0.13793,0.35092 z m 0.56395,1.46269 c 0,0.0163 -0.0245,-0.013 -0.0527,-0.0656 -0.0325,-0.0558 -0.0569,-0.12134 -0.0569,-0.14757 0,-0.0262 0.0284,0.003 0.0569,0.0656 0.0284,0.0623 0.0527,0.12791 0.0527,0.14759 z m 0.18664,0.43946 c -0.0245,0.0229 -0.0447,-0.007 -0.069,-0.1115 l -0.0245,-0.0984 0.0527,0.0984 c 0.0325,0.0525 0.0488,0.10492 0.0406,0.1115 z m -13.48587,2.41375 c 0.0569,0.0623 0.0569,0.0623 -0.009,0.0197 -0.0406,-0.0229 -0.0733,-0.059 -0.0733,-0.0787 0,-0.0196 0.005,-0.0262 0.0124,-0.0196 0.005,0.007 0.0366,0.0427 0.069,0.0787 z m 1.48084,1.67915 0.0731,0.0918 -0.085,-0.0623 c -0.0488,-0.0361 -0.0893,-0.0754 -0.0893,-0.0918 0,-0.0459 0.0284,-0.0295 0.10128,0.0623 z m -0.15008,0.2558 c -0.0124,0.01 -0.0366,-0.007 -0.0488,-0.0393 -0.0243,-0.0459 -0.0203,-0.0493 0.0203,-0.0196 0.0284,0.0229 0.0406,0.0492 0.0284,0.0591 z m 0.33269,0.32796 c 0.0527,0.0459 0.0771,0.082 0.0527,0.082 -0.0245,0 -0.0732,-0.0361 -0.10943,-0.082 -0.0366,-0.046 -0.0609,-0.082 -0.0527,-0.082 0.009,0 0.0569,0.0361 0.10943,0.082 z m 0.32052,0.36075 c -0.0123,0.007 -0.0651,-0.0328 -0.11758,-0.0918 l -0.0935,-0.10492 0.11758,0.0886 c 0.0609,0.0491 0.10535,0.0984 0.0934,0.10825 z m 0.32457,0.32467 c -0.0124,0.01 -0.0729,-0.0394 -0.13381,-0.10492 l -0.11758,-0.12135 0.13795,0.10492 c 0.073,0.0591 0.12567,0.11473 0.11351,0.12133 z m 0.40976,0.35749 c 0,0.046 -0.10943,-0.0361 -0.25153,-0.18695 l -0.12982,-0.13446 0.19073,0.14758 c 0.10535,0.0787 0.19071,0.15742 0.19071,0.17383 z m 25.39354,0.98057 c -0.005,0.13118 -0.005,0.13447 -0.0366,0.0491 -0.0325,-0.0852 -0.0158,-0.18694 0.0243,-0.18694 0.009,0 0.0158,0.0623 0.0123,0.13774 z m -23.33659,0.57065 c 0.009,0.0229 0.11759,0.0951 0.23938,0.16398 0.12166,0.0689 0.21914,0.13773 0.21914,0.15412 0,0.0197 -0.0325,0.01 -0.069,-0.0163 -0.0406,-0.0262 -0.25968,-0.16725 -0.48685,-0.31813 -0.22322,-0.14756 -0.42197,-0.2886 -0.43414,-0.31482 -0.0123,-0.0262 0.0974,0.0262 0.24344,0.12133 0.14608,0.0918 0.27588,0.18695 0.28805,0.20989 z m 23.37714,0.6428 c 0,1.72174 -0.44626,2.84335 -1.31449,3.28937 -0.10943,0.0591 -0.24749,0.11806 -0.30429,0.13119 -0.0569,0.013 0.009,-0.0295 0.14194,-0.095 0.46251,-0.22629 0.84388,-0.63296 0.95748,-1.02322 0.0243,-0.0886 0.085,-0.23612 0.13794,-0.32468 0.11758,-0.2099 0.18663,-0.47881 0.17852,-0.6887 -0.005,-0.0918 0.0123,-0.25909 0.0406,-0.37715 0.0325,-0.13119 0.0488,-0.40338 0.0406,-0.70511 -0.0124,-0.3673 0,-0.52145 0.0446,-0.61655 0.0325,-0.0657 0.0609,-0.12135 0.069,-0.12135 0.005,0 0.009,0.23942 0.009,0.5313 z M 119.841,170.7886 c 0.0973,0.0492 0.34485,0.16397 0.54364,0.25252 0.29617,0.12791 0.58422,0.26566 0.70594,0.33451 0.009,0.007 0.009,0.0165 -0.005,0.0262 -0.0325,0.0263 -1.49302,-0.65263 -1.49302,-0.69197 0,-0.0328 0.0769,-0.007 0.24749,0.0787 z m 6.02076,2.23665 c 0.0325,0.0427 -0.0203,0.0427 -0.10153,0 -0.0527,-0.0262 -0.0527,-0.0327 0.009,-0.0327 0.0366,0 0.081,0.013 0.0934,0.0327 z m 1.37131,0.35092 c -0.0284,0.007 -0.0768,0.007 -0.10152,0 -0.0284,-0.01 -0.009,-0.0165 0.0488,-0.0165 0.0569,0 0.0769,0.007 0.0527,0.0165 z m 4.58454,0.85268 c -0.0284,0.007 -0.0771,0.007 -0.10127,0 -0.0284,-0.01 -0.009,-0.0164 0.0485,-0.0164 0.0569,0 0.0772,0.007 0.0527,0.0164 z m 1.01429,0.13119 c -0.0284,0.007 -0.0852,0.007 -0.12166,0 -0.0406,-0.01 -0.0158,-0.0165 0.0488,-0.0165 0.069,0 0.0973,0.007 0.0729,0.0165 z"
       id="path4205"
       style="display:inline;fill:#ffffff;fill-opacity:1;stroke:#000000;stroke-width:1.96367;stroke-miterlimit:4;stroke-dasharray:none;stroke-opacity:1"
       class="area"
       title="" />
  </g>
  <g
     inkscape:groupmode="layer"
     id="Liver"
     inkscape:label="higado"
     style="display:inline"
     class="area"
     title="">
    <path
       d="m 133.03948,194.32305 c -0.30152,0.0432 -1.18335,0.25426 -1.64988,0.3982 -1.03543,0.32139 -2.42931,0.86829 -6.28666,2.47538 -2.23588,0.93068 -4.47746,1.84696 -4.97811,2.03886 -6.22978,2.38426 -9.11423,2.91197 -13.54047,2.4898 -3.10634,-0.29264 -6.701966,-1.06023 -15.47484,-3.28136 -4.164547,-1.05541 -4.887094,-1.22331 -6.144421,-1.43919 -3.311156,-0.56608 -6.24114,-0.5325 -8.98337,0.10068 -2.634142,0.60926 -4.909848,1.76059 -6.918163,3.502 -1.513351,1.30966 -2.577252,2.60494 -3.692339,4.48067 -1.575934,2.65771 -2.554494,5.55048 -2.975495,8.77906 -0.09677,0.72919 -0.09109,5.23863 0,6.98007 0.472208,8.57276 1.530414,15.02511 2.782048,16.968 0.199133,0.31185 0.694096,0.69082 1.001316,0.76759 0.415327,0.10561 1.354047,0.0719 2.019693,-0.0719 2.093666,-0.46056 5.518602,-2.01487 8.76149,-3.98177 l 0.915974,-0.55648 0.813572,0.0769 c 1.109412,0.10068 3.550107,0.0624 4.682276,-0.0769 5.069153,-0.60444 9.427137,-2.51377 12.425389,-5.44972 1.803499,-1.76541 2.969804,-3.84264 3.419254,-6.10216 0.0683,-0.3358 0.13655,-0.62844 0.14793,-0.64284 0.0228,-0.0384 0.665636,-0.11523 1.558856,-0.18709 3.37943,-0.28784 7.47002,-1.7654 12.11813,-4.37994 7.6464,-4.30315 15.77639,-11.24005 19.77595,-16.87687 0.92166,-1.30486 1.83195,-2.94553 2.13348,-3.857 0.17638,-0.54211 0.18205,-1.2665 0.0114,-1.53514 -0.15363,-0.24948 -0.38688,-0.43176 -0.67135,-0.5325 -0.22757,-0.0769 -0.93306,-0.12475 -1.25165,-0.0864 z"
       id="path3126"
       style="display:inline;fill:#ffffff;fill-opacity:1;stroke:#000000;stroke-width:2.005;stroke-miterlimit:4;stroke-dasharray:none;stroke-opacity:1"
       class="area"
       title="" />
  </g>
  <g
     inkscape:groupmode="layer"
     id="Kidney"
     inkscape:label="riñones"
     style="display:inline"
     class="area active"
     title="">
    <path
       d="m 136.29677,212.96394 c -0.0666,0.008 -0.30944,0.0351 -0.54746,0.0583 -1.32816,0.13223 -2.97051,0.59497 -4.56051,1.29494 -0.70931,0.3111 -1.19011,0.61442 -1.9375,1.22882 -2.65634,2.17768 -3.7322,4.64699 -3.11334,7.15519 0.19517,0.7894 0.76167,1.89768 1.35672,2.64431 0.79976,1.01105 1.93275,1.60991 3.56559,1.89769 l 0.40463,0.0739 -0.39035,0.16333 c -1.25676,0.53663 -1.94702,1.42714 -2.24693,2.91262 -0.0952,0.46665 -0.11902,0.62608 -0.29515,1.77714 -0.19995,1.32992 -0.45224,2.11934 -0.97114,2.99428 -0.16185,0.27611 -0.4094,0.71552 -0.54744,0.97218 -0.13806,0.25665 -0.61887,1.06939 -1.07111,1.80824 -0.82832,1.36103 -1.07111,1.85491 -1.24724,2.52765 -0.12854,0.50164 -0.11901,2.04155 0.0238,2.92429 l 0.10474,0.6533 -0.10474,0.29943 c -0.14281,0.40441 -0.15233,1.26771 -0.0238,1.76157 0.25707,0.96828 0.81404,1.71491 1.49002,1.98713 0.26659,0.10888 0.33799,0.12054 0.56173,0.1011 0.14283,-0.0117 0.32373,-0.0506 0.40464,-0.0855 0.6141,-0.25667 1.22345,-1.09662 1.39006,-1.90157 0.17137,-0.83997 0.23326,-1.48548 0.26182,-2.6871 0.01,-0.66496 0.0476,-1.3377 0.0714,-1.49714 0.0571,-0.31887 0.24279,-0.83218 0.38084,-1.05772 0.0476,-0.0778 0.13329,-0.3111 0.19042,-0.5172 0.21899,-0.83218 0.64742,-1.67602 1.18059,-2.3371 0.31895,-0.39275 0.91401,-0.98383 1.31389,-1.29882 l 0.26658,-0.21388 -0.35704,0.44331 c -0.5998,0.74274 -0.95209,1.39604 -1.15678,2.15045 -0.11901,0.45108 -0.11901,1.65269 0.004,2.14656 0.50937,2.06489 1.92798,4.10255 3.6465,5.23029 1.05206,0.69218 2.19458,1.11215 3.57035,1.31048 0.68074,0.10111 2.18028,0.10111 2.92768,0 1.18534,-0.15555 2.21361,-0.38887 3.38944,-0.76996 3.1419,-1.01495 5.80299,-3.2315 6.85981,-5.7086 0.41416,-0.97217 1.19488,-3.75646 1.55667,-5.54138 0.42369,-2.10379 0.56651,-3.4376 0.56651,-5.30805 0.004,-2.4771 -0.32372,-4.31256 -1.12347,-6.29969 -1.48527,-3.69814 -4.28918,-6.69631 -8.82113,-9.43785 -1.64712,-0.99549 -3.16094,-1.55936 -4.78426,-1.78101 -0.42843,-0.0583 -1.9375,-0.11278 -2.18981,-0.0739 z"
       id="path851-5"
       style="display:inline;mix-blend-mode:normal;fill:#ffffff;fill-opacity:1;stroke:#000000;stroke-width:2.005;stroke-miterlimit:4;stroke-dasharray:none;stroke-opacity:1"
       class="area"
       title="" />
  </g>
</svg>
