<?xml version="1.0" encoding="UTF-8"?>
<svg xmlns="http://www.w3.org/2000/svg" width="63.86765670776367" height="50.5070686340332" viewBox="77.50000370910577 200.9321352805012 63.86765670776367 50.5070686340332" preserveAspectRatio="none">
  <g>
    <defs>
      <path id="s-Path_1-550f5" d="M107.09112716156116 202.46750815770443 C106.46334294121404 202.55310577828408 105.86643335465449 202.68435546317286 105.3209814910742 202.86696372040944 C104.86815352885662 203.01533292941417 104.73950922140843 203.03245245353008 104.11172500106132 203.03245245353008 C102.27983006299924 203.03245245353008 100.61259983847083 203.44902754035104 99.0019731092196 204.31071025418618 C98.73953872202532 204.4476664471136 98.410209294958 204.58462264004106 98.26612767061602 204.60744867219563 C97.9007778374632 204.6588072445434 97.15464085426375 204.93271963039828 96.53200240621456 205.23516455644636 C95.73440770003585 205.6232071030741 95.68294997705657 205.64032662719003 95.14778965807213 205.70880472365374 C93.7790142268235 205.87999996481304 92.29703180502048 206.53054188121837 91.11350417649722 207.48352872367178 C90.96427677985733 207.60907190052194 90.62980158049206 207.7802671416812 90.31590947031849 207.90010381049274 C89.0860698911139 208.36233096162283 88.11351892680565 208.90444922529392 87.48573470645854 209.47510002915823 C87.35709039901036 209.59493669796973 87.01232365504924 209.86314257578596 86.71386886176946 210.07428337321576 C85.96773187857 210.61069512884822 85.3193645690312 211.2041719648671 84.71216343787577 211.91177896165885 C84.12554539591207 212.5908534182574 83.73961247356753 213.2014497783922 83.39484572960642 213.99465439576363 L83.15814020390177 214.54247916747337 L82.73618687547173 214.77644599705775 C82.50462712206502 214.90769568194654 82.19588078418938 215.12454298741497 82.05179915984742 215.26720568838107 C81.53207615775676 215.7750849038203 81.17701786919979 216.579702537269 81.1204143739226 217.37861366267902 L81.08953974013502 217.7837757334227 L80.7241899069822 218.21176383632093 C80.29194503395631 218.7139365437215 80.02951064676203 219.14192464661977 79.78251357646153 219.73540148263865 C79.61270309062992 220.14627006142098 79.35541447573357 221.12208293602896 79.35541447573357 221.3674627816906 C79.35541447573357 221.43023437011567 79.28337366356259 221.7155597720478 79.1907497621999 222.00088517398 C79.04666813785794 222.45740581707145 79.02608504866622 222.61148153411483 79.00550195947451 223.26202345052013 C78.99006464258073 223.8155547302685 79.00550195947451 224.13511918043253 79.07239699934757 224.51745521902163 C79.18045821760404 225.13946459523373 79.18560398990198 225.3220728524703 79.0981258608372 225.78430000360044 C79.03637659326208 226.09245143768715 79.04152236556001 226.1666360421895 79.10841740543306 226.36636382354203 C79.18045821760404 226.57179811293315 79.18560398990198 226.62315668528095 79.11356317773098 226.89136256309718 C79.00035618717659 227.31935066599542 79.04666813785794 228.0554902029804 79.21647862368954 228.59190195861285 C79.29366520815844 228.82586878819723 79.39143488181905 229.05983561778157 79.43260106020247 229.11119419012937 C79.47376723858589 229.16255276247716 79.54580805075688 229.33374800363646 79.59726577373614 229.48782372067984 C79.6435777244175 229.6418994377232 79.7207643088864 229.83021420299843 79.76707625956774 229.91010531553943 C79.81853398254701 229.98999642808042 79.87513747782421 230.22966976570345 79.89572056701593 230.4522235792105 C80.0603852805496 232.23265408726718 80.46175551978791 233.52803141203918 81.28507908745627 234.90900635739087 C81.92315485239924 235.97612336061712 82.55608484504428 236.63237178506108 83.17872329309347 236.87775163072274 C83.29193028364787 236.92340369503188 83.39999150190434 237.00900131561153 83.4308661356919 237.0717729040366 C83.52863580935252 237.2829137014664 84.00719263305976 237.79079291690564 84.29535588174367 237.9848141902195 C85.27819839064777 238.6467691227021 86.99688633815545 238.92638801659564 89.37423313979782 238.81225785582276 C90.42397068857497 238.76089928347497 92.52344578612927 238.54405197800656 93.27472854162664 238.41280229311775 C93.78415999912143 238.32149816449947 93.78415999912143 238.32149816449947 94.05174015861365 238.7380732513204 C94.18553023835975 238.95492055678886 94.46854771474575 239.35437611949385 94.67952437896076 239.6339950133874 C94.89050104317579 239.90790739924228 95.1426438857742 240.29594994587 95.24041355943483 240.48426471114522 C95.54401412501254 241.07774154716412 95.84246891829231 241.5000231420237 96.31587996970161 242.00790235746297 C96.83560297179226 242.55572712917268 97.32959711239327 242.93806316776178 98.00883905571966 243.30327968223494 C98.2609818983181 243.44594238320104 98.63662327606679 243.69702873690133 98.83216262338802 243.8682239780606 C99.22838709032841 244.21061446037922 99.84587976607968 244.57012446681375 100.3244365897869 244.72990669189574 C100.56628788778949 244.80979780443676 100.7978476411962 244.83262383659132 101.4050487723516 244.82691732855267 C102.10487380486971 244.82121082051404 102.23351811231788 244.8040912963981 102.7841157481961 244.6443090713161 C103.11859094756137 244.54159192662053 103.44277460233077 244.43316827388628 103.50452386990591 244.39892922565443 C103.5611273651831 244.35898366938392 103.94706028752765 244.29621208095884 104.35872207136183 244.25626652468836 C106.679465377727 244.01659318706533 108.1202816211466 243.22338856969395 108.71719120770616 241.85382664041958 C108.90243901043154 241.43154504555997 108.9333136442191 241.3915994892895 109.09797835775277 241.35736044105764 C109.19574803141339 241.33453440890304 109.45818241860768 241.25464329636205 109.67430485512061 241.17475218382106 C109.8955730639315 241.09486107128004 110.09625818355065 241.04350249893224 110.11684127274236 241.06062202304818 C110.142570134232 241.07774154716412 110.17859054031749 241.17475218382106 110.19917362950919 241.271762820478 C110.25577712478639 241.5799142545647 110.77550012687705 242.7040963381774 111.05851760326304 243.10925840892108 C111.41872166411794 243.6399636565149 111.8458207648459 244.00518017098807 112.55593734195985 244.39892922565443 C114.01219090227325 245.20925336714174 114.78920251926026 246.03669703274502 116.94013533979383 249.0725593093032 C117.6914180952912 250.13396980449085 117.56791956014094 250.08261123214302 118.27289036495698 249.64891662120615 C118.51988743525749 249.4948409041628 118.74115564406834 249.36929772731264 118.76173873326006 249.36929772731264 C118.81319645623933 249.36929772731264 119.83720514352686 248.61603866621175 120.0173071739543 248.44484342505243 L120.15624302599832 248.31359374016364 L119.64166579620561 247.62881277552646 C119.18883783398802 247.0239229234303 119.04475620964605 246.78995609384592 119.17854628939216 246.88126022246422 C119.29689905224448 246.96685784304387 120.62450830510971 247.32066134143975 121.13908553490243 247.40625896201936 C121.85949365661223 247.53180213886952 123.09447900811476 247.54321515494684 123.73770054535566 247.4347915022126 C124.73083459885561 247.26930276909195 125.84746718750581 246.8127821260005 126.66564498287623 246.24213132213617 C126.83545546870783 246.11658814528602 127.44265659986324 245.7570781388515 128.01383732493315 245.44322019672614 C129.34659235009633 244.69566764366385 129.83029494610147 244.33615763722935 130.02068852112478 243.93670207452433 C130.06185469950822 243.84539794590603 130.2522482745315 243.69132222886267 130.5198284340237 243.52583349574203 C131.4666505368423 242.95518269187772 132.408326867363 242.1733910905836 133.21106734583964 241.29458885263256 C133.62272912967381 240.84377471757972 133.89030928916603 240.31306946998592 134.034390913508 239.63970152142605 C134.1527436763603 239.08617024167762 134.14245213176446 237.68807577221008 134.01380782431627 236.87204512268409 C133.9572043290391 236.5410676564428 133.92632969525152 236.25574225451064 133.93662123984737 236.22720971431744 C133.94691278444324 236.20438368216284 134.01380782431627 236.1872641580469 134.08584863648724 236.1872641580469 C134.29682530070227 236.1872641580469 135.2899593542022 235.92476478826933 135.65016341505714 235.77068907122595 C136.51979893340683 235.40547255675278 137.05495925239126 235.034549534241 137.66216038354668 234.3611815856811 C138.31567346538344 233.64786808085069 138.7479183384093 232.8546634634793 139.07724776547667 231.7818399522144 C139.16987166683936 231.47368851812763 139.2727871127979 231.07993946346127 139.30366174658545 230.8973312062247 C139.33968215267095 230.71472294898808 139.4477433709274 230.41798453097866 139.55065881688594 230.23537627374208 C139.64842849054656 230.05847452454415 139.76163548110094 229.77314912261198 139.79765588718647 229.61336689753 C139.9211544223367 229.0883681579748 139.87998824395328 228.23809846021697 139.68444889663203 227.35929622226593 C139.61240808446107 227.03402526406325 139.61240808446107 226.99407970779276 139.6947404412279 226.8171779585948 C139.74619816420716 226.70875430586062 139.7925101148885 226.45196144412165 139.80794743178228 226.20087509042136 C139.8439678378678 225.48756158559098 139.60211653986522 224.95114982995852 138.79937606138856 223.96392393927323 L138.39800582215025 223.46175123187265 L138.2796530592979 222.89110042800831 C138.07896793967876 221.90387453732305 137.70332656193008 221.13920246014487 137.04981348009335 220.39164990708264 L136.69475519153633 219.9921943443776 L136.6638805577488 219.5299671932475 C136.61756860706743 218.89083829291945 136.42717503204415 218.4457306659053 136.0052217036141 218.01774256300706 C135.8354112177825 217.8408408138091 135.57297683058823 217.61828700030202 135.42889520624624 217.52698287168374 C135.1870439082437 217.3729071546404 135.15616927445612 217.32725509033122 134.9297552933473 216.77372381058285 C134.80111098589913 216.44845285238017 134.5849885493862 216.00334522536602 134.456344241938 215.7750849038203 C134.17847253784996 215.30715124465155 133.58156295129038 214.5881312317825 133.1493180782645 214.21150170123207 C132.98979913702874 214.07454550830462 132.81484287889924 213.92046979126127 132.76338515591996 213.87481772695213 C132.70163588834484 213.81775264656568 132.65017816536556 213.6579704214837 132.6141577592801 213.38976454366747 C132.45978459034228 212.23704991986153 131.6158779334822 211.23270450506033 130.11845819478538 210.40526083945707 C129.8354407183994 210.2511851224137 129.54727746971548 210.102815913409 129.47523665754449 210.07998988125442 C129.40834161767145 210.05716384909982 128.9915340615393 209.6291757462016 128.5489976439176 209.1384160548783 C127.16478489577517 207.57483285229006 125.77542637533483 206.49059632494786 124.00528070484788 205.59467456288087 C123.74284631765357 205.46342487799208 123.4598288412676 205.29222963683281 123.37235071220282 205.22375154036908 C123.09962478041268 204.9897847107847 122.45640324317179 204.69304629277525 122.08590763772104 204.6302747043502 C121.89036829039979 204.59603565611832 121.53016422954491 204.57320962396375 121.28316715924439 204.5789161320024 L120.83548496932472 204.59603565611832 L120.56275903753458 204.31071025418618 C120.00701562935845 203.72864643424458 119.19912937858388 203.32919087153954 118.31405654334039 203.19794118665075 C117.82006240273937 203.1237565821484 116.43070388229903 203.15799563038024 115.88010624642082 203.26071277507583 C115.5559225916514 203.32348436350088 115.52504795786385 203.31777785546225 115.27290511526542 203.17511515449618 C114.91784682670843 202.97538737314366 114.42385268610742 202.86696372040944 113.88354659482508 202.8612572123708 C113.64169529682249 202.85555070433216 113.26090814677588 202.8327246721776 113.03449416566707 202.80419213198437 C112.80808018455829 202.77565959179117 112.01048547837956 202.72430101944337 111.2592027228822 202.6900619712115 C110.50791996738482 202.65582292297967 109.62284713214135 202.59305133455456 109.28837193277607 202.54169276220676 C108.50621454349115 202.43326910947258 107.57997552986426 202.3990300612407 107.09112716156116 202.46750815770443 Z "></path>
    </defs>
    <g style="mix-blend-mode:normal">
      <use xmlns:xlink="http://www.w3.org/1999/xlink" xlink:href="#s-Path_1-550f5" fill="#E2202C" fill-opacity="1.0" stroke-width="2.0" stroke="#000000" stroke-linecap="butt"></use>
    </g>
  </g>
</svg>
