<?xml version="1.0" encoding="UTF-8"?>
<svg xmlns="http://www.w3.org/2000/svg" width="40.617496490478516" height="63.007083892822266" viewBox="90.4999999133279 364.932131333278 40.617496490478516 63.007083892822266" preserveAspectRatio="none">
  <g>
    <defs>
      <path id="s-Path_3-550f5" d="M104.46991160657929 366.6946737550282 C103.93938237088214 367.0416048123409 103.6785388299977 367.2807059464348 103.58127513678657 367.50574230793495 C103.50611682839615 367.6838960941226 103.50611682839615 367.7026491242476 103.57685405982242 367.81516730499766 C103.65201236821285 367.9370620008103 103.83769760070686 368.04489192402906 104.05433037194986 368.0964627568729 C104.69980760871472 368.23711048281046 105.23917899834015 370.06553091999916 105.42486423083415 372.7331494552822 C105.46465392351143 373.37075247953265 105.46465392351143 373.487958917814 105.41160099994173 373.5020236904077 C105.17286284387801 373.5864123259703 104.08085683373471 374.2240153502207 103.73601283053156 374.48186951443967 C103.18779928697785 374.89443617718996 102.28147850932856 375.8555289710968 101.95873989094613 376.3712372995347 C101.62273804167127 376.9103869156288 101.29115726936055 377.64175509050426 101.09662988293826 378.2793581147547 C101.00820834365541 378.5747183392237 100.93305003526498 378.8044429582551 100.92862895830083 378.79975470072384 C100.91094465044426 378.7716251555363 101.0391558824044 377.50579562209793 101.1098931138307 377.0275933539101 C101.14968280650798 376.75567441709745 101.22926219186255 376.28684866397214 101.2867361923964 375.97742366690943 C101.34421019293026 375.672686927378 101.39284203953584 375.3726384453778 101.39284203953584 375.3070028399402 C101.39284203953584 375.2460554920339 101.44589496310556 375.11478428115885 101.50779004060355 375.0163308730025 C101.82610758202185 374.50531080209595 101.6050537338147 374.0646145941581 100.8534706499104 373.70361876425164 C100.29199387546426 373.43169982743893 99.32819909728111 373.2347930111263 98.57661601337682 373.23010475359507 C98.03724462375139 373.23010475359507 97.24145077020566 373.3566877069389 96.77281661200652 373.5160884630015 C96.2864981459508 373.68017747659536 95.76923214114608 374.02242027637686 95.60123121650865 374.2943392131895 C95.45975675365608 374.5240638322209 95.45975675365608 374.85224185940865 95.59238906258037 375.5226626863779 C95.71617921757637 376.13682442297204 95.97260168149666 378.03556872312953 96.06102322077952 378.99666151703644 C96.39702507005437 382.5831785284451 96.29091922291495 385.80401145241603 95.76481106418194 388.0684398400113 L95.6675473709708 388.48569476029286 L95.42438813794294 388.6404072588242 C95.14586028920193 388.8138727874806 94.43406689797493 389.5499292198873 94.04059104816622 390.06094929079387 C92.96184826891535 391.47680306523233 92.32521318607877 393.0754988833897 92.05552749126606 395.05394356157854 C91.97152702894734 395.68217007076646 91.98479025983977 397.4871492202989 92.08205395305092 398.2185173951744 C92.2456338007242 399.46090564095647 92.57721457303492 400.8720711578637 92.97069042284363 402.0160059954894 C93.31553442604678 403.0052283345839 93.82395827692321 404.22886355024093 94.15996012619807 404.86646657449137 L94.4826987445805 405.47594005355427 L94.5534359760068 406.1698021681798 C94.7921741320705 408.38265972293124 95.56586260079551 410.7174119734953 96.76397445807824 412.8271278625592 L97.06018661467581 413.3475244485283 L97.06018661467581 414.5852244367792 C97.06018661467581 418.02171720718775 96.8214484586121 421.4488334625338 96.42355153183924 423.86328609112917 C96.30860353077152 424.54308343316086 96.32186676166394 424.66028987144216 96.50755199415795 424.66028987144216 C96.56502599469181 424.66028987144216 96.72860584236508 424.58058949341086 96.87008030521767 424.4774478277233 C97.80734862161596 423.82109177334786 99.13367171085882 423.4366546557851 100.15494048957584 423.53510806394144 C100.88883926562355 423.60074366937897 101.27789403846812 423.7460796528478 101.88800265951984 424.17739934572313 C102.42295297218114 424.55714820575463 103.13032528644399 425.4479171366927 103.56801190589414 426.29649174984957 C103.656433445177 426.4699572785059 103.79348683106542 426.4887103086309 103.85538190856343 426.33399781009956 C103.89075052427657 426.25429743206826 103.87748729338415 426.18397356909946 103.79790790802957 426.0198845555056 C103.50611682839615 425.42447584903647 102.52905881932055 421.2753679338774 102.2549520475437 419.46101226928243 C102.21958343183056 419.24066416531355 102.19747804700984 419.0531338640634 102.20632020093814 419.04844560653214 C102.21516235486641 419.0390690914696 102.48042697271498 419.2219111351885 102.80316559109741 419.46101226928243 C104.65117576210915 420.8206069533459 107.57792871237173 422.3442906510031 110.1421533515746 423.27256564219124 C110.80531489619604 423.5163550338164 112.4190079881082 424.027375104723 113.15290676415592 424.23365843609815 C114.48365093036293 424.60403078106714 116.78261095171723 425.0916095643175 118.25925065774095 425.3166459258176 C118.45377804416324 425.34477547100516 118.83399066307953 425.4197875915052 119.0992552809281 425.4807349394115 C120.98705514461712 425.916742889818 123.29927839686385 425.9261194048805 124.87760287306287 425.4994879695365 C126.06245149945315 425.1806864574113 127.06161489334944 424.61340729612965 127.58772305208245 423.952362984223 C128.4586752140186 422.85999897944095 129.1483632204249 420.5533762740644 129.44015430005834 417.7451100128438 C129.59931307076747 416.230802830249 129.62141845558818 415.7901066223112 129.61699737862403 413.9007388372162 C129.61257630165989 410.989330910308 129.41362783827347 408.8186676733378 128.90962506436117 406.25887906127355 C128.23762136581146 402.85989235111504 127.02182520067217 399.4796586710815 125.62034380303886 397.1074003602674 C125.42581641661658 396.77922233307964 125.35507918519029 396.6151333194858 125.33297380036959 396.4276030182357 C125.26665764590743 395.86970037201655 124.99255087413059 394.4397818249843 124.80686564163658 393.6709075898588 C123.9447556336287 390.08439057845015 122.65822223706313 387.62774363207353 121.01358160640197 386.44630273419773 C120.66873760319882 386.1978250850413 120.11168190571682 385.92121789069733 119.71820605590811 385.7993231948848 L119.4087306684181 385.7055580442597 L120.08073436696782 385.7055580442597 C121.3672677635334 385.6961815291972 123.08264562562084 386.0290478139162 124.19675702058485 386.49318530951024 C124.42665302272029 386.59163871766657 124.43107409968444 386.59163871766657 124.38244225307885 386.4978735670415 C124.33823148343743 386.41348493147893 124.34265256040158 386.4087966739477 124.44875840754099 386.450990991729 C124.53275886985972 386.4838087944477 124.603496101286 386.47912053691647 124.7051808714613 386.43223796160396 C125.00139302805886 386.30565500826015 125.25781549197914 385.8415175126661 125.53634334072015 384.94137206666545 C126.08455688427387 383.17389897738303 125.99613534499102 381.59864444688196 125.31086841554887 380.80632892410017 C125.18265718358872 380.66099294063133 125.15170964483971 380.59066907766254 125.18707826055285 380.5531630174125 C125.284341953764 380.45002135172496 124.87760287306287 380.4265800640687 123.18875147276027 380.43126832159993 C121.47337361067284 380.4359565791312 120.69084298801954 380.48752741197495 119.49715220770096 380.6656811981626 C119.05504451128667 380.7313168036001 118.00282819382066 380.93760013497524 117.83482726918324 380.98917096781906 C117.77735326864938 381.00792399794403 117.75524788382866 380.9422883925065 117.71103711418723 380.62817513791254 C117.47672003508767 378.95915545678645 116.8621903370718 377.1776175949102 116.1503969458448 376.1086948777845 C115.8011318656775 375.5882982918154 115.1821810906975 374.9272539799087 114.72681016339078 374.5896994376585 C114.5322827769685 374.44905171172087 114.07691184966178 374.17244451737696 113.70996246163793 373.98022595859555 L113.04237984005235 373.6286066437516 L113.0468009170165 373.37075247953265 C113.05564307094477 372.97225058937613 113.29880230397264 372.5174896088446 114.13438585019564 371.3688665136876 C114.4703876994705 370.9094172756248 114.54554600786092 370.7218869743746 114.41733477590078 370.67031614153086 C114.38196616018764 370.6562513689371 114.27143923608406 370.6890691716559 114.16975446590878 370.7453282620309 C114.06364861876935 370.80158735240593 113.95312169466578 370.82971689759347 113.90006877109607 370.8156521249997 C113.85143692449049 370.7968990948747 113.70112030770963 370.6046805360933 113.56848799878534 370.38902068965564 C113.29438122700849 369.9530127392491 113.17501214897663 369.8311180434365 112.93185291594878 369.75610592293646 C112.68869368292091 369.67640554490515 112.53837706614006 369.746729407874 112.37037614150262 370.0139600871554 C112.11395367758234 370.4124619773119 111.91058413723177 371.30323090825004 111.80889936705648 372.4940483211883 C111.77353075134334 372.87379718121986 111.73816213563019 373.20197520840753 111.7204778277736 373.2160399810013 C111.68068813509635 373.2582342987826 111.21647505386133 373.13633960297 110.95121043601276 373.01444490715744 C110.79647274226775 372.9394327866574 110.7080512029849 372.8691089236886 110.6771036642359 372.78472028812604 C110.5842610479889 372.52217786637584 110.63289289459448 371.64078545050023 110.81415705012434 370.21086690346806 C110.92910505119204 369.3341627451237 110.96005258994104 369.39979835056124 110.38531258460247 369.24977410956114 C109.92552058033161 369.12787941374853 109.41709672945518 369.1138146411548 109.22256934303289 369.21695630684235 C108.92193610947118 369.3810453204362 108.8423567241166 369.8733123612178 108.88214641679389 371.23759530281245 C108.89983072465046 371.75330363125033 108.89983072465046 372.2408824145007 108.88214641679389 372.32527105006324 L108.85561995500903 372.4706070335321 L108.69646118429989 372.37215362537574 C108.45330195127202 372.2174411268444 108.09519471717645 372.2408824145007 107.56024440451516 372.44247748834454 C107.3170851714873 372.53155438143835 107.08718916935187 372.6206312745322 107.04297839971045 372.6393843046572 C106.98108332221246 372.6675138498447 106.96782009132002 372.6206312745322 106.94129362953517 372.25963544462564 C106.82634562846745 370.61874530868704 106.49034377919259 369.25915062462366 105.88023515814086 367.95581503093524 C105.5530754627943 367.26664117384104 105.02696730406129 366.432131333278 104.92086145692187 366.432131333278 C104.88991391817287 366.432131333278 104.68654437782229 366.5493377715593 104.46991160657929 366.6946737550282 Z M119.44409928413124 381.13919520881916 C119.41315174538224 381.1485717238817 119.36009882181253 381.1485717238817 119.33357236002767 381.13919520881916 C119.30262482127867 381.1251304362254 119.32473020609939 381.1157539211629 119.38662528359738 381.1157539211629 C119.44852036109539 381.1157539211629 119.47062574591611 381.1251304362254 119.44409928413124 381.13919520881916 Z M110.64173504852276 381.71585088516326 C111.14573782243505 382.5831785284451 111.68510921206047 383.63334821544584 111.83100475187719 384.0552913932586 L111.87521552151861 384.1771860890712 L111.73816213563019 384.0365383631336 C111.30489659314418 383.6052186702583 110.8008938192319 382.6441258763514 110.41183904638733 381.52832058391317 C110.24825919871404 381.0548065732566 110.26594350657061 381.06887134585037 110.64173504852276 381.71585088516326 Z M109.79288827140732 381.5048792962569 C109.79288827140732 381.54238535650694 109.76194073265833 381.5752031592257 109.72657211694518 381.5752031592257 C109.65583488551889 381.5752031592257 109.63815057766232 381.51894406885066 109.69120350123204 381.4673732360069 C109.73983534783761 381.4111141456318 109.79288827140732 381.42986717575684 109.79288827140732 381.5048792962569 Z M108.5549867214473 382.5128546654763 C108.5549867214473 382.5362959531326 108.5328813366266 382.5597372407889 108.50635487484175 382.5597372407889 C108.48424949002103 382.5597372407889 108.47540733609274 382.5362959531326 108.48867056698518 382.5128546654763 C108.5019337978776 382.4847251202888 108.52403918269832 382.4659720901638 108.53730241359074 382.4659720901638 C108.54614456751902 382.4659720901638 108.5549867214473 382.4847251202888 108.5549867214473 382.5128546654763 Z M109.47457072998904 386.09937167688497 C109.82825688712046 386.2165781151663 109.72657211694518 386.23064288776004 109.30214872838746 386.1275012220725 C109.09877918803689 386.0759303892287 108.8733042628656 386.0243595563849 108.79814595447517 386.01029478379115 C108.72740872304888 386.0009182687287 108.79372487751104 385.9962300111974 108.95288364822017 386.0056065262599 C109.11204241892932 386.0149830413224 109.34635949802889 386.0571773591037 109.47457072998904 386.09937167688497 Z M119.84641728786825 387.6324318896048 C120.10726082875269 387.84340347851116 120.1205240596451 387.85746825110493 120.06305005911125 387.85746825110493 C120.03210252036226 387.85746825110493 119.91715451929454 387.7730796155424 119.80662759519096 387.6699379498548 C119.5634683621631 387.44490158835464 119.58557374698383 387.42146030069836 119.84641728786825 387.6324318896048 Z M120.7792645273024 388.51382430548034 C120.8500017587287 388.59352468351165 120.8500017587287 388.6075894561054 120.79252775819484 388.58414816844913 C120.75273806551753 388.56539513832416 120.70852729587611 388.52320082054285 120.69526406498369 388.48569476029286 C120.66431652623469 388.39661786719904 120.68642191105539 388.4013061247303 120.7792645273024 388.51382430548034 Z M122.08348223172455 390.3891273179816 C122.13653515529427 390.49695724120045 122.13653515529427 390.5016454987317 122.07021900083213 390.4406981508254 C122.0260082311907 390.40788034810663 121.9950606924417 390.34693300020035 121.9950606924417 390.30473868241904 C121.9950606924417 390.2203500468565 122.00832392333412 390.229726561919 122.08348223172455 390.3891273179816 Z M104.089698987663 391.5940095035137 C104.04106714105743 391.673709881545 104.04106714105743 391.673709881545 104.06317252587814 391.5940095035137 C104.07643575677058 391.5471269282011 104.089698987663 391.4814913227636 104.09412006462715 391.4533617775761 C104.09412006462715 391.4111674597948 104.10296221855543 391.4111674597948 104.11622544944785 391.4533617775761 C104.12948868034029 391.48617958029484 104.11622544944785 391.5471269282011 104.089698987663 391.5940095035137 Z M122.68474869884798 391.87530495538886 L122.74664377634599 392.100341316889 L122.65822223706313 391.9831348786077 C122.60959039045756 391.91749927317016 122.56980069778027 391.80498109242006 122.56980069778027 391.72996897192 C122.56980069778027 391.5471269282011 122.6051693134934 391.5940095035137 122.68474869884798 391.87530495538886 Z M93.21827073283563 393.16926403401476 C93.17405996319421 393.211458351796 93.16963888623006 393.20677009426475 93.19616534801492 393.1411344888272 C93.20942857890735 393.0942519135147 93.2359550406922 393.0708106258584 93.24921827158464 393.0848753984522 C93.26248150247707 393.09894017104597 93.24921827158464 393.13644623129596 93.21827073283563 393.16926403401476 Z M103.55916975196585 394.5663647783282 C103.39116882732843 395.79937650904776 103.17011497912128 398.45293027173705 103.15685174822886 399.47497041355024 C103.14800959430056 399.8265897283942 103.14800959430056 399.83127798592545 103.11706205555157 399.60155336689405 C103.03306159323284 399.0295859480812 103.09495667073085 397.4355783874551 103.24969436447586 396.12286627870424 C103.33369482679457 395.4290041640788 103.59895944464314 393.88656743629645 103.62990698339215 393.91938523901524 C103.63874913732043 393.92876175407775 103.60780159857143 394.21943372101543 103.55916975196585 394.5663647783282 Z M123.18433039579614 394.8664132603284 C123.18875147276027 394.9461136383597 123.17990931883199 394.9461136383597 123.14454070311885 394.88985454798467 C123.12243531829813 394.8523484877346 123.10475101044156 394.7257655343908 123.10475101044156 394.60855909610945 L123.10917208740571 394.39758750720307 L123.14896178008298 394.5851178084532 C123.16664608793957 394.68825947414075 123.18433039579614 394.8148424274846 123.18433039579614 394.8664132603284 Z M92.87342672963248 395.22740909023486 C92.90437426838149 395.2461621203599 92.89995319141735 395.2836681806099 92.8645845757042 395.33055075592245 C92.7717419594572 395.44775719420375 92.74521549767235 395.41962764901626 92.76732088249307 395.22740909023486 C92.77616303642135 395.1336439396098 92.79384734427792 395.0867613642973 92.80711057517036 395.1242674245473 C92.82037380606278 395.1617734847973 92.85132134481178 395.2086560601099 92.87342672963248 395.22740909023486 Z M122.98980300937384 398.6639018606434 C122.97211870151727 398.7811082989248 122.9455922397324 398.8701851920186 122.93675008580414 398.8561204194248 C122.92348685491169 398.84205564683106 122.92790793187585 398.7342257236122 122.9455922397324 398.6170192853309 C122.95885547062485 398.4951245895183 122.9853819324097 398.40604769642454 122.99864516330213 398.4201124690183 C123.00748731723041 398.434177241612 123.00306624026626 398.54200716483086 122.98980300937384 398.6639018606434 Z M122.77317023813083 401.9316173599269 C123.0472770099077 402.2410423569896 123.32580485864871 402.6582972772711 123.19759362668856 402.57390864170856 C123.15338285704713 402.5457790965211 123.07380347169257 402.4426374308335 123.02959270205113 402.3488722802084 C122.9853819324097 402.2597953871146 122.82622316170055 402.0535120557395 122.6759065449197 401.8894230421456 C122.53001100510298 401.730022286083 122.44158946582013 401.61750410533296 122.48137915849742 401.6409453929892 C122.51674777421056 401.6596984231142 122.64938008313484 401.7909696339893 122.77317023813083 401.9316173599269 Z M110.49583950870604 404.4023290788973 C110.63289289459448 404.9321021799289 110.59752427888132 404.9742964977102 110.4295233542439 404.4820294569286 C110.3366807379969 404.2101105201159 110.28362781442719 403.8303616600844 110.34552289192519 403.9006855230532 C110.3587861228176 403.9100620381157 110.42510227727976 404.1397866571471 110.49583950870604 404.4023290788973 Z M111.1103692067219 406.4932919378362 C111.1103692067219 406.5167332254925 111.08384274493704 406.4745389077112 111.05289520618804 406.39952678721113 C111.0175265904749 406.3198264091799 110.99100012869005 406.2260612585548 110.99100012869005 406.18855519830475 C110.99100012869005 406.1510491380547 111.02194766743904 406.193243455836 111.05289520618804 406.28232034892983 C111.08384274493704 406.37139724202365 111.1103692067219 406.4651623926487 111.1103692067219 406.4932919378362 Z M111.31373874707248 407.12151844702413 C111.28721228528761 407.1543362497429 111.26510690046692 407.1121419319616 111.23858043868205 406.9621176909615 L111.2120539768972 406.82146996502394 L111.26952797743104 406.9621176909615 C111.30489659314418 407.03712981146157 111.32258090100076 407.1121419319616 111.31373874707248 407.12151844702413 Z M96.61807891826152 410.57207599002646 C96.67997399575952 410.6611528831203 96.67997399575952 410.6611528831203 96.60923676433323 410.60020553521395 C96.56502599469181 410.5673877324952 96.52965737897865 410.51581689965144 96.52965737897865 410.4876873544639 C96.52965737897865 410.45955780927636 96.5340784559428 410.45018129421385 96.54292060987109 410.45955780927636 C96.54734168683524 410.4689343243389 96.58271030254838 410.5205051571827 96.61807891826152 410.57207599002646 Z M98.23177201017367 412.97246384602806 L98.31135139552825 413.10373505690313 L98.21850877928125 413.0146581638094 C98.16545585571153 412.96308733096555 98.1212450860701 412.9068282405905 98.1212450860701 412.88338695293425 C98.1212450860701 412.8177513474967 98.1521926248191 412.841192635153 98.23177201017367 412.97246384602806 Z M98.06819216250038 413.3381479334658 C98.05492893160796 413.35221270605956 98.02840246982309 413.32877141840333 98.01513923893067 413.28188884309077 C97.98861277714582 413.21625323765323 97.99303385410995 413.211564980122 98.03724462375139 413.2537592979033 C98.06819216250038 413.286577100622 98.08145539339282 413.3240831608721 98.06819216250038 413.3381479334658 Z M98.4307204735601 413.8069736865911 C98.48819447409396 413.87260929202864 98.51472093587881 413.92418012487246 98.48819447409396 413.92418012487246 C98.4616680123091 413.92418012487246 98.4086150887394 413.87260929202864 98.3688253960621 413.8069736865911 C98.32903570338482 413.7413380811536 98.30250924159996 413.6897672483098 98.31135139552825 413.6897672483098 C98.32019354945653 413.6897672483098 98.37324647302624 413.7413380811536 98.4307204735601 413.8069736865911 Z M98.77998555372739 414.322682015029 C98.76672232283497 414.3320585300915 98.70924832230111 414.2757994397164 98.65177432176725 414.1914108041539 L98.55008955159197 414.04138656315376 L98.6783007835521 414.16796951649764 C98.74461693801425 414.2382933794664 98.79324878461982 414.3086172424352 98.77998555372739 414.322682015029 Z M99.13367171085882 414.78681951062305 C99.12040847996639 414.8008842832168 99.05409232550426 414.730560420248 98.98777617104211 414.63679526962295 L98.85956493908196 414.46332974096657 L99.00988155586282 414.61335398196667 C99.0894609412174 414.69774261752923 99.14693494175125 414.77744299556053 99.13367171085882 414.78681951062305 Z M99.58020048423725 415.2978395815296 C99.58020048423725 415.3634751869672 99.4608314062054 415.24626874868585 99.3060937124604 415.0306089022482 L99.16461924960782 414.8383903434668 L99.37240986692254 415.0493619323732 C99.48735786799026 415.1618801131233 99.58020048423725 415.2743982938734 99.58020048423725 415.2978395815296 Z M127.25172120280759 416.6996285833743 C127.24730012584345 416.88715888462445 127.24730012584345 416.8918471421557 127.21193151013031 416.7699524463431 C127.17656289441716 416.64805775053054 127.19424720227374 416.5027217670617 127.23845797191517 416.5027217670617 C127.24730012584345 416.5027217670617 127.25614227977172 416.5917986601555 127.25172120280759 416.6996285833743 Z M101.8216865050577 417.5153853938124 C101.83052865898598 417.5482031965312 101.94989773701785 417.6513448622187 102.08253004594214 417.74979827037504 C102.21516235486641 417.84825167853137 102.32126820200584 417.94670508668764 102.32126820200584 417.9701463743439 C102.32126820200584 417.99827591953147 102.2858995862927 417.9842111469377 102.24610989361541 417.94670508668764 C102.20189912397399 417.90919902643765 101.96316096791027 417.7076039525938 101.71558065791827 417.4919441061561 C101.47242142489041 417.2809725172497 101.25578865364741 417.07937744340586 101.24252542275498 417.0418713831558 C101.22926219186255 417.00436532290576 101.34863126989441 417.07937744340586 101.50779004060355 417.2153369118122 C101.6669488113127 417.34660812268726 101.80842327416526 417.4825675910936 101.8216865050577 417.5153853938124 Z M127.29593197244903 418.434283869938 C127.29593197244903 420.8956190738459 126.8096135063933 422.4990031495345 125.86350303606673 423.1366061737849 C125.74413395803487 423.2209948093475 125.59381734125401 423.30538344491003 125.531922263756 423.32413647503506 C125.47002718625801 423.34288950516003 125.5407644176843 423.28194215725375 125.686659957501 423.1881770066287 C126.1906627314133 422.86468723697226 126.60624396604273 422.28334330309684 126.73003412103873 421.7254406568777 C126.7565605828236 421.5988577035339 126.82287673728574 421.38788611462746 126.8803507378196 421.26130316128365 C127.00856196977973 420.96125467928346 127.08372027817015 420.5768175617207 127.07487812424188 420.27676907972045 C127.07045704727773 420.1454978688454 127.0881413551343 419.90639673475147 127.1190888938833 419.7376194636264 C127.15445750959645 419.55008916237625 127.17214181745302 419.16096378728224 127.16329966352473 418.7296440944069 C127.1500364326323 418.2045592509066 127.16329966352473 417.9842111469377 127.21193151013031 417.84825167853137 C127.24730012584345 417.7544865279063 127.27824766459244 417.674786149875 127.28708981852074 417.674786149875 C127.29151089548489 417.674786149875 127.29593197244903 418.0170289496565 127.29593197244903 418.434283869938 Z M104.22675237355143 419.3062997707511 C104.33285822069087 419.3766236337199 104.60254391550357 419.54071264731374 104.81917668674657 419.66729560065755 C105.141915305129 419.85013764437645 105.45581176958315 420.0470444606891 105.58844407850744 420.1454978688454 C105.59728623243572 420.1548743839079 105.59728623243572 420.16893915650166 105.5840230015433 420.18300392909543 C105.54865438583016 420.22050998934543 103.95706667873871 419.25004068037606 103.95706667873871 419.193781590001 C103.95706667873871 419.1468990146885 104.04106714105743 419.18440507493847 104.22675237355143 419.3062997707511 Z M110.78763058833948 422.50369140706573 C110.82299920405262 422.564638754972 110.76552520351876 422.564638754972 110.6771036642359 422.50369140706573 C110.61962966370204 422.4661853468157 110.61962966370204 422.4568088317532 110.68594581816419 422.4568088317532 C110.72573551084147 422.4568088317532 110.77436735744705 422.4755618618782 110.78763058833948 422.50369140706573 Z M112.28195460221977 423.00533496290984 C112.25100706347077 423.01471147797236 112.19795413990104 423.01471147797236 112.1714276781162 423.00533496290984 C112.1404801393672 422.9912701903161 112.1625855241879 422.98189367525356 112.22448060168591 422.98189367525356 C112.2863756791839 422.98189367525356 112.30848106400462 422.9912701903161 112.28195460221977 423.00533496290984 Z M117.27777157170124 424.22428192103564 C117.24682403295223 424.23365843609815 117.19377110938251 424.23365843609815 117.16724464759766 424.22428192103564 C117.13629710884865 424.21021714844187 117.15840249366937 424.20084063337936 117.22029757116738 424.20084063337936 C117.28219264866537 424.20084063337936 117.30429803348609 424.21021714844187 117.27777157170124 424.22428192103564 Z M118.38304081273695 424.4118122222858 C118.35209327398795 424.4211887373483 118.29019819648994 424.4211887373483 118.25040850381268 424.4118122222858 C118.20619773417124 424.397747449692 118.2327241959561 424.3883709346295 118.30346142738239 424.3883709346295 C118.37861973577282 424.3883709346295 118.4095672745218 424.397747449692 118.38304081273695 424.4118122222858 Z "></path>
    </defs>
    <g style="mix-blend-mode:normal">
      <use xmlns:xlink="http://www.w3.org/1999/xlink" xlink:href="#s-Path_3-550f5" fill="#E2202C" fill-opacity="1.0" stroke-width="2.0" stroke="#404040" stroke-linecap="butt"></use>
    </g>
  </g>
</svg>
