<?xml version="1.0" encoding="UTF-8"?>
<svg xmlns="http://www.w3.org/2000/svg" width="36.9925537109375" height="56.135738372802734" viewBox="92.50002619037639 530.932131290217 36.9925537109375 56.135738372802734" preserveAspectRatio="none">
  <g>
    <defs>
      <path id="s-Path_6-550f5" d="M107.89097384137983 532.4518955433214 C107.81178933303852 532.4636170623094 107.52333148122364 532.5046423787677 107.24052966571901 532.5398069357319 C105.66249553520208 532.7390727585291 103.71116300821916 533.4365031383196 101.82204688064724 534.4914398472464 C100.97929747044293 534.9603006067694 100.4080378031232 535.4174398473042 99.5200401024382 536.3434398473621 C96.3639718414048 539.6254651640231 95.08570763532305 543.3470474427369 95.82099235563567 547.127237316391 C96.05288984434935 548.3169714936805 96.72595816525097 549.9872879494812 97.43296270401277 551.1125537723364 C98.38317680410898 552.6363512407861 99.72931344591177 553.5389082028679 101.66933390027464 553.9726044054266 L102.15009698663278 554.0839588358133 L101.68630200920495 554.3301107345629 C100.19310842333982 555.1388955447401 99.37298315837563 556.4810094688746 99.01665287083972 558.719819595597 C98.90353214463778 559.4231107348814 98.87525196308741 559.663401874137 98.66597861961384 561.398186684372 C98.42842509458967 563.4025664313327 98.12865517015473 564.5923006086224 97.51214721235431 565.9109714947808 C97.31984197781105 566.3270854188575 97.02572808968591 566.9893512416836 96.86170303669326 567.3761613682901 C96.69767798370037 567.7629714948966 96.12641831638064 568.9878702291504 95.58909486692176 570.1014145330175 C94.60494454896491 572.1526803559306 94.31648669715003 572.8969968116734 94.10721335367646 573.9109082041418 C93.95450037330409 574.6669461788726 93.96581244592414 576.9878069385114 94.13549353522706 578.3181993436579 L94.25992633404906 579.3028069386562 L94.13549353522706 579.754085419697 C93.96581244592414 580.363604407077 93.95450037330409 581.6646930147533 94.10721335367646 582.409009470496 C94.41263931442165 583.8683385845113 95.07439556270299 584.9936044073665 95.87755271873641 585.4038575719492 C96.19429075210189 585.5679588377822 96.27913129675346 585.5855411162643 96.54496500332777 585.556237318794 C96.71464609263069 585.5386550403119 96.92957547241451 585.4800474453716 97.02572808968591 585.4273006099253 C97.7553567736885 585.0404904833188 98.47932942138061 583.7745664326068 98.6772906922339 582.561389217341 C98.88090799939744 581.2954651666289 98.95443647142872 580.3225790906187 98.98837268928935 578.5116044069612 C98.9996847619094 577.5094145334808 99.04493305239009 576.4955031410123 99.07321323394069 576.2552120017567 C99.14108566966172 575.7746297232457 99.36167108575557 575.0010094700327 99.52569613874823 574.6610854193787 C99.5822565018492 574.5438702294979 99.68406515543109 574.1922246598556 99.75193759115211 573.8816044066716 C100.01211526141662 572.6274018749476 100.52115852932513 571.3556170647415 101.1546345960561 570.3592879507552 C101.53358902883235 569.7673512418573 102.24059356759437 568.8765157987636 102.71570061764226 568.4017942797467 L103.03243865100774 568.0794525075746 L102.60823592775034 568.7475790898949 C101.89557535267852 569.866984153256 101.47702866573138 570.8515917482544 101.23381910439718 571.9885790900976 C101.09241819664487 572.6684271914058 101.09241819664487 574.4794018750634 101.23947514070721 575.2237183308062 C101.84467102588735 578.3357816221401 103.53016984629596 581.4068195970157 105.57199895424071 583.1064398502865 C106.82198297877187 584.1496550402251 108.17943169319494 584.7826170655811 109.81402618681238 585.0815157997771 C110.62283937915629 585.2338955466221 112.4044908168363 585.2338955466221 113.29248851752152 585.0815157997771 C114.7008415587353 584.8470854200156 115.92254540171587 584.4954398503734 117.3195863703096 583.9210854199576 C121.05257033497298 582.3914271920139 124.21429463231641 579.0507942804126 125.4699346931576 575.3174904827108 C125.96200985213602 573.8523006092014 126.88959980699144 569.6559968114707 127.31945856655886 566.9659082037075 C127.82284579815735 563.7952373174332 127.99252688746026 561.7849968109784 127.99252688746026 558.9659714943465 C127.99818292377029 555.2326676966446 127.60791641837375 552.466389215459 126.65770231827776 549.471541114006 C124.89301898952783 543.8979588351764 121.5616136028815 539.3793132652735 116.17706703567035 535.2474778219772 C114.22007847237717 533.7471233915036 112.42145892576661 532.8973132648682 110.49275054402403 532.563249973708 C109.9837072761153 532.4753385812975 108.190743765815 532.3932879483809 107.89097384137983 532.4518955433214 Z "></path>
    </defs>
    <g style="mix-blend-mode:normal">
      <use xmlns:xlink="http://www.w3.org/1999/xlink" xlink:href="#s-Path_6-550f5" fill="#E2202C" fill-opacity="1.0" stroke-width="2.0" stroke="#404040" stroke-linecap="butt"></use>
    </g>
  </g>
</svg>
