<?xml version="1.0" encoding="UTF-8"?>
<svg xmlns="http://www.w3.org/2000/svg" width="71.99999237060547" height="42.27064514160156" viewBox="74.49999999570167 460.9321313843839 71.99999237060547 42.27064514160156" preserveAspectRatio="none">
  <g>
    <defs>
      <path id="s-Path_4-550f5" d="M143.05834611797326 462.4440957302027 C142.77240321800545 462.48233940135356 141.936155114326 462.66930846031323 141.4937528917343 462.7967873641494 C140.51183576354296 463.0814902493834 139.19002424482386 463.56591008396083 135.53211318485828 464.98942451013113 C133.4118196058517 465.81378808827156 131.2861308777891 466.6254037760284 130.81135776086143 466.7953756478099 C124.90366954454538 468.90727615469547 122.16832897315521 469.3746988020947 117.97090300759001 469.0007606841753 C115.02515162301597 468.74155357970847 111.61541741962625 468.06166609258236 103.2960975752798 466.09424167671114 C99.34684846629042 465.1593963819127 98.66166453617889 465.01067099410386 97.46933659480368 464.8194526383496 C94.32935984421377 464.3180356165941 91.55085808037563 464.34778069415586 88.95039623538537 464.90868787103494 C86.45244222245903 465.4483485639413 84.29438260006047 466.4681797946305 82.38989498329374 468.0106745310479 C80.95478533439871 469.1707325559569 79.94589246092737 470.31804269048223 78.88844324595208 471.9795177371467 C77.39398695744107 474.3336281613209 76.4660213198097 476.89595412842755 76.06678028966596 479.7557308711518 C75.97506275571402 480.40162398392164 75.98045790477002 484.39596297078765 76.06678028966596 485.9384577072051 C76.51457766131367 493.53195107904503 77.51807538572899 499.2472552676991 78.7050081780482 500.9682204694871 C78.89383839500807 501.2444247611321 79.36321636287977 501.5801192079006 79.65455441190358 501.6481079566132 C80.0484002929913 501.74159248609305 80.93859988723071 501.7118474085313 81.56983232678229 501.58436850469514 C83.55524717938897 501.17643601241946 86.8031269110988 499.7996638509891 89.87836187301674 498.05745216522837 L90.74698087103216 497.56453373706194 L91.51848718603965 497.63252248577453 C92.57054125195894 497.7217577184598 94.88506019698141 497.68776334410353 95.95869485912469 497.56453373706194 C100.76577266801749 497.0291223409501 104.89845684491073 495.3379022167238 107.74170039742083 492.7373325784664 C109.45196264817169 491.1735913580763 110.55796820465096 489.3336458460412 110.98418498007467 487.33222705581363 C111.04892676874663 487.03477628019596 111.11366855741858 486.7755691757291 111.12445885553058 486.7628212853455 C111.14603945175455 486.7288269109892 111.75569129508216 486.6608381622766 112.60272969687358 486.5970987103585 C115.80744823613546 486.3421409026862 119.68656040739685 485.0333574899684 124.09439718614593 482.717490736945 C131.34547751740507 478.9058715122442 139.05514551842393 472.7613883473417 142.84793530478942 467.7684646137592 C143.7219494518608 466.6126558856448 144.58517330082026 465.1593963819127 144.87111620078804 464.3520299909504 C145.03836582152394 463.8718594531676 145.04376097057994 463.2302156371923 144.88190649890004 462.99225501669815 C144.73623747438813 462.77129158338215 144.5150363630923 462.6098183051897 144.24527891029248 462.5205830725044 C144.02947294805261 462.4525943237918 143.36047446510906 462.4101013558464 143.05834611797326 462.4440957302027 Z "></path>
    </defs>
    <g style="mix-blend-mode:normal">
      <use xmlns:xlink="http://www.w3.org/1999/xlink" xlink:href="#s-Path_4-550f5" fill="#E2202C" fill-opacity="1.0" stroke-width="2.0" stroke="#404040" stroke-linecap="butt"></use>
    </g>
  </g>
</svg>
