<?xml version="1.0" encoding="UTF-8"?>
<svg xmlns="http://www.w3.org/2000/svg" width="62.999996185302734" height="78.2575912475586" viewBox="79.49999999224438 268.93213136270884 62.999996185302734 78.2575912475586" preserveAspectRatio="none">
  <g>
    <defs>
      <path id="s-Path_2-550f5" d="M113.35392143113695 270.5816045798158 C112.47375950471188 270.7227944577988 112.38164953566739 270.7463261041293 111.92109969044496 270.96987674426896 C111.71129364984364 271.0698862411736 111.55265981426702 271.0934178875041 111.02558610251246 271.0934178875041 C110.40640242171341 271.0993007990867 110.37569909869859 271.0934178875041 110.03284532503301 270.9051647168601 C109.8179220639292 270.78750648520764 109.59788158232293 270.7169115462162 109.46995106976114 270.7169115462162 C109.35737221870677 270.7169115462162 108.96334624001648 270.6639653419725 108.600023584341 270.59925331456367 C108.23670092866553 270.5345412871548 107.77103386294063 270.4815950829112 107.5612278223393 270.4815950829112 C107.21325682817124 270.4815950829112 107.167201843649 270.4933609060765 107.03415411058475 270.64631660722466 C106.8294652904859 270.88751598211223 106.75782420345129 271.34050017397425 106.75782420345129 272.3641267893508 C106.76294142395376 273.3171584657358 106.84481695199331 274.01722494406806 107.13649852063418 275.7173863914463 C107.53564171982694 278.0234877318348 107.6891583349011 278.8235637070716 107.77103386294063 279.00005105455034 C107.81708884746287 279.10006055145493 108.04224654957162 279.4177377769166 108.2776386926853 279.7060004444652 C108.75354019941514 280.2942916027276 108.92752569649917 280.6237346513545 108.83029850695222 280.77080744092007 C108.79959518393738 280.8237536451637 108.72283687640032 280.9825922578945 108.66143023037066 281.12966504746015 C108.53349971780888 281.4296935381739 108.51814805630147 281.90620937636646 108.58978914333606 283.01219675389973 C108.62560968685335 283.4945955036749 108.61537524584841 283.74167779014505 108.54885137931629 284.13583286618086 C108.50279639479405 284.41232971056417 108.46697585127674 284.74177275919106 108.46697585127674 284.8711968140088 C108.46697585127674 285.15357656997475 108.61025802534594 285.52419999968004 108.79447796343491 285.712453170324 C108.98381512202636 285.91835507571585 108.97358068102142 286.20661774326436 108.7433057584102 286.79490890152675 C108.50279639479405 287.4126146177023 108.49767917429158 287.65969690417245 108.71771965589785 287.9185450138079 L108.88147071197693 288.11268109603446 L108.77400908142504 288.6656747848011 C108.6204924663509 289.4833994947858 108.62560968685335 289.99521280247404 108.79959518393738 290.4070166132577 C108.93776013750411 290.730576750302 108.93776013750411 290.7364596618846 108.85076738896211 290.9482444788591 C108.71260243539537 291.2835704390686 108.70236799439043 291.7365546309307 108.82006406594728 292.34837743552356 C108.95822901951401 293.060209737021 108.95822901951401 293.19551670342133 108.79959518393738 293.36612113931744 C108.60514080484347 293.5720230447093 108.56932026132617 293.81910533117946 108.63072690735584 294.45445978210284 C108.67678189187808 294.889795239217 108.67678189187808 295.09569714460883 108.6204924663509 295.42514019323573 C108.55908582032123 295.8016465345237 108.55908582032123 295.91342185459354 108.64607856886325 296.5017130128559 C108.70236799439043 296.86645353097856 108.7433057584102 297.33120354600584 108.73818853790773 297.5429883629803 C108.73307131740526 297.7547731799547 108.7791263019275 298.2136402833994 108.83541572745469 298.5724978899394 C108.97869790152389 299.4314029810025 108.98893234252884 300.2785422489003 108.85588460946457 300.50209288904 C108.71260243539537 300.7432922639276 108.73818853790773 301.03743784305874 108.94799457850905 301.61396317815587 C109.0503389885585 301.89634293412183 109.13221451659803 302.17872269008774 109.13221451659803 302.24931762907926 C109.13221451659803 302.42580497655797 108.9940495630313 302.7023018209413 108.87635349147446 302.7787796715154 C108.82006406594728 302.8140771410111 108.78424352242997 302.8670233452547 108.79959518393738 302.89643790316785 C108.91729125549423 303.11410563172495 108.93264291700164 304.0730202196926 108.82006406594728 304.0730202196926 C108.79447796343491 304.0730202196926 108.77400908142504 304.03183983861425 108.77400908142504 303.98477654595325 C108.77400908142504 303.93771325329226 108.55908582032123 302.8729062568374 108.29299035419271 301.61396317815587 C108.02689488806419 300.360903011057 107.6686894528912 298.6372099173483 107.49470395580718 297.77830482628525 C107.12626407962924 295.9604851472545 107.00345078756992 295.5604471596361 106.3433293427511 294.00147559024083 C106.07723387662259 293.36023822773484 105.79066952848419 292.6425230146547 105.70367677994219 292.39544072818455 C104.30667558276747 288.34799755933943 101.21075717877225 286.61253864246544 98.03808046723998 288.1009152728692 C97.48030343247059 288.35976338250464 96.91740917719873 288.74803554695785 95.72509680012288 289.6893014001776 C90.67951738468606 293.6779154531965 87.41473070410929 297.531222539815 85.21432588804657 302.0904790163484 C84.71283827880438 303.12587145489016 83.57681532725572 305.7437671091577 83.16232046655554 306.80269119403 C82.0211802945044 309.74414698534184 81.35594162918312 312.414988843853 81.14101836807932 314.9564066475465 C81.06426006054225 315.8741408544357 80.97215009149777 325.79861269432195 81.00797063501507 329.4577836987139 C81.04379117853236 333.3522711664108 81.20754223461145 337.2761731920208 81.40199661370536 338.9881004625643 C81.63227153631658 340.98829040065635 82.3282135246527 342.76492969860874 83.35677484564945 343.96504366146394 C84.03736517247815 344.7651196367008 84.81518268885381 345.2945816791369 85.6953446152789 345.559312700355 C86.07913615296425 345.6769709320074 86.2480044295458 345.69461966675533 87.12816635597089 345.68873675517267 C90.01939593986725 345.6710880204248 93.48375422004041 345.23575256331065 95.57669740555122 344.63569558188306 C97.01463636674569 344.2180088595168 97.90503273417572 343.8297366950636 99.8956315096371 342.7355151406956 C104.12757286518098 340.4176479771418 105.46316741632602 339.4822650355047 106.90622359802296 337.81151814603953 C108.18552872364081 336.34079025038363 108.84053294795716 334.97595476321493 109.26014502915982 332.9287015324619 C109.50577161327844 331.72270465802404 109.61323324383035 330.6049514573255 109.69510877186988 328.4576887296679 C109.85885982794898 323.9984417500391 109.87932870995886 323.63958414349906 110.1249552940775 321.92765687295554 C110.391050760206 320.0686568128465 110.43198852422577 319.4274194503405 110.43198852422577 317.1036693752041 C110.43198852422577 315.45057122048684 110.4115196422159 314.6740268915805 110.34499577568377 313.8680680047611 C110.2477685861368 312.75031480406255 110.05331420704289 311.0854508261801 109.9253836944811 310.25007738144745 C109.84862538694404 309.7559128085071 109.84862538694404 309.7500298969245 109.95608701749593 309.6617862231851 C110.01749366352558 309.6147229305241 110.30405801166398 309.5323621683674 110.58550513929991 309.4852988757064 C111.0000000000001 309.41470393671494 111.19957159959648 309.4088210251323 111.59871479878926 309.4558843177933 C111.87504470592272 309.491181787289 112.1104368490364 309.53824507995 112.1309057310463 309.5617767262805 C112.15137461305616 309.5794254610284 112.10531962853393 310.0324096528904 112.03367854149934 310.55598878374394 C111.64988700381397 313.3091914044118 111.56801147577443 314.49165663251915 111.56801147577443 317.1036693752041 C111.56801147577443 319.4274194503405 111.60894923979421 320.0686568128465 111.87504470592272 321.92765687295554 C112.12067129004134 323.63958414349906 112.14114017205122 323.9984417500391 112.30489122813032 328.4576887296679 C112.40723563817974 331.1520622345095 112.58122113526377 332.5286635448435 113.02130209847633 334.0758692910735 C113.7223613073149 336.5349263326102 115.41104407313047 338.62924285602423 118.19481202647492 340.47647709296814 C119.10567727591484 341.07653407439574 122.55980111508305 343.0237778082442 123.79816847668114 343.63560061283704 C125.3128657454127 344.3827303838302 127.25740953635183 344.94748989576215 129.3401182808577 345.2534012980585 C130.9520427391362 345.4887177613635 133.39295691881506 345.6769709320074 134.8718336440293 345.68873675517267 C135.7519955704544 345.69461966675533 135.92086384703595 345.6769709320074 136.30465538472131 345.559312700355 C138.56646684681368 344.87101204518797 140.21421184860947 342.35312588782506 140.59800338629483 338.9881004625643 C140.79245776538875 337.2761731920208 140.95620882146784 333.3522711664108 140.99202936498514 329.4577836987139 C141.02784990850245 325.79861269432195 140.93573993945796 315.8741408544357 140.8589816319209 314.9564066475465 C140.64405837081708 312.414988843853 139.9788197054958 309.74414698534184 138.83767953344466 306.80269119403 C138.4231846727445 305.7437671091577 137.28716172119584 303.12587145489016 136.78567411195363 302.0904790163484 C135.10210856664054 298.5960295362699 132.8351798840457 295.5839788059666 129.59086208547882 292.5307476945849 C128.3166741803634 291.324750820147 125.93716664671422 289.3598583515507 124.8625503411952 288.62449440372274 C122.03784462383098 286.6831335814569 118.87540235330363 287.494975379859 117.0894923979411 290.63056725339743 C116.78245916779281 291.17179511899883 116.5163637016643 291.76008627726117 116.29632322005803 292.39544072818455 C116.20933047151601 292.6425230146547 115.92276612337761 293.36023822773484 115.6566706572491 294.00147559024083 C114.99143199192781 295.578095894384 114.87373592037098 295.9604851472545 114.47970994168068 297.8959630579377 C114.03451175796566 300.1020549014216 113.27204590309742 303.6847480552394 113.24645980058506 303.71416261315255 C113.20552203656528 303.76122590581355 113.22599091857518 303.425899945604 113.28228034410236 303.1317543664728 C113.33345254912707 302.84349169892425 113.33345254912707 302.831725875759 113.17993593405293 302.62582397036715 C112.97524711395408 302.3610929491491 112.97524711395408 302.190488513253 113.20040481606281 301.5668998854949 C113.41021085666415 300.99037455039775 113.42044529766909 300.76094099867544 113.27204590309742 300.4197321268833 C113.169701493048 300.20794730990883 113.16458427254551 300.11970363616945 113.19017037505787 299.61377324006384 C113.21063925706775 299.29609601460214 113.26692868259494 298.766633972166 113.32321810812212 298.4371909235391 C113.38974197465427 298.06656749383376 113.4153280771666 297.7253586220416 113.39485919515673 297.5724029208934 C113.37950753364932 297.41356430816256 113.41021085666415 297.0252921437094 113.48185194369874 296.56642504026473 C113.58419635374817 295.9016560314283 113.58931357425064 295.77223197661056 113.53814136922594 295.44867183956626 C113.4920863847037 295.1957066415134 113.48185194369874 294.86038068130387 113.50743804621109 294.3779819315287 C113.54837581023088 293.63673507211814 113.52790692822099 293.53672557521355 113.30274922611224 293.248462907665 L113.18505315455539 293.1013901180994 L113.30786644661472 292.4248552860976 C113.4562658411864 291.57771601819985 113.4562658411864 291.44829196338213 113.32321810812212 291.0070735946853 C113.2208736980727 290.66586472289316 113.21575647757024 290.63056725339743 113.29763200560977 290.44231408275346 C113.41021085666415 290.17170014995276 113.39997641565921 289.80107672024747 113.26692868259494 289.07747859558475 L113.15434983154057 288.4656557909919 L113.26692868259494 288.0950323612866 C113.41021085666415 287.6302823462593 113.41021085666415 287.3126051207976 113.27204590309742 286.7360797857005 C113.13388094953069 286.15367153902076 113.15946705204306 285.9065892525506 113.39485919515673 285.60067785025416 C113.7223613073149 285.1888740394705 113.73771296882231 284.8535480792609 113.50743804621109 283.4063518299355 C113.49720360520615 283.3534056256919 113.52790692822099 282.99454801915186 113.56884469224076 282.6121587662813 C113.66095466128525 281.7650194983835 113.63025133827043 281.4414593613392 113.42556251817155 280.9767093463119 C113.26692868259494 280.6119688281892 113.26692868259494 280.6119688281892 113.35392143113695 280.4001840112148 C113.40509363616167 280.2825257795623 113.6353685587729 279.94719981935276 113.87076070188658 279.6648200633868 C114.1010356244978 279.3765573958383 114.33131054710901 279.0588801703766 114.37224831112877 278.9647535850546 C114.45924105967079 278.77061750282803 114.9965492124303 275.8585762694293 115.19612081202666 274.5055066054258 C115.36498908860823 273.3642217583968 115.43151295514036 272.32882931985506 115.38034075011565 271.7170065152622 C115.25241023755385 270.328639381763 115.17053470951433 270.28157608910203 113.35392143113695 270.5816045798158 Z "></path>
    </defs>
    <g style="mix-blend-mode:normal">
      <use xmlns:xlink="http://www.w3.org/1999/xlink" xlink:href="#s-Path_2-550f5" fill="#E2202C" fill-opacity="1.0" stroke-width="2.0" stroke="#404040" stroke-linecap="butt"></use>
    </g>
  </g>
</svg>
