<?xml version="1.0" encoding="UTF-8"?>
<svg xmlns="http://www.w3.org/2000/svg" width="63.86765670776367" height="50.5070686340332" viewBox="196.50000370910578 200.93213528050114 63.86765670776367 50.5070686340332" preserveAspectRatio="none">
  <g>
    <defs>
      <path id="s-Path_5-550f5" d="M226.0911271615612 202.46750815770437 C225.46334294121405 202.55310577828402 224.8664333546545 202.6843554631728 224.32098149107424 202.8669637204094 C223.86815352885662 203.01533292941411 223.73950922140844 203.03245245353003 223.11172500106133 203.03245245353003 C221.27983006299925 203.03245245353003 219.61259983847083 203.44902754035098 218.00197310921962 204.31071025418612 C217.73953872202532 204.44766644711353 217.410209294958 204.584622640041 217.26612767061602 204.60744867219557 C216.9007778374632 204.65880724454334 216.15464085426376 204.93271963039822 215.5320024062146 205.2351645564463 C214.73440770003586 205.62320710307404 214.68294997705658 205.64032662718998 214.14778965807216 205.70880472365369 C212.7790142268235 205.87999996481298 211.29703180502048 206.5305418812183 210.11350417649723 207.48352872367172 C209.96427677985736 207.60907190052188 209.62980158049209 207.78026714168115 209.3159094703185 207.90010381049268 C208.0860698911139 208.36233096162277 207.11351892680568 208.90444922529386 206.48573470645857 209.47510002915817 C206.35709039901036 209.59493669796967 206.01232365504927 209.8631425757859 205.71386886176947 210.0742833732157 C204.96773187857002 210.61069512884816 204.31936456903122 211.20417196486704 203.7121634378758 211.9117789616588 C203.1255453959121 212.59085341825735 202.73961247356755 213.20144977839215 202.39484572960643 213.99465439576358 L202.15814020390178 214.54247916747332 L201.73618687547176 214.7764459970577 C201.50462712206502 214.90769568194648 201.1958807841894 215.1245429874149 201.05179915984743 215.267205688381 C200.5320761577568 215.77508490382024 200.1770178691998 216.57970253726893 200.1204143739226 217.37861366267896 L200.08953974013505 217.78377573342263 L199.72418990698222 218.21176383632087 C199.29194503395632 218.71393654372145 199.02951064676205 219.1419246466197 198.78251357646155 219.7354014826386 C198.61270309062994 220.14627006142092 198.3554144757336 221.1220829360289 198.3554144757336 221.36746278169053 C198.3554144757336 221.4302343701156 198.2833736635626 221.71555977204775 198.1907497621999 222.00088517397995 C198.04666813785795 222.4574058170714 198.02608504866623 222.61148153411477 198.00550195947454 223.26202345052008 C197.99006464258076 223.81555473026845 198.00550195947454 224.13511918043247 198.07239699934757 224.51745521902157 C198.18045821760404 225.13946459523368 198.18560398990198 225.32207285247026 198.09812586083723 225.78430000360038 C198.0363765932621 226.0924514376871 198.04152236556 226.16663604218945 198.10841740543307 226.36636382354197 C198.18045821760404 226.5717981129331 198.18560398990198 226.6231566852809 198.113563177731 226.89136256309712 C198.0003561871766 227.31935066599536 198.04666813785795 228.05549020298034 198.21647862368954 228.5919019586128 C198.29366520815844 228.82586878819717 198.39143488181907 229.05983561778152 198.4326010602025 229.1111941901293 C198.4737672385859 229.1625527624771 198.54580805075688 229.3337480036364 198.59726577373615 229.48782372067978 C198.6435777244175 229.64189943772314 198.7207643088864 229.83021420299838 198.76707625956777 229.91010531553937 C198.81853398254702 229.98999642808036 198.87513747782424 230.2296697657034 198.89572056701593 230.45222357921045 C199.0603852805496 232.23265408726712 199.4617555197879 233.52803141203913 200.28507908745627 234.9090063573908 C200.92315485239925 235.97612336061707 201.5560848450443 236.63237178506103 202.1787232930935 236.87775163072268 C202.2919302836479 236.92340369503182 202.39999150190437 237.00900131561147 202.43086613569193 237.07177290403655 C202.52863580935252 237.28291370146636 203.0071926330598 237.7907929169056 203.2953558817437 237.98481419021945 C204.2781983906478 238.64676912270204 205.99688633815546 238.92638801659558 208.37423313979784 238.8122578558227 C209.42397068857497 238.7608992834749 211.5234457861293 238.5440519780065 212.27472854162664 238.4128022931177 C212.78415999912144 238.32149816449942 212.78415999912144 238.32149816449942 213.05174015861365 238.73807325132034 C213.18553023835977 238.9549205567888 213.46854771474577 239.3543761194938 213.67952437896076 239.63399501338733 C213.8905010431758 239.90790739924222 214.14264388577422 240.29594994586995 214.24041355943484 240.48426471114516 C214.54401412501255 241.07774154716407 214.84246891829233 241.50002314202365 215.31587996970163 242.0079023574629 C215.83560297179227 242.55572712917262 216.3295971123933 242.93806316776173 217.00883905571968 243.3032796822349 C217.2609818983181 243.445942383201 217.6366232760668 243.69702873690127 217.83216262338803 243.86822397806054 C218.22838709032843 244.21061446037916 218.8458797660797 244.5701244668137 219.3244365897869 244.72990669189568 C219.56628788778949 244.8097978044367 219.7978476411962 244.83262383659127 220.40504877235162 244.8269173285526 C221.10487380486973 244.82121082051398 221.23351811231788 244.80409129639804 221.78411574819611 244.64430907131603 C222.1185909475614 244.54159192662047 222.4427746023308 244.43316827388622 222.50452386990594 244.39892922565437 C222.5611273651831 244.35898366938386 222.94706028752768 244.29621208095878 223.35872207136185 244.2562665246883 C225.679465377727 244.01659318706527 227.1202816211466 243.2233885696939 227.71719120770618 241.85382664041953 C227.90243901043155 241.43154504555991 227.9333136442191 241.39159948928943 228.09797835775277 241.35736044105758 C228.19574803141342 241.33453440890298 228.4581824186077 241.254643296362 228.67430485512062 241.174752183821 C228.89557306393152 241.09486107127998 229.09625818355067 241.04350249893218 229.11684127274236 241.06062202304813 C229.14257013423202 241.07774154716407 229.1785905403175 241.174752183821 229.1991736295092 241.27176282047793 C229.2557771247864 241.57991425456464 229.77550012687706 242.70409633817735 230.05851760326306 243.10925840892102 C230.41872166411795 243.63996365651485 230.8458207648459 244.005180170988 231.55593734195986 244.39892922565437 C233.01219090227326 245.20925336714168 233.78920251926027 246.03669703274497 235.94013533979384 249.07255930930313 C236.69141809529123 250.1339698044908 236.56791956014095 250.08261123214297 237.272890364957 249.6489166212061 C237.5198874352575 249.49484090416274 237.74115564406836 249.36929772731258 237.76173873326007 249.36929772731258 C237.81319645623933 249.36929772731258 238.8372051435269 248.6160386662117 239.0173071739543 248.44484342505237 L239.15624302599832 248.31359374016358 L238.64166579620564 247.6288127755264 C238.18883783398803 247.02392292343023 238.04475620964607 246.78995609384586 238.17854628939216 246.88126022246416 C238.2968990522445 246.9668578430438 239.6245083051097 247.3206613414397 240.13908553490245 247.4062589620193 C240.85949365661224 247.53180213886947 242.09447900811477 247.54321515494678 242.73770054535566 247.43479150221253 C243.7308345988556 247.2693027690919 244.84746718750583 246.81278212600046 245.66564498287624 246.24213132213612 C245.83545546870783 246.11658814528596 246.44265659986326 245.75707813885145 247.01383732493318 245.4432201967261 C248.34659235009633 244.6956676436638 248.8302949461015 244.3361576372293 249.02068852112478 243.93670207452428 C249.06185469950822 243.84539794590597 249.25224827453152 243.69132222886262 249.51982843402374 243.52583349574198 C250.46665053684234 242.95518269187767 251.40832686736303 242.17339109058355 252.21106734583964 241.2945888526325 C252.62272912967381 240.84377471757966 252.89030928916605 240.31306946998586 253.034390913508 239.639701521426 C253.15274367636033 239.08617024167756 253.14245213176446 237.68807577221003 253.0138078243163 236.87204512268403 C252.9572043290391 236.54106765644275 252.92632969525152 236.25574225451058 252.9366212398474 236.22720971431738 C252.94691278444327 236.20438368216278 253.0138078243163 236.18726415804684 253.08584863648727 236.18726415804684 C253.29682530070227 236.18726415804684 254.28995935420224 235.92476478826927 254.65016341505714 235.7706890712259 C255.51979893340683 235.40547255675273 256.05495925239126 235.03454953424094 256.6621603835467 234.36118158568104 C257.31567346538344 233.64786808085063 257.74791833840936 232.85466346347926 258.07724776547667 231.78183995221434 C258.16987166683936 231.47368851812757 258.2727871127979 231.07993946346122 258.3036617465855 230.89733120622464 C258.33968215267095 230.71472294898803 258.4477433709274 230.4179845309786 258.55065881688597 230.23537627374202 C258.64842849054656 230.0584745245441 258.76163548110094 229.77314912261193 258.79765588718647 229.61336689752994 C258.9211544223367 229.08836815797474 258.87998824395333 228.23809846021692 258.68444889663203 227.35929622226587 C258.6124080844611 227.0340252640632 258.6124080844611 226.9940797077927 258.6947404412279 226.81717795859475 C258.74619816420716 226.70875430586057 258.7925101148885 226.4519614441216 258.8079474317823 226.2008750904213 C258.8439678378678 225.48756158559092 258.6021165398652 224.95114982995847 257.79937606138856 223.96392393927317 L257.39800582215025 223.4617512318726 L257.27965305929797 222.89110042800826 C257.07896793967876 221.903874537323 256.7033265619301 221.13920246014482 256.04981348009335 220.39164990708258 L255.69475519153636 219.99219434437754 L255.66388055774883 219.52996719324744 C255.61756860706745 218.8908382929194 255.42717503204415 218.44573066590524 255.0052217036141 218.017742563007 C254.8354112177825 217.84084081380905 254.57297683058823 217.61828700030196 254.42889520624627 217.52698287168369 C254.1870439082437 217.37290715464033 254.15616927445615 217.32725509033116 253.92975529334734 216.7737238105828 C253.80111098589916 216.44845285238011 253.58498854938622 216.00334522536596 253.45634424193804 215.77508490382024 C253.17847253784998 215.3071512446515 252.5815629512904 214.58813123178246 252.1493180782645 214.211501701232 C251.98979913702877 214.07454550830457 251.81484287889927 213.9204697912612 251.76338515592 213.87481772695207 C251.70163588834487 213.81775264656562 251.6501781653656 213.65797042148364 251.6141577592801 213.3897645436674 C251.45978459034228 212.23704991986148 250.61587793348224 211.23270450506027 249.1184581947854 210.40526083945701 C248.8354407183994 210.25118512241363 248.54727746971548 210.10281591340893 248.47523665754449 210.07998988125436 C248.40834161767145 210.05716384909977 247.99153406153934 209.62917574620155 247.54899764391763 209.13841605487823 C246.1647848957752 207.57483285229 244.77542637533486 206.4905963249478 243.0052807048479 205.5946745628808 C242.74284631765357 205.46342487799203 242.4598288412676 205.29222963683276 242.37235071220283 205.22375154036902 C242.09962478041268 204.98978471078465 241.4564032431718 204.6930462927752 241.08590763772105 204.63027470435014 C240.8903682903998 204.59603565611826 240.53016422954494 204.5732096239637 240.28316715924439 204.57891613200235 L239.83548496932474 204.59603565611826 L239.5627590375346 204.31071025418612 C239.00701562935848 203.72864643424452 238.1991293785839 203.32919087153948 237.3140565433404 203.1979411866507 C236.82006240273938 203.12375658214833 235.43070388229904 203.15799563038019 234.88010624642084 203.26071277507577 C234.5559225916514 203.32348436350082 234.52504795786388 203.3177778554622 234.27290511526542 203.17511515449613 C233.91784682670846 202.9753873731436 233.42385268610744 202.8669637204094 232.88354659482508 202.86125721237073 C232.6416952968225 202.8555507043321 232.26090814677588 202.83272467217753 232.03449416566707 202.8041921319843 C231.80808018455832 202.7756595917911 231.01048547837956 202.72430101944332 230.2592027228822 202.69006197121143 C229.50791996738485 202.6558229229796 228.62284713214137 202.5930513345545 228.2883719327761 202.5416927622067 C227.50621454349118 202.43326910947252 226.57997552986427 202.39903006124064 226.0911271615612 202.46750815770437 Z "></path>
    </defs>
    <g style="mix-blend-mode:normal">
      <use xmlns:xlink="http://www.w3.org/1999/xlink" xlink:href="#s-Path_5-550f5" fill="#FEE94E" fill-opacity="1.0" stroke-width="2.0" stroke="#000000" stroke-linecap="butt"></use>
    </g>
  </g>
</svg>
