<?xml version="1.0" encoding="UTF-8"?>
<svg xmlns="http://www.w3.org/2000/svg" width="40.617496490478516" height="63.007083892822266" viewBox="209.4999999133279 364.93213133327794 40.617496490478516 63.007083892822266" preserveAspectRatio="none">
  <g>
    <defs>
      <path id="s-Path_8-550f5" d="M223.4699116065793 366.69467375502813 C222.93938237088216 367.04160481234084 222.67853882999773 367.28070594643475 222.5812751367866 367.5057423079349 C222.50611682839616 367.68389609412253 222.50611682839616 367.70264912424756 222.57685405982244 367.8151673049976 C222.65201236821287 367.9370620008102 222.83769760070686 368.044891924029 223.05433037194987 368.0964627568728 C223.69980760871474 368.2371104828104 224.23917899834015 370.0655309199991 224.42486423083417 372.73314945528216 C224.46465392351146 373.3707524795326 224.46465392351146 373.48795891781396 224.41160099994173 373.50202369040767 C224.17286284387802 373.58641232597023 223.0808568337347 374.22401535022067 222.7360128305316 374.4818695144396 C222.18779928697788 374.8944361771899 221.28147850932856 375.85552897109676 220.95873989094613 376.37123729953464 C220.62273804167128 376.91038691562875 220.29115726936055 377.6417550905042 220.0966298829383 378.27935811475464 C220.0082083436554 378.57471833922364 219.93305003526498 378.80444295825504 219.92862895830086 378.7997547007238 C219.91094465044426 378.77162515553624 220.03915588240443 377.5057956220979 220.1098931138307 377.02759335391005 C220.149682806508 376.7556744170974 220.22926219186257 376.2868486639721 220.28673619239643 375.9774236669094 C220.3442101929303 375.6726869273779 220.39284203953585 375.37263844537773 220.39284203953585 375.30700283994014 C220.39284203953585 375.24605549203386 220.44589496310556 375.1147842811588 220.50779004060357 375.01633087300246 C220.82610758202185 374.5053108020959 220.6050537338147 374.06461459415806 219.85347064991043 373.7036187642516 C219.29199387546427 373.4316998274389 218.32819909728113 373.23479301112627 217.57661601337682 373.230104753595 C217.0372446237514 373.230104753595 216.2414507702057 373.3566877069388 215.77281661200652 373.51608846300144 C215.28649814595082 373.6801774765953 214.7692321411461 374.0224202763768 214.60123121650867 374.29433921318946 C214.4597567536561 374.52406383222086 214.4597567536561 374.8522418594086 214.5923890625804 375.5226626863778 C214.71617921757638 376.136824422972 214.97260168149666 378.0355687231295 215.06102322077953 378.9966615170364 C215.39702507005438 382.58317852844505 215.29091922291497 385.804011452416 214.76481106418194 388.06843984001125 L214.66754737097082 388.4856947602928 L214.42438813794294 388.64040725882415 C214.14586028920195 388.8138727874805 213.43406689797496 389.54992921988725 213.04059104816622 390.0609492907938 C211.96184826891536 391.4768030652323 211.3252131860788 393.0754988833896 211.05552749126608 395.0539435615785 C210.97152702894735 395.6821700707664 210.9847902598398 397.4871492202988 211.08205395305092 398.21851739517433 C211.24563380072422 399.4609056409564 211.57721457303492 400.8720711578636 211.97069042284366 402.01600599548937 C212.31553442604678 403.0052283345838 212.82395827692324 404.2288635502409 213.1599601261981 404.8664665744913 L213.48269874458052 405.4759400535542 L213.5534359760068 406.1698021681797 C213.79217413207053 408.3826597229312 214.56586260079553 410.71741197349525 215.76397445807825 412.82712786255917 L216.0601866146758 413.34752444852825 L216.0601866146758 414.5852244367791 C216.0601866146758 418.0217172071877 215.8214484586121 421.44883346253374 215.42355153183925 423.8632860911291 C215.30860353077153 424.5430834331608 215.32186676166396 424.6602898714421 215.50755199415795 424.6602898714421 C215.5650259946918 424.6602898714421 215.7286058423651 424.5805894934108 215.87008030521767 424.47744782772327 C216.80734862161597 423.8210917733478 218.13367171085883 423.43665465578505 219.15494048957584 423.5351080639414 C219.88883926562357 423.6007436693789 220.27789403846813 423.74607965284775 220.88800265951986 424.1773993457231 C221.42295297218115 424.5571482057546 222.13032528644402 425.44791713669264 222.56801190589414 426.29649174984945 C222.65643344517702 426.46995727850583 222.79348683106545 426.48871030863086 222.85538190856343 426.3339978100995 C222.8907505242766 426.2542974320682 222.87748729338415 426.1839735690994 222.79790790802957 426.01988455550554 C222.50611682839616 425.4244758490364 221.52905881932057 421.27536793387736 221.25495204754372 419.4610122692824 C221.21958343183059 419.2406641653135 221.19747804700987 419.05313386406334 221.20632020093814 419.0484456065321 C221.21516235486644 419.03906909146957 221.480426972715 419.22191113518846 221.80316559109744 419.4610122692824 C223.65117576210915 420.82060695334576 226.57792871237174 422.34429065100306 229.14215335157462 423.2725656421912 C229.80531489619605 423.51635503381635 231.4190079881082 424.027375104723 232.15290676415594 424.2336584360981 C233.48365093036296 424.6040307810671 235.78261095171723 425.0916095643174 237.25925065774098 425.31664592581757 C237.45377804416324 425.34477547100505 237.83399066307953 425.41978759150516 238.0992552809281 425.48073493941143 C239.98705514461713 425.91674288981795 242.29927839686385 425.92611940488047 243.87760287306287 425.49948796953646 C245.06245149945318 425.18068645741124 246.06161489334946 424.6134072961296 246.58772305208248 423.9523629842229 C247.45867521401863 422.8599989794409 248.1483632204249 420.55337627406436 248.44015430005834 417.7451100128437 C248.5993130707675 416.23080283024893 248.62141845558818 415.79010662231116 248.61699737862403 413.9007388372161 C248.6125763016599 410.9893309103079 248.4136278382735 408.8186676733377 247.9096250643612 406.2588790612735 C247.2376213658115 402.8598923511149 246.0218252006722 399.47965867108144 244.62034380303888 397.1074003602673 C244.42581641661658 396.7792223330796 244.3550791851903 396.6151333194857 244.3329738003696 396.42760301823563 C244.26665764590746 395.8697003720165 243.9925508741306 394.43978182498427 243.8068656416366 393.67090758985876 C242.94475563362872 390.0843905784501 241.65822223706314 387.6277436320735 240.013581606402 386.4463027341977 C239.66873760319885 386.19782508504125 239.11168190571684 385.9212178906973 238.71820605590813 385.7993231948847 L238.40873066841812 385.70555804425965 L239.08073436696785 385.70555804425965 C240.36726776353342 385.69618152919713 242.08264562562084 386.0290478139161 243.19675702058487 386.4931853095102 C243.4266530227203 386.5916387176665 243.43107409968445 386.5916387176665 243.38244225307886 386.49787356704144 C243.33823148343743 386.4134849314789 243.34265256040158 386.4087966739476 243.44875840754102 386.45099099172893 C243.53275886985972 386.48380879444767 243.603496101286 386.4791205369164 243.70518087146132 386.4322379616039 C244.00139302805889 386.3056550082601 244.25781549197916 385.841517512666 244.53634334072018 384.9413720666654 C245.0845568842739 383.173898977383 244.99613534499102 381.5986444468819 244.3108684155489 380.8063289241001 C244.18265718358873 380.6609929406313 244.15170964483974 380.5906690776625 244.18707826055288 380.55316301741243 C244.284341953764 380.4500213517249 243.87760287306287 380.4265800640686 242.1887514727603 380.4312683215999 C240.47337361067284 380.43595657913113 239.69084298801957 380.4875274119749 238.49715220770096 380.66568119816253 C238.0550445112867 380.73131680360007 237.00282819382068 380.9376001349752 236.83482726918325 380.989170967819 C236.7773532686494 381.007923997944 236.75524788382867 380.94228839250644 236.71103711418726 380.6281751379125 C236.47672003508768 378.9591554567864 235.8621903370718 377.17761759491015 235.15039694584482 376.10869487778444 C234.80113186567752 375.58829829181536 234.18218109069753 374.92725397990864 233.7268101633908 374.58969943765845 C233.53228277696851 374.4490517117208 233.0769118496618 374.1724445173769 232.70996246163793 373.9802259585955 L232.04237984005235 373.62860664375154 L232.0468009170165 373.3707524795326 C232.05564307094477 372.9722505893761 232.29880230397265 372.5174896088445 233.13438585019566 371.3688665136875 C233.4703876994705 370.9094172756247 233.54554600786093 370.72188697437457 233.4173347759008 370.6703161415308 C233.38196616018766 370.65625136893703 233.2714392360841 370.6890691716558 233.1697544659088 370.74532826203085 C233.06364861876938 370.8015873524059 232.9531216946658 370.8297168975934 232.90006877109607 370.81565212499964 C232.85143692449049 370.7968990948746 232.70112030770966 370.60468053609327 232.56848799878537 370.3890206896556 C232.2943812270085 369.95301273924906 232.17501214897663 369.83111804343645 231.93185291594878 369.7561059229364 C231.68869368292093 369.6764055449051 231.53837706614007 369.74672940787394 231.37037614150265 370.01396008715534 C231.11395367758234 370.41246197731186 230.91058413723178 371.30323090825 230.80889936705648 372.49404832118825 C230.77353075134334 372.8737971812198 230.7381621356302 373.2019752084075 230.72047782777364 373.21603998100124 C230.68068813509635 373.25823429878255 230.21647505386136 373.13633960296994 229.9512104360128 373.0144449071574 C229.79647274226778 372.93943278665733 229.7080512029849 372.86910892368854 229.67710366423591 372.784720288126 C229.58426104798892 372.5221778663758 229.63289289459448 371.6407854505002 229.81415705012435 370.210866903468 C229.92910505119207 369.33416274512365 229.96005258994106 369.3997983505612 229.38531258460247 369.2497741095611 C228.92552058033164 369.1278794137485 228.41709672945518 369.11381464115476 228.22256934303292 369.2169563068423 C227.92193610947118 369.38104532043616 227.84235672411663 369.87331236121776 227.88214641679392 371.2375953028124 C227.89983072465049 371.7533036312503 227.89983072465049 372.2408824145006 227.88214641679392 372.3252710500632 L227.85561995500905 372.470607033532 L227.6964611842999 372.3721536253757 C227.45330195127204 372.21744112684434 227.09519471717647 372.2408824145006 226.56024440451517 372.4424774883445 C226.31708517148732 372.5315543814383 226.0871891693519 372.6206312745321 226.04297839971048 372.63938430465714 C225.98108332221247 372.6675138498446 225.96782009132002 372.6206312745321 225.94129362953518 372.2596354446256 C225.82634562846746 370.618745308687 225.4903437791926 369.2591506246236 224.8802351581409 367.9558150309352 C224.5530754627943 367.266641173841 224.02696730406132 366.43213133327794 223.92086145692187 366.43213133327794 C223.88991391817288 366.43213133327794 223.68654437782232 366.54933777155924 223.4699116065793 366.69467375502813 Z M238.44409928413125 381.1391952088191 C238.41315174538227 381.1485717238816 238.36009882181256 381.1485717238816 238.3335723600277 381.1391952088191 C238.3026248212787 381.12513043622533 238.3247302060994 381.1157539211628 238.3866252835974 381.1157539211628 C238.4485203610954 381.1157539211628 238.47062574591612 381.12513043622533 238.44409928413125 381.1391952088191 Z M229.64173504852278 381.7158508851632 C230.14573782243505 382.58317852844505 230.6851092120605 383.6333482154458 230.8310047518772 384.0552913932585 L230.87521552151864 384.17718608907114 L230.7381621356302 384.03653836313356 C230.3048965931442 383.60521867025824 229.8008938192319 382.6441258763513 229.41183904638734 381.5283205839131 C229.24825919871404 381.05480657325654 229.26594350657064 381.0688713458503 229.64173504852278 381.7158508851632 Z M228.79288827140732 381.50487929625683 C228.79288827140732 381.5423853565069 228.76194073265833 381.5752031592256 228.7265721169452 381.5752031592256 C228.6558348855189 381.5752031592256 228.63815057766234 381.5189440688506 228.69120350123205 381.46737323600684 C228.7398353478376 381.41111414563176 228.79288827140732 381.4298671757568 228.79288827140732 381.50487929625683 Z M227.55498672144734 382.51285466547625 C227.55498672144734 382.53629595313254 227.53288133662662 382.55973724078876 227.50635487484175 382.55973724078876 C227.48424949002103 382.55973724078876 227.47540733609276 382.53629595313254 227.48867056698518 382.51285466547625 C227.5019337978776 382.4847251202887 227.52403918269832 382.46597209016375 227.53730241359077 382.46597209016375 C227.54614456751904 382.46597209016375 227.55498672144734 382.4847251202887 227.55498672144734 382.51285466547625 Z M228.47457072998904 386.0993716768849 C228.8282568871205 386.21657811516627 228.7265721169452 386.23064288776 228.30214872838746 386.12750122207245 C228.0987791880369 386.0759303892287 227.87330426286562 386.02435955638487 227.7981459544752 386.0102947837911 C227.7274087230489 386.0009182687286 227.79372487751104 385.9962300111973 227.9528836482202 386.00560652625984 C228.11204241892932 386.01498304132235 228.3463594980289 386.05717735910366 228.47457072998904 386.0993716768849 Z M238.84641728786826 387.63243188960473 C239.1072608287527 387.8434034785111 239.1205240596451 387.8574682511049 239.06305005911128 387.8574682511049 C239.03210252036226 387.8574682511049 238.91715451929454 387.7730796155423 238.80662759519097 387.6699379498547 C238.56346836216312 387.4449015883546 238.58557374698384 387.4214603006983 238.84641728786826 387.63243188960473 Z M239.77926452730242 388.5138243054803 C239.8500017587287 388.5935246835116 239.8500017587287 388.60758945610536 239.79252775819484 388.5841481684491 C239.75273806551755 388.5653951383241 239.70852729587614 388.5232008205428 239.6952640649837 388.4856947602928 C239.6643165262347 388.396617867199 239.68642191105542 388.40130612473024 239.77926452730242 388.5138243054803 Z M241.08348223172456 390.38912731798155 C241.13653515529427 390.4969572412004 241.13653515529427 390.50164549873165 241.07021900083214 390.44069815082537 C241.0260082311907 390.4078803481066 240.9950606924417 390.3469330002003 240.9950606924417 390.304738682419 C240.9950606924417 390.2203500468564 241.00832392333413 390.22972656191894 241.08348223172456 390.38912731798155 Z M223.089698987663 391.59400950351363 C223.04106714105745 391.67370988154494 223.04106714105745 391.67370988154494 223.06317252587817 391.59400950351363 C223.0764357567706 391.54712692820107 223.089698987663 391.48149132276353 223.09412006462716 391.45336177757605 C223.09412006462716 391.41116745979474 223.10296221855543 391.41116745979474 223.11622544944788 391.45336177757605 C223.1294886803403 391.4861795802948 223.11622544944788 391.54712692820107 223.089698987663 391.59400950351363 Z M241.684748698848 391.8753049553888 L241.746643776346 392.10034131688894 L241.65822223706314 391.98313487860764 C241.60959039045758 391.9174992731701 241.5698006977803 391.80498109242 241.5698006977803 391.72996897191996 C241.5698006977803 391.54712692820107 241.60516931349343 391.59400950351363 241.684748698848 391.8753049553888 Z M212.21827073283566 393.1692640340147 C212.17405996319422 393.21145835179595 212.16963888623008 393.2067700942647 212.19616534801494 393.14113448882716 C212.20942857890736 393.09425191351465 212.23595504069223 393.07081062585837 212.24921827158465 393.08487539845214 C212.26248150247707 393.0989401710459 212.24921827158465 393.1364462312959 212.21827073283566 393.1692640340147 Z M222.55916975196587 394.56636477832814 C222.39116882732844 395.7993765090477 222.1701149791213 398.452930271737 222.15685174822886 399.4749704135502 C222.1480095943006 399.8265897283942 222.1480095943006 399.83127798592545 222.11706205555157 399.601553366894 C222.03306159323287 399.02958594808115 222.09495667073085 397.43557838745505 222.24969436447586 396.1228662787042 C222.33369482679458 395.4290041640787 222.59895944464316 393.88656743629645 222.62990698339215 393.9193852390152 C222.63874913732045 393.9287617540777 222.60780159857143 394.2194337210154 222.55916975196587 394.56636477832814 Z M242.18433039579614 394.86641326032833 C242.1887514727603 394.94611363835963 242.17990931883202 394.94611363835963 242.14454070311888 394.8898545479846 C242.12243531829816 394.85234848773456 242.1047510104416 394.72576553439075 242.1047510104416 394.6085590961094 L242.1091720874057 394.397587507203 L242.148961780083 394.58511780845316 C242.16664608793957 394.6882594741407 242.18433039579614 394.81484242748456 242.18433039579614 394.86641326032833 Z M211.8734267296325 395.2274090902348 C211.9043742683815 395.2461621203598 211.89995319141735 395.2836681806099 211.8645845757042 395.3305507559224 C211.77174195945722 395.44775719420375 211.74521549767235 395.4196276490162 211.76732088249307 395.2274090902348 C211.77616303642137 395.1336439396098 211.79384734427794 395.0867613642972 211.80711057517036 395.12426742454727 C211.8203738060628 395.16177348479727 211.8513213448118 395.20865606010983 211.8734267296325 395.2274090902348 Z M241.98980300937384 398.66390186064336 C241.97211870151727 398.7811082989247 241.94559223973243 398.87018519201854 241.93675008580414 398.85612041942477 C241.92348685491172 398.842055646831 241.92790793187586 398.7342257236122 241.94559223973243 398.61701928533085 C241.95885547062485 398.49512458951824 241.98538193240972 398.4060476964245 241.99864516330214 398.42011246901825 C242.00748731723044 398.43417724161196 242.0030662402663 398.5420071648308 241.98980300937384 398.66390186064336 Z M241.77317023813086 401.9316173599268 C242.0472770099077 402.2410423569895 242.32580485864872 402.65829727727106 242.1975936266886 402.5739086417085 C242.15338285704715 402.545779096521 242.07380347169257 402.44263743083343 242.02959270205113 402.34887228020835 C241.98538193240972 402.25979538711454 241.82622316170057 402.0535120557394 241.6759065449197 401.88942304214555 C241.530011005103 401.73002228608294 241.44158946582013 401.61750410533284 241.48137915849742 401.6409453929891 C241.51674777421056 401.65969842311415 241.64938008313484 401.7909696339892 241.77317023813086 401.9316173599268 Z M229.49583950870607 404.40232907889725 C229.63289289459448 404.93210217992885 229.59752427888134 404.97429649771016 229.4295233542439 404.48202945692856 C229.33668073799691 404.2101105201159 229.2836278144272 403.83036166008435 229.3455228919252 403.90068552305314 C229.35878612281763 403.91006203811565 229.42510227727976 404.13978665714706 229.49583950870607 404.40232907889725 Z M230.1103692067219 406.49329193783615 C230.1103692067219 406.51673322549243 230.08384274493704 406.4745389077111 230.05289520618805 406.3995267872111 C230.01752659047492 406.31982640917977 229.99100012869008 406.22606125855475 229.99100012869008 406.1885551983047 C229.99100012869008 406.15104913805465 230.02194766743906 406.19324345583595 230.05289520618805 406.2823203489298 C230.08384274493704 406.3713972420236 230.1103692067219 406.4651623926486 230.1103692067219 406.49329193783615 Z M230.31373874707248 407.1215184470241 C230.28721228528764 407.15433624974287 230.26510690046692 407.11214193196156 230.23858043868205 406.96211769096146 L230.2120539768972 406.8214699650239 L230.26952797743107 406.96211769096146 C230.3048965931442 407.0371298114615 230.32258090100078 407.11214193196156 230.31373874707248 407.1215184470241 Z M215.61807891826155 410.5720759900264 C215.67997399575952 410.6611528831202 215.67997399575952 410.6611528831202 215.60923676433325 410.60020553521395 C215.5650259946918 410.56738773249515 215.52965737897867 410.5158168996514 215.52965737897867 410.48768735446384 C215.52965737897867 410.4595578092763 215.53407845594282 410.45018129421385 215.54292060987112 410.4595578092763 C215.54734168683524 410.4689343243388 215.58271030254838 410.5205051571826 215.61807891826155 410.5720759900264 Z M217.2317720101737 412.972463846028 L217.31135139552825 413.1037350569031 L217.21850877928125 413.01465816380926 C217.16545585571154 412.9630873309655 217.1212450860701 412.90682824059047 217.1212450860701 412.8833869529342 C217.1212450860701 412.81775134749665 217.15219262481912 412.84119263515294 217.2317720101737 412.972463846028 Z M217.0681921625004 413.33814793346573 C217.05492893160798 413.3522127060595 217.0284024698231 413.3287714184032 217.0151392389307 413.2818888430907 C216.98861277714582 413.2162532376532 216.99303385410997 413.2115649801219 217.0372446237514 413.25375929790323 C217.0681921625004 413.28657710062197 217.08145539339282 413.324083160872 217.0681921625004 413.33814793346573 Z M217.43072047356011 413.80697368659105 C217.48819447409397 413.87260929202864 217.51472093587884 413.9241801248724 217.48819447409397 413.9241801248724 C217.4616680123091 413.9241801248724 217.4086150887394 413.87260929202864 217.3688253960621 413.80697368659105 C217.32903570338482 413.7413380811535 217.30250924159998 413.68976724830975 217.31135139552825 413.68976724830975 C217.32019354945655 413.68976724830975 217.37324647302626 413.7413380811535 217.43072047356011 413.80697368659105 Z M217.7799855537274 414.32268201502893 C217.76672232283497 414.33205853009144 217.7092483223011 414.27579943971637 217.65177432176725 414.19141080415386 L217.55008955159198 414.0413865631537 L217.67830078355212 414.1679695164976 C217.74461693801425 414.23829337946637 217.79324878461983 414.30861724243516 217.7799855537274 414.32268201502893 Z M218.13367171085883 414.786819510623 C218.12040847996641 414.80088428321676 218.05409232550426 414.7305604202479 217.98777617104213 414.6367952696229 L217.85956493908196 414.4633297409665 L218.00988155586285 414.6133539819666 C218.0894609412174 414.6977426175292 218.14693494175125 414.7774429955605 218.13367171085883 414.786819510623 Z M218.58020048423728 415.29783958152956 C218.58020048423728 415.3634751869671 218.46083140620541 415.2462687486858 218.3060937124604 415.03060890224816 L218.16461924960782 414.83839034346676 L218.37240986692257 415.04936193237313 C218.48735786799026 415.16188011312323 218.58020048423728 415.27439829387333 218.58020048423728 415.29783958152956 Z M246.2517212028076 416.6996285833743 C246.24730012584348 416.8871588846244 246.24730012584348 416.89184714215565 246.21193151013034 416.76995244634304 C246.17656289441717 416.6480577505305 246.19424720227374 416.50272176706164 246.23845797191518 416.50272176706164 C246.24730012584348 416.50272176706164 246.25614227977175 416.59179866015546 246.2517212028076 416.6996285833743 Z M220.8216865050577 417.5153853938123 C220.830528658986 417.54820319653106 220.94989773701786 417.65134486221865 221.08253004594215 417.749798270375 C221.21516235486644 417.8482516785313 221.32126820200585 417.9467050866876 221.32126820200585 417.97014637434387 C221.32126820200585 417.9982759195314 221.28589958629271 417.98421114693764 221.24610989361543 417.9467050866876 C221.201899123974 417.9091990264376 220.96316096791028 417.7076039525937 220.71558065791828 417.49194410615604 C220.47242142489043 417.28097251724967 220.25578865364741 417.07937744340575 220.242525422755 417.04187138315575 C220.22926219186257 417.0043653229057 220.3486312698944 417.07937744340575 220.50779004060357 417.21533691181213 C220.66694881131272 417.3466081226872 220.80842327416528 417.4825675910935 220.8216865050577 417.5153853938123 Z M246.29593197244904 418.43428386993793 C246.29593197244904 420.89561907384586 245.8096135063933 422.4990031495344 244.86350303606673 423.13660617378486 C244.7441339580349 423.2209948093474 244.593817341254 423.30538344491 244.53192226375603 423.324136475035 C244.47002718625802 423.34288950516 244.5407644176843 423.2819421572537 244.68665995750104 423.1881770066286 C245.1906627314133 422.86468723697215 245.60624396604274 422.2833433030968 245.73003412103876 421.72544065687765 C245.75656058282362 421.59885770353384 245.82287673728575 421.3878861146274 245.8803507378196 421.2613031612836 C246.00856196977975 420.9612546792834 246.08372027817018 420.57681756172065 246.0748781242419 420.27676907972045 C246.07045704727776 420.1454978688453 246.08814135513433 419.9063967347514 246.11908889388332 419.73761946362634 C246.15445750959645 419.5500891623762 246.17214181745305 419.1609637872822 246.16329966352475 418.7296440944069 C246.1500364326323 418.2045592509065 246.16329966352475 417.98421114693764 246.21193151013034 417.8482516785313 C246.24730012584348 417.75448652790624 246.27824766459247 417.67478614987493 246.28708981852074 417.67478614987493 C246.2915108954849 417.67478614987493 246.29593197244904 418.0170289496564 246.29593197244904 418.43428386993793 Z M223.22675237355145 419.306299770751 C223.33285822069087 419.3766236337198 223.6025439155036 419.5407126473137 223.8191766867466 419.6672956006575 C224.14191530512903 419.8501376443764 224.45581176958316 420.047044460689 224.58844407850745 420.1454978688453 C224.59728623243575 420.15487438390784 224.59728623243575 420.1689391565016 224.5840230015433 420.1830039290954 C224.54865438583016 420.2205099893454 222.95706667873873 419.250040680376 222.95706667873873 419.1937815900009 C222.95706667873873 419.1468990146884 223.04106714105745 419.18440507493847 223.22675237355145 419.306299770751 Z M229.78763058833948 422.5036914070657 C229.82299920405262 422.56463875497195 229.76552520351876 422.56463875497195 229.67710366423591 422.5036914070657 C229.61962966370206 422.4661853468156 229.61962966370206 422.45680883175316 229.6859458181642 422.45680883175316 C229.72573551084147 422.45680883175316 229.77436735744706 422.4755618618782 229.78763058833948 422.5036914070657 Z M231.2819546022198 423.0053349629098 C231.25100706347078 423.01471147797224 231.19795413990107 423.01471147797224 231.1714276781162 423.0053349629098 C231.1404801393672 422.991270190316 231.16258552418793 422.9818936752535 231.2244806016859 422.9818936752535 C231.28637567918392 422.9818936752535 231.30848106400464 422.991270190316 231.2819546022198 423.0053349629098 Z M236.27777157170124 424.2242819210356 C236.24682403295225 424.2336584360981 236.19377110938254 424.2336584360981 236.16724464759767 424.2242819210356 C236.13629710884868 424.2102171484418 236.15840249366937 424.2008406333793 236.2202975711674 424.2008406333793 C236.2821926486654 424.2008406333793 236.3042980334861 424.2102171484418 236.27777157170124 424.2242819210356 Z M237.38304081273697 424.41181222228573 C237.35209327398798 424.42118873734825 237.29019819648997 424.42118873734825 237.25040850381268 424.41181222228573 C237.20619773417124 424.39774744969196 237.2327241959561 424.38837093462945 237.3034614273824 424.38837093462945 C237.37861973577282 424.38837093462945 237.40956727452183 424.39774744969196 237.38304081273697 424.41181222228573 Z "></path>
    </defs>
    <g style="mix-blend-mode:normal">
      <use xmlns:xlink="http://www.w3.org/1999/xlink" xlink:href="#s-Path_8-550f5" fill="#FEE94E" fill-opacity="1.0" stroke-width="2.0" stroke="#404040" stroke-linecap="butt"></use>
    </g>
  </g>
</svg>
