<?xml version="1.0" encoding="UTF-8"?>
<svg xmlns="http://www.w3.org/2000/svg" width="62.999996185302734" height="78.2575912475586" viewBox="198.4999999922444 268.9321313627088 62.999996185302734 78.2575912475586" preserveAspectRatio="none">
  <g>
    <defs>
      <path id="s-Path_7-550f5" d="M232.35392143113697 270.58160457981575 C231.4737595047119 270.7227944577987 231.3816495356674 270.74632610412925 230.92109969044498 270.9698767442689 C230.71129364984364 271.06988624117355 230.55265981426703 271.093417887504 230.02558610251248 271.093417887504 C229.40640242171344 271.0993007990866 229.3756990986986 271.093417887504 229.032845325033 270.90516471686004 C228.81792206392922 270.7875064852076 228.59788158232294 270.7169115462161 228.46995106976115 270.7169115462161 C228.3573722187068 270.7169115462161 227.9633462400165 270.66396534197247 227.60002358434102 270.5992533145636 C227.23670092866556 270.53454128715475 226.77103386294064 270.48159508291116 226.56122782233933 270.48159508291116 C226.21325682817127 270.48159508291116 226.16720184364902 270.4933609060764 226.03415411058475 270.6463166072246 C225.8294652904859 270.8875159821122 225.7578242034513 271.3405001739742 225.7578242034513 272.36412678935073 C225.76294142395378 273.31715846573576 225.84481695199332 274.017224944068 226.13649852063418 275.71738639144627 C226.53564171982697 278.02348773183473 226.6891583349011 278.82356370707157 226.77103386294064 279.0000510545503 C226.81708884746288 279.1000605514549 227.04224654957164 279.41773777691657 227.27763869268531 279.70600044446513 C227.75354019941517 280.2942916027275 227.92752569649917 280.6237346513544 227.83029850695223 280.77080744092 C227.7995951839374 280.82375364516366 227.72283687640032 280.98259225789445 227.66143023037068 281.1296650474601 C227.5334997178089 281.42969353817386 227.51814805630147 281.9062093763664 227.58978914333608 283.0121967538997 C227.62560968685338 283.4945955036748 227.61537524584844 283.741677790145 227.5488513793163 284.1358328661808 C227.50279639479407 284.4123297105641 227.46697585127674 284.741772759191 227.46697585127674 284.8711968140087 C227.46697585127674 285.1535765699747 227.61025802534596 285.52419999968 227.79447796343493 285.71245317032395 C227.98381512202639 285.9183550757158 227.97358068102145 286.20661774326436 227.7433057584102 286.7949089015267 C227.50279639479407 287.4126146177022 227.4976791742916 287.6596969041724 227.71771965589787 287.91854501380783 L227.88147071197693 288.1126810960344 L227.77400908142505 288.665674784801 C227.6204924663509 289.4833994947857 227.62560968685338 289.995212802474 227.7995951839374 290.40701661325767 C227.93776013750414 290.73057675030196 227.93776013750414 290.73645966188457 227.8507673889621 290.94824447885907 C227.71260243539538 291.28357043906857 227.70236799439044 291.73655463093064 227.8200640659473 292.3483774355235 C227.95822901951402 293.06020973702095 227.95822901951402 293.1955167034213 227.7995951839374 293.3661211393174 C227.60514080484347 293.5720230447092 227.5693202613262 293.8191053311794 227.63072690735584 294.4544597821028 C227.67678189187808 294.88979523921694 227.67678189187808 295.0956971446088 227.6204924663509 295.4251401932357 C227.55908582032126 295.80164653452357 227.55908582032126 295.9134218545935 227.64607856886326 296.5017130128558 C227.70236799439044 296.8664535309785 227.7433057584102 297.3312035460058 227.73818853790775 297.5429883629802 C227.73307131740526 297.75477317995467 227.7791263019275 298.21364028339934 227.8354157274547 298.57249788993937 C227.9786979015239 299.43140298100246 227.98893234252884 300.27854224890024 227.8558846094646 300.50209288903994 C227.71260243539538 300.7432922639275 227.73818853790775 301.0374378430587 227.94799457850908 301.6139631781558 C228.0503389885585 301.8963429341218 228.13221451659805 302.1787226900877 228.13221451659805 302.2493176290792 C228.13221451659805 302.4258049765579 227.99404956303133 302.7023018209412 227.87635349147448 302.77877967151534 C227.8200640659473 302.81407714101107 227.78424352243 302.86702334525467 227.7995951839374 302.8964379031678 C227.91729125549426 303.1141056317249 227.93264291700166 304.0730202196925 227.8200640659473 304.0730202196925 C227.79447796343493 304.0730202196925 227.77400908142505 304.0318398386142 227.77400908142505 303.9847765459532 C227.77400908142505 303.9377132532922 227.55908582032126 302.8729062568373 227.29299035419274 301.6139631781558 C227.02689488806422 300.36090301105696 226.66868945289121 298.63720991734823 226.49470395580718 297.7783048262852 C226.12626407962924 295.9604851472544 226.00345078756993 295.56044715963606 225.3433293427511 294.0014755902408 C225.0772338766226 293.3602382277348 224.79066952848422 292.64252301465467 224.70367677994219 292.3954407281845 C223.3066755827675 288.3479975593394 220.21075717877227 286.6125386424654 217.03808046723998 288.10091527286914 C216.4803034324706 288.35976338250464 215.91740917719875 288.7480355469578 214.7250968001229 289.68930140017756 C209.67951738468608 293.6779154531964 206.4147307041093 297.53122253981496 204.2143258880466 302.09047901634835 C203.71283827880438 303.1258714548901 202.57681532725573 305.74376710915766 202.16232046655554 306.80269119402993 C201.02118029450443 309.7441469853418 200.35594162918315 312.41498884385294 200.14101836807933 314.9564066475464 C200.06426006054227 315.8741408544357 199.97215009149778 325.7986126943219 200.00797063501508 329.45778369871385 C200.0437911785324 333.35227116641073 200.20754223461145 337.27617319202074 200.40199661370536 338.98810046256426 C200.63227153631658 340.9882904006563 201.3282135246527 342.7649296986086 202.35677484564945 343.9650436614639 C203.03736517247816 344.7651196367007 203.8151826888538 345.29458167913685 204.6953446152789 345.55931270035495 C205.07913615296425 345.6769709320074 205.24800442954583 345.6946196667553 206.1281663559709 345.6887367551726 C209.01939593986725 345.6710880204248 212.48375422004042 345.2357525633106 214.57669740555124 344.635695581883 C216.01463636674572 344.2180088595167 216.90503273417573 343.8297366950635 218.89563150963713 342.7355151406955 C223.12757286518098 340.41764797714177 224.46316741632603 339.4822650355046 225.90622359802296 337.8115181460395 C227.18552872364083 336.3407902503836 227.84053294795717 334.9759547632149 228.26014502915984 332.92870153246184 C228.50577161327845 331.722704658024 228.61323324383036 330.60495145732546 228.6951087718699 328.4576887296678 C228.85885982794898 323.99844175003904 228.87932870995888 323.639584143499 229.1249552940775 321.9276568729555 C229.391050760206 320.06865681284637 229.4319885242258 319.42741945034044 229.4319885242258 317.10366937520405 C229.4319885242258 315.4505712204868 229.4115196422159 314.67402689158047 229.34499577568377 313.868068004761 C229.24776858613683 312.7503148040625 229.0533142070429 311.08545082618 228.92538369448113 310.25007738144745 C228.84862538694404 309.75591280850705 228.84862538694404 309.7500298969244 228.95608701749595 309.66178622318506 C229.0174936635256 309.61472293052407 229.304058011664 309.53236216836734 229.58550513929993 309.48529887570635 C230.0000000000001 309.4147039367149 230.1995715995965 309.4088210251322 230.59871479878927 309.4558843177932 C230.87504470592273 309.49118178728895 231.1104368490364 309.53824507994995 231.1309057310463 309.56177672628047 C231.1513746130562 309.57942546102834 231.10531962853395 310.03240965289035 231.03367854149934 310.5559887837439 C230.649887003814 313.30919140441176 230.56801147577445 314.49165663251915 230.56801147577445 317.10366937520405 C230.56801147577445 319.42741945034044 230.6089492397942 320.06865681284637 230.87504470592273 321.9276568729555 C231.12067129004134 323.639584143499 231.14114017205125 323.99844175003904 231.30489122813032 328.4576887296678 C231.40723563817977 331.15206223450946 231.58122113526377 332.5286635448434 232.02130209847633 334.07586929107345 C232.7223613073149 336.53492633261015 234.41104407313048 338.6292428560242 237.19481202647495 340.476477092968 C238.10567727591484 341.0765340743957 241.55980111508308 343.0237778082441 242.79816847668116 343.6356006128369 C244.3128657454127 344.38273038383016 246.25740953635184 344.94748989576203 248.34011828085772 345.25340129805846 C249.95204273913623 345.48871776136343 252.3929569188151 345.6769709320074 253.87183364402932 345.6887367551726 C254.75199557045443 345.6946196667553 254.92086384703597 345.6769709320074 255.30465538472134 345.55931270035495 C257.5664668468137 344.87101204518797 259.21421184860947 342.353125887825 259.59800338629486 338.98810046256426 C259.7924577653888 337.27617319202074 259.95620882146784 333.35227116641073 259.99202936498517 329.45778369871385 C260.02784990850245 325.7986126943219 259.93573993945796 315.8741408544357 259.8589816319209 314.9564066475464 C259.6440583708171 312.41498884385294 258.9788197054958 309.7441469853418 257.83767953344466 306.80269119402993 C257.4231846727445 305.74376710915766 256.28716172119584 303.1258714548901 255.78567411195365 302.09047901634835 C254.10210856664054 298.59602953626984 251.83517988404571 295.5839788059665 248.59086208547882 292.5307476945848 C247.3166741803634 291.32475082014696 244.93716664671422 289.35985835155066 243.86255034119523 288.6244944037227 C241.037844623831 286.68313358145684 237.87540235330363 287.49497537985894 236.08949239794111 290.6305672533974 C235.7824591677928 291.1717951189987 235.51636370166432 291.7600862772611 235.29632322005804 292.3954407281845 C235.209330471516 292.64252301465467 234.92276612337764 293.3602382277348 234.65667065724912 294.0014755902408 C233.99143199192784 295.5780958943839 233.873735920371 295.9604851472544 233.47970994168068 297.89596305793765 C233.03451175796567 300.1020549014215 232.27204590309742 303.68474805523937 232.24645980058506 303.7141626131525 C232.2055220365653 303.7612259058135 232.22599091857518 303.42589994560393 232.2822803441024 303.13175436647276 C232.3334525491271 302.8434916989242 232.3334525491271 302.83172587575893 232.17993593405293 302.6258239703671 C231.97524711395408 302.36109294914905 231.97524711395408 302.19048851325294 232.20040481606284 301.5668998854948 C232.41021085666415 300.99037455039775 232.42044529766912 300.7609409986754 232.27204590309742 300.4197321268832 C232.169701493048 300.2079473099088 232.16458427254554 300.1197036361694 232.19017037505787 299.6137732400638 C232.21063925706778 299.2960960146021 232.26692868259497 298.76663397216595 232.32321810812215 298.43719092353905 C232.38974197465427 298.06656749383376 232.41532807716663 297.72535862204154 232.39485919515676 297.57240292089335 C232.37950753364933 297.4135643081625 232.41021085666415 297.02529214370935 232.48185194369876 296.5664250402647 C232.58419635374818 295.9016560314282 232.58931357425064 295.7722319766105 232.53814136922594 295.4486718395662 C232.4920863847037 295.19570664151337 232.48185194369876 294.8603806813038 232.50743804621112 294.37798193152867 C232.54837581023088 293.6367350721181 232.527906928221 293.5367255752135 232.30274922611227 293.24846290766493 L232.18505315455542 293.10139011809935 L232.30786644661472 292.42485528609757 C232.4562658411864 291.5777160181998 232.4562658411864 291.4482919633821 232.32321810812215 291.00707359468527 C232.22087369807272 290.6658647228931 232.21575647757024 290.6305672533974 232.29763200560978 290.4423140827534 C232.41021085666415 290.1717001499527 232.3999764156592 289.8010767202474 232.26692868259497 289.0774785955847 L232.15434983154057 288.46565579099183 L232.26692868259497 288.09503236128654 C232.41021085666415 287.63028234625926 232.41021085666415 287.31260512079757 232.27204590309742 286.73607978570044 C232.1338809495307 286.1536715390207 232.15946705204306 285.90658925255053 232.39485919515676 285.6006778502541 C232.7223613073149 285.1888740394704 232.73771296882234 284.85354807926086 232.50743804621112 283.40635182993543 C232.49720360520618 283.35340562569183 232.527906928221 282.9945480191518 232.56884469224076 282.61215876628125 C232.66095466128527 281.7650194983834 232.63025133827043 281.4414593613391 232.42556251817157 280.97670934631185 C232.26692868259497 280.61196882818916 232.26692868259497 280.61196882818916 232.35392143113697 280.4001840112147 C232.4050936361617 280.28252577956226 232.6353685587729 279.9471998193527 232.87076070188658 279.66482006338674 C233.1010356244978 279.37655739583823 233.331310547109 279.05888017037654 233.37224831112877 278.96475358505455 C233.4592410596708 278.770617502828 233.9965492124303 275.85857626942925 234.1961208120267 274.50550660542575 C234.36498908860824 273.36422175839675 234.43151295514036 272.328829319855 234.38034075011566 271.71700651526214 C234.25241023755387 270.32863938176297 234.17053470951433 270.281576089102 232.35392143113697 270.58160457981575 Z "></path>
    </defs>
    <g style="mix-blend-mode:normal">
      <use xmlns:xlink="http://www.w3.org/1999/xlink" xlink:href="#s-Path_7-550f5" fill="#FEE94E" fill-opacity="1.0" stroke-width="2.0" stroke="#404040" stroke-linecap="butt"></use>
    </g>
  </g>
</svg>
