<?xml version="1.0" encoding="UTF-8"?>
<svg xmlns="http://www.w3.org/2000/svg" width="36.9925537109375" height="56.135738372802734" viewBox="211.5000261903764 530.932131290217 36.9925537109375 56.135738372802734" preserveAspectRatio="none">
  <g>
    <defs>
      <path id="s-Path_10-550f5" d="M226.89097384137983 532.4518955433214 C226.81178933303852 532.4636170623094 226.52333148122364 532.5046423787677 226.240529665719 532.5398069357319 C224.66249553520208 532.7390727585291 222.71116300821916 533.4365031383196 220.82204688064724 534.4914398472464 C219.97929747044293 534.9603006067694 219.4080378031232 535.4174398473042 218.5200401024382 536.3434398473621 C215.3639718414048 539.6254651640231 214.08570763532305 543.3470474427369 214.82099235563567 547.127237316391 C215.05288984434935 548.3169714936805 215.72595816525097 549.9872879494812 216.43296270401277 551.1125537723364 C217.38317680410898 552.6363512407861 218.72931344591177 553.5389082028679 220.66933390027464 553.9726044054266 L221.15009698663278 554.0839588358133 L220.68630200920495 554.3301107345629 C219.19310842333982 555.1388955447401 218.37298315837563 556.4810094688746 218.01665287083972 558.719819595597 C217.90353214463778 559.4231107348814 217.8752519630874 559.663401874137 217.66597861961384 561.398186684372 C217.42842509458967 563.4025664313327 217.12865517015473 564.5923006086224 216.5121472123543 565.9109714947808 C216.31984197781105 566.3270854188575 216.0257280896859 566.9893512416836 215.86170303669326 567.3761613682901 C215.69767798370037 567.7629714948966 215.12641831638064 568.9878702291504 214.58909486692176 570.1014145330175 C213.6049445489649 572.1526803559306 213.31648669715003 572.8969968116734 213.10721335367646 573.9109082041418 C212.95450037330409 574.6669461788726 212.96581244592414 576.9878069385114 213.13549353522706 578.3181993436579 L213.25992633404906 579.3028069386562 L213.13549353522706 579.754085419697 C212.96581244592414 580.363604407077 212.95450037330409 581.6646930147533 213.10721335367646 582.409009470496 C213.41263931442165 583.8683385845113 214.074395562703 584.9936044073665 214.8775527187364 585.4038575719492 C215.1942907521019 585.5679588377822 215.27913129675346 585.5855411162643 215.54496500332777 585.556237318794 C215.7146460926307 585.5386550403119 215.9295754724145 585.4800474453716 216.0257280896859 585.4273006099253 C216.7553567736885 585.0404904833188 217.4793294213806 583.7745664326068 217.6772906922339 582.561389217341 C217.88090799939744 581.2954651666289 217.95443647142872 580.3225790906187 217.98837268928935 578.5116044069612 C217.9996847619094 577.5094145334808 218.0449330523901 576.4955031410123 218.0732132339407 576.2552120017567 C218.14108566966172 575.7746297232457 218.36167108575557 575.0010094700327 218.52569613874823 574.6610854193787 C218.5822565018492 574.5438702294979 218.68406515543109 574.1922246598556 218.7519375911521 573.8816044066716 C219.01211526141662 572.6274018749476 219.52115852932513 571.3556170647415 220.1546345960561 570.3592879507552 C220.53358902883235 569.7673512418573 221.24059356759437 568.8765157987636 221.71570061764226 568.4017942797467 L222.03243865100774 568.0794525075746 L221.60823592775034 568.7475790898949 C220.89557535267852 569.866984153256 220.47702866573138 570.8515917482544 220.23381910439718 571.9885790900976 C220.09241819664487 572.6684271914058 220.09241819664487 574.4794018750634 220.2394751407072 575.2237183308062 C220.84467102588735 578.3357816221401 222.53016984629596 581.4068195970157 224.5719989542407 583.1064398502865 C225.82198297877187 584.1496550402251 227.17943169319494 584.7826170655811 228.81402618681238 585.0815157997771 C229.6228393791563 585.2338955466221 231.4044908168363 585.2338955466221 232.29248851752152 585.0815157997771 C233.7008415587353 584.8470854200156 234.92254540171587 584.4954398503734 236.3195863703096 583.9210854199576 C240.05257033497298 582.3914271920139 243.2142946323164 579.0507942804126 244.4699346931576 575.3174904827108 C244.96200985213602 573.8523006092014 245.88959980699144 569.6559968114707 246.31945856655886 566.9659082037075 C246.82284579815735 563.7952373174332 246.99252688746026 561.7849968109784 246.99252688746026 558.9659714943465 C246.9981829237703 555.2326676966446 246.60791641837375 552.466389215459 245.65770231827776 549.471541114006 C243.89301898952783 543.8979588351764 240.5616136028815 539.3793132652735 235.17706703567035 535.2474778219772 C233.22007847237717 533.7471233915036 231.42145892576661 532.8973132648682 229.49275054402403 532.563249973708 C228.9837072761153 532.4753385812975 227.190743765815 532.3932879483809 226.89097384137983 532.4518955433214 Z "></path>
    </defs>
    <g style="mix-blend-mode:normal">
      <use xmlns:xlink="http://www.w3.org/1999/xlink" xlink:href="#s-Path_10-550f5" fill="#FEE94E" fill-opacity="1.0" stroke-width="2.0" stroke="#404040" stroke-linecap="butt"></use>
    </g>
  </g>
</svg>
