<?xml version="1.0" encoding="UTF-8"?>
<svg xmlns="http://www.w3.org/2000/svg" width="71.99999237060547" height="42.27064514160156" viewBox="193.49999999570167 460.93213138438387 71.99999237060547 42.27064514160156" preserveAspectRatio="none">
  <g>
    <defs>
      <path id="s-Path_9-550f5" d="M262.05834611797326 462.44409573020266 C261.7724032180055 462.4823394013535 260.93615511432597 462.6693084603132 260.4937528917343 462.79678736414934 C259.511835763543 463.08149024938336 258.19002424482386 463.5659100839608 254.53211318485828 464.9894245101311 C252.4118196058517 465.8137880882715 250.2861308777891 466.62540377602835 249.81135776086143 466.79537564780986 C243.90366954454538 468.9072761546954 241.1683289731552 469.37469880209466 236.97090300759 469.00076068417525 C234.02515162301597 468.7415535797084 230.61541741962625 468.0616660925823 222.2960975752798 466.0942416767111 C218.34684846629042 465.15939638191264 217.66166453617888 465.0106709941038 216.46933659480368 464.81945263834956 C213.32935984421377 464.31803561659405 210.55085808037563 464.3477806941558 207.95039623538537 464.9086878710349 C205.45244222245904 465.44834856394124 203.29438260006046 466.46817979463043 201.38989498329374 468.01067453104787 C199.9547853343987 469.1707325559568 198.94589246092738 470.3180426904822 197.8884432459521 471.97951773714664 C196.3939869574411 474.33362816132086 195.4660213198097 476.8959541284275 195.06678028966596 479.75573087115174 C194.97506275571402 480.4016239839216 194.98045790477002 484.3959629707876 195.06678028966596 485.93845770720503 C195.51457766131367 493.531951079045 196.518075385729 499.247255267699 197.7050081780482 500.96822046948705 C197.8938383950081 501.24442476113205 198.36321636287977 501.58011920790057 198.65455441190358 501.64810795661316 C199.04840029299132 501.74159248609305 199.9385998872307 501.71184740853124 200.5698323267823 501.5843685046951 C202.55524717938897 501.1764360124194 205.8031269110988 499.799663850989 208.87836187301676 498.0574521652283 L209.74698087103218 497.5645337370619 L210.51848718603964 497.6325224857745 C211.57054125195896 497.7217577184598 213.8850601969814 497.6877633441035 214.9586948591247 497.5645337370619 C219.7657726680175 497.02912234095004 223.89845684491073 495.33790221672376 226.74170039742083 492.7373325784663 C228.45196264817167 491.17359135807624 229.55796820465096 489.3336458460411 229.98418498007467 487.3322270558136 C230.04892676874664 487.0347762801959 230.11366855741858 486.77556917572906 230.12445885553058 486.76282128534547 C230.14603945175455 486.72882691098914 230.75569129508216 486.66083816227655 231.60272969687358 486.59709871035847 C234.80744823613546 486.34214090268614 238.68656040739685 485.03335748996835 243.09439718614593 482.71749073694497 C250.34547751740507 478.9058715122441 258.05514551842396 472.76138834734166 261.8479353047894 467.76846461375914 C262.72194945186084 466.61265588564476 263.58517330082026 465.15939638191264 263.87111620078804 464.35202999095037 C264.03836582152394 463.87185945316753 264.0437609705799 463.23021563719226 263.88190649890004 462.9922550166981 C263.73623747438813 462.7712915833821 263.5150363630923 462.60981830518966 263.2452789102925 462.52058307250434 C263.0294729480526 462.45259432379174 262.36047446510906 462.41010135584634 262.05834611797326 462.44409573020266 Z "></path>
    </defs>
    <g style="mix-blend-mode:normal">
      <use xmlns:xlink="http://www.w3.org/1999/xlink" xlink:href="#s-Path_9-550f5" fill="#FEE94E" fill-opacity="1.0" stroke-width="2.0" stroke="#404040" stroke-linecap="butt"></use>
    </g>
  </g>
</svg>
